<?xml version="1.0" standalone="no"?>
<!DOCTYPE svg PUBLIC "-//W3C//DTD SVG 20010904//EN"
 "http://www.w3.org/TR/2001/REC-SVG-20010904/DTD/svg10.dtd">
<svg version="1.0" xmlns="http://www.w3.org/2000/svg"
 width="1920.000000pt" height="1080.000000pt" viewBox="0 0 1920.000000 1080.000000"
 preserveAspectRatio="xMidYMid meet">
 <style>
 .castle-feature {
  fill: orange;
}
    .castle-hill {
        fill: red;
    }

 </style>

<g transform="translate(0.000000,1080.000000) scale(0.100000,-0.100000)"
fill="#000000" stroke="none"> 
<path class="castle-hill" d="M16050 8857 c0 -43 -1 -43 -30 -39 -17 2 -37 -1 -44 -7 -11 -9 -19
-9 -35 1 -18 11 -24 9 -48 -14 -16 -15 -46 -29 -69 -33 -41 -6 -42 -7 -59 -67
-19 -70 -14 -80 41 -81 22 0 44 -3 49 -7 6 -4 22 -10 37 -14 28 -6 57 -54 72
-118 3 -14 30 -52 60 -83 30 -32 67 -85 84 -119 18 -36 44 -71 63 -85 19 -14
38 -31 42 -38 5 -8 32 -25 62 -38 29 -14 55 -31 59 -40 9 -25 45 -18 52 10 3
14 11 25 16 25 7 0 8 23 3 68 -4 37 -7 78 -7 92 1 14 -4 35 -10 48 -9 18 -8
45 5 125 10 56 17 115 17 132 0 37 -42 75 -82 75 -23 0 -28 4 -28 26 0 17 -12
36 -35 57 -21 18 -35 40 -35 54 0 13 -4 23 -10 23 -5 0 -10 -12 -10 -27 0 -21
-3 -24 -12 -15 -7 7 -26 12 -44 12 -34 0 -44 16 -44 73 0 20 -5 27 -20 27 -11
0 -20 5 -20 10 0 6 -4 10 -10 10 -5 0 -10 -19 -10 -43z m80 -222 c7 -8 15 -44
17 -79 6 -63 5 -65 -20 -71 -14 -4 -39 -3 -54 2 -27 9 -28 12 -31 86 l-3 77
39 0 c23 0 45 -6 52 -15z"/>
<path class="castle-hill" d="M18375 5809 c-22 -4 -89 -8 -148 -8 -61 -1 -179 -12 -270 -25 -236
-36 -344 -46 -612 -56 -252 -10 -364 -24 -610 -81 -202 -46 -398 -76 -732
-114 -368 -40 -405 -46 -592 -90 -214 -50 -250 -54 -671 -65 -212 -5 -455 -17
-540 -25 -128 -13 -175 -14 -269 -4 -176 18 -329 7 -501 -36 -80 -20 -233 -49
-340 -66 -136 -21 -230 -42 -310 -69 -330 -110 -600 -204 -728 -254 -79 -31
-180 -65 -225 -76 -192 -49 -276 -96 -443 -251 -57 -52 -87 -72 -145 -93 -41
-15 -103 -47 -139 -71 -46 -31 -105 -57 -200 -88 -74 -25 -166 -63 -205 -86
-44 -26 -82 -41 -103 -41 -60 0 -112 -40 -301 -227 -188 -188 -223 -215 -424
-334 -60 -35 -141 -90 -180 -122 -40 -32 -123 -83 -186 -114 -93 -46 -129 -71
-202 -139 -49 -46 -103 -94 -121 -107 -18 -13 -65 -47 -105 -76 -40 -30 -76
-65 -83 -81 -27 -66 19 -128 112 -152 51 -12 361 -20 708 -16 69 1 157 0 195
-2 106 -5 188 -4 1015 14 421 10 833 15 915 11 350 -13 597 -26 695 -35 58 -5
195 -14 305 -20 243 -12 352 -24 511 -56 164 -32 407 -54 719 -64 143 -5 305
-16 360 -25 55 -8 220 -20 368 -25 147 -5 271 -11 275 -14 4 -2 246 -7 537
-10 292 -4 643 -11 780 -17 261 -11 281 -10 460 21 61 11 162 22 225 26 63 3
147 12 185 20 89 18 198 18 300 0 55 -10 162 -14 340 -14 253 0 261 1 306 24
85 43 235 68 419 69 143 2 179 6 270 29 58 14 122 34 142 43 75 32 68 -110 66
1494 l-3 1444 -38 9 c-41 11 -68 5 -173 -35 l-61 -23 -86 42 c-138 68 -156 72
-296 71 -69 -1 -144 -5 -166 -10z"/>


<path class="castle-feature" d="M15076 8919 c-9 -13 -16 -35 -16 -49 0 -14 -3 -42 -6 -63 -5 -30 -12
-38 -33 -43 -58 -12 -67 -21 -81 -77 -15 -66 -10 -240 10 -277 10 -18 11 -49
4 -134 -12 -151 -8 -612 7 -667 14 -56 36 -260 49 -463 7 -122 14 -165 28
-190 23 -39 72 -57 121 -44 19 6 48 7 64 4 38 -8 91 18 107 52 17 37 12 518
-9 847 -6 88 -11 251 -11 363 0 281 -25 431 -82 505 -29 37 -30 41 -27 130 4
91 4 92 -22 104 -54 26 -85 27 -103 2z"/>
<path class="castle-feature" d="M16640 8694 c-94 -30 -153 -45 -191 -49 -81 -10 -79 -1 -79 -346 0
-286 -7 -419 -31 -634 -10 -96 -1 -197 28 -310 12 -48 16 -142 18 -455 2 -217
0 -456 -4 -530 -4 -74 -4 -178 1 -230 4 -52 11 -143 14 -202 3 -60 11 -114 18
-124 11 -15 35 -17 202 -16 228 2 284 5 353 23 58 15 78 41 67 89 -3 14 -8
104 -11 200 -2 96 -9 220 -15 275 -32 299 -39 427 -39 750 1 234 -3 351 -11
375 -7 21 -14 146 -19 310 -3 151 -10 281 -14 288 -10 15 -34 16 -43 0 -4 -6
-7 -89 -6 -184 l2 -173 -42 12 c-56 17 -59 32 -49 282 8 179 8 284 3 547 -2
95 -13 108 -85 107 -29 0 -59 -3 -67 -5z"/>
<path class="castle-feature" d="M15400 8400 c0 -5 -9 -10 -20 -10 -23 0 -41 -31 -22 -38 16 -5 15
-35 0 -51 -11 -10 -10 -15 5 -25 9 -7 17 -19 17 -27 0 -8 11 -1 25 15 18 21
22 32 14 42 -7 9 -7 18 2 32 13 21 5 72 -11 72 -6 0 -10 -4 -10 -10z"/>
<path class="castle-feature" d="M15486 8112 c-8 -13 -10 -431 -2 -439 13 -14 16 10 21 193 3 104 8
204 11 222 5 25 3 32 -9 32 -9 0 -18 -4 -21 -8z"/>
<path class="castle-feature" d="M15370 7947 c0 -7 6 -22 14 -33 14 -18 15 -18 21 -1 4 9 5 24 1 32
-7 18 -36 20 -36 2z"/>
<path class="castle-feature" d="M15356 7871 c-3 -5 1 -14 9 -21 11 -9 12 -16 2 -31 -9 -15 -8 -21 8
-33 29 -23 35 -20 35 18 0 19 5 36 12 38 6 2 9 12 5 21 -7 18 -61 24 -71 8z"/>
<path class="castle-feature" d="M17468 7761 c-9 -15 -15 -17 -26 -9 -7 6 -40 12 -72 14 -69 3 -93
-13 -71 -47 6 -11 9 -30 5 -41 -3 -11 -3 -63 1 -115 7 -89 8 -94 28 -91 21 3
22 8 21 121 0 80 3 116 10 114 7 -2 11 -54 12 -146 0 -124 2 -144 17 -153 36
-19 42 9 37 157 -1 39 -3 86 -4 105 -1 24 4 35 15 38 13 2 17 -14 22 -104 5
-76 4 -110 -4 -115 -16 -9 13 -94 32 -94 21 0 27 44 28 211 1 105 -3 154 -11
162 -17 17 -26 15 -40 -7z"/>
<path class="castle-feature" d="M15398 7720 c-4 -31 -6 -33 -13 -12 -11 32 -25 27 -25 -8 0 -16 5
-30 11 -30 8 0 8 -4 0 -14 -9 -10 -9 -21 -3 -33 5 -10 13 -37 17 -60 11 -70
22 -49 27 55 6 99 -5 173 -14 102z"/>
<path class="castle-feature" d="M14065 7670 c-26 -10 -144 -134 -180 -187 -21 -32 -26 -50 -22 -72 6
-30 -11 -51 -88 -104 -23 -17 -25 -24 -22 -67 3 -31 0 -56 -9 -68 -16 -24 -18
-98 -11 -407 4 -186 8 -236 22 -262 15 -30 15 -54 6 -240 -14 -267 -32 -527
-37 -532 -2 -3 -10 1 -17 8 -9 9 -12 88 -12 309 l0 297 -29 50 c-52 88 -63 95
-148 88 -79 -6 -98 -15 -98 -44 0 -13 -7 -19 -24 -19 -30 0 -76 -36 -76 -60 0
-25 25 -43 49 -35 11 3 31 19 45 36 19 23 33 29 63 29 l38 0 -2 -306 -1 -307
26 -26 c39 -38 54 -70 54 -118 1 -33 6 -46 25 -58 31 -21 31 -55 -1 -55 -43 0
-49 -20 -44 -146 5 -121 9 -134 54 -134 12 0 27 7 34 15 7 8 21 15 31 15 18 0
22 11 22 55 -1 35 -3 37 -23 32 -16 -4 -20 0 -20 19 0 21 4 24 40 24 29 0 40
4 40 15 0 11 -11 15 -40 15 -36 0 -40 3 -40 24 0 41 11 56 39 56 36 0 51 17
51 57 0 33 21 46 35 23 4 -6 23 -19 43 -29 20 -11 59 -40 87 -66 49 -46 97
-75 122 -75 7 0 13 -4 13 -10 0 -5 -11 -10 -25 -10 -16 0 -25 -6 -25 -16 0
-12 7 -15 25 -12 19 4 25 1 25 -13 0 -16 -8 -19 -55 -19 -30 0 -55 -4 -55 -10
0 -5 15 -10 33 -10 48 0 77 -10 77 -27 0 -9 -6 -12 -19 -8 -22 7 -71 -10 -71
-25 0 -5 19 -10 43 -10 24 0 48 -5 54 -11 21 -21 31 1 38 84 9 119 9 131 -5
252 -9 86 -9 165 0 364 10 228 14 257 31 280 15 19 19 37 17 71 -2 41 0 45 22
48 48 7 46 -3 50 264 2 118 -1 172 -9 182 -9 10 -10 46 -5 126 6 100 9 114 31
134 21 20 24 31 26 128 2 113 -7 144 -37 119 -9 -8 -15 -38 -17 -96 -4 -89 -8
-99 -32 -89 -18 7 -23 59 -30 356 -3 109 -8 202 -12 208 -7 12 -42 12 -70 0z"/>
<path class="castle-feature" d="M18167 7582 c-18 -19 -21 -58 -11 -110 8 -38 54 -57 120 -49 29 3 44
1 45 -7 13 -129 15 -303 4 -361 -6 -32 -3 -45 12 -64 18 -22 20 -22 36 -7 15
15 16 37 12 189 -5 147 -4 167 7 137 16 -43 45 -52 54 -16 11 43 24 29 24 -26
0 -34 -6 -58 -16 -69 -15 -17 -15 -20 0 -44 20 -30 43 -42 57 -28 5 5 12 56
14 111 4 109 -5 135 -44 125 -10 -3 -22 0 -25 6 -10 15 -56 14 -57 -1 -2 -37
-19 59 -23 130 -2 46 -7 86 -10 89 -3 4 -46 8 -94 10 -76 3 -90 1 -105 -15z"/>
<path class="castle-feature" d="M15387 7496 c-11 -28 -8 -124 4 -131 14 -9 59 34 59 56 0 10 -8 24
-18 31 -9 7 -22 24 -28 37 -9 22 -11 23 -17 7z"/>
<path class="castle-feature" d="M17390 7316 c0 -29 10 -38 29 -27 18 11 10 45 -12 49 -12 3 -17 -3
-17 -22z"/>
<path class="castle-feature" d="M14362 7249 c-13 -5 -22 -15 -20 -21 6 -16 70 -17 75 -1 6 18 -29 32
-55 22z"/>
<path class="castle-feature" d="M14440 7240 c0 -15 7 -20 28 -20 35 0 45 9 31 27 -18 21 -59 17 -59
-7z"/>
<path class="castle-feature" d="M15390 7156 c0 -62 2 -67 26 -76 50 -19 58 16 21 89 -35 68 -47 64
-47 -13z"/>
<path class="castle-feature" d="M14436 7175 c-3 -9 0 -15 9 -15 8 0 15 7 15 15 0 8 -4 15 -9 15 -5 0
-11 -7 -15 -15z"/>
<path class="castle-feature" d="M15382 6991 c-17 -10 -26 -81 -14 -100 15 -22 32 -3 33 37 1 37 1 37
11 10 12 -35 15 -34 56 2 48 44 43 60 -20 60 -29 0 -59 -4 -66 -9z"/>
<path class="castle-feature" d="M18103 6949 c-7 -7 -13 -28 -13 -46 l0 -33 -42 22 c-24 13 -55 32
-70 41 -21 15 -31 16 -47 7 -31 -16 -35 -48 -26 -209 4 -80 7 -177 6 -216 -1
-44 4 -87 14 -115 9 -25 18 -75 20 -111 1 -37 7 -75 13 -84 9 -16 11 -16 27 9
16 24 17 43 12 161 -6 127 -6 133 12 128 26 -7 29 -53 18 -268 -12 -257 1
-325 62 -325 41 0 54 22 56 98 3 84 2 82 19 82 18 0 23 -19 25 -84 2 -58 6
-67 27 -59 12 4 15 22 12 92 -1 47 1 92 6 99 4 8 5 184 1 393 -7 329 -10 383
-24 400 -20 25 -90 36 -108 18z"/>
<path class="castle-feature" d="M14805 6880 c-4 -6 17 -10 54 -10 34 0 61 4 61 10 0 6 -24 10 -54 10
-30 0 -58 -4 -61 -10z"/>
<path class="castle-feature" d="M14950 6880 c0 -5 25 -10 55 -10 30 0 55 5 55 10 0 6 -25 10 -55 10
-30 0 -55 -4 -55 -10z"/>
<path class="castle-feature" d="M15077 6883 c-17 -16 -3 -23 52 -23 l59 0 5 -57 c3 -32 6 -98 7 -148
1 -49 3 -101 5 -115 2 -14 4 -29 4 -33 1 -5 6 -5 12 -2 10 7 8 76 -7 303 l-6
82 -62 0 c-35 0 -66 -3 -69 -7z"/>
<path class="castle-feature" d="M14490 6817 l-35 -12 2 -125 c2 -69 4 -159 5 -200 2 -41 1 -113 -2
-160 -5 -82 -4 -85 17 -88 34 -5 46 52 42 192 -4 104 -2 117 13 122 30 9 40
41 32 100 -4 35 -2 59 5 68 18 21 11 95 -10 107 -22 11 -25 11 -69 -4z"/>
<path class="castle-feature" d="M14805 6820 c-4 -6 10 -10 34 -10 23 0 41 5 41 10 0 6 -15 10 -34 10
-19 0 -38 -4 -41 -10z"/>
<path class="castle-feature" d="M15050 6808 c-12 -10 -37 -18 -56 -18 -19 0 -34 -4 -34 -10 0 -13
114 -13 138 -1 9 5 25 12 35 15 27 8 12 23 -27 28 -23 2 -41 -2 -56 -14z"/>
<path class="castle-feature" d="M14816 6781 c5 -4 32 -5 59 -1 l50 7 -59 2 c-35 0 -56 -3 -50 -8z"/>
<path class="castle-feature" d="M18573 6333 c-11 -28 11 -33 133 -33 l124 0 0 -60 c0 -74 8 -79 127
-85 49 -3 123 -7 166 -10 l77 -5 0 106 0 107 -77 -6 c-169 -14 -333 -18 -437
-10 -83 7 -109 6 -113 -4z"/>
<path class="castle-feature" d="M12891 6324 l-24 -17 6 -351 c7 -397 11 -431 46 -431 19 0 26 7 32
29 4 15 15 36 24 46 11 12 15 32 13 61 -2 37 -7 45 -25 47 -17 3 -23 10 -23
30 0 15 -3 51 -6 79 -6 50 -5 53 20 62 l26 11 0 205 c0 192 -1 206 -20 225
-24 24 -38 25 -69 4z"/>
<path class="castle-feature" d="M12746 6193 c-4 -5 -14 -24 -22 -43 -12 -29 -13 -53 -3 -153 l11
-119 -26 -27 c-29 -30 -46 -78 -46 -129 0 -25 -5 -35 -25 -42 -24 -9 -25 -14
-25 -87 0 -65 -3 -80 -18 -90 -16 -9 -19 -26 -20 -106 -1 -73 2 -98 13 -107 8
-7 15 -18 15 -25 0 -21 28 -38 54 -31 32 8 56 32 56 57 0 11 9 40 20 65 17 37
25 44 49 44 48 0 56 20 44 113 -7 65 -7 86 4 103 19 31 13 182 -9 198 -12 9
-17 45 -23 191 -7 167 -12 194 -36 195 -3 0 -9 -3 -13 -7z"/>
<path class="castle-feature" d="M17146 5888 c9 -27 9 -136 -1 -231 -7 -64 -9 -67 -38 -75 -40 -10
-45 -32 -46 -171 0 -126 11 -213 29 -219 7 -3 21 -13 31 -23 24 -24 24 -24 62
5 28 21 43 24 112 25 93 0 129 11 146 43 16 32 15 31 37 19 16 -9 24 -7 36 5
13 13 15 31 11 92 -5 84 8 112 50 112 13 0 25 7 29 15 3 8 15 15 27 15 21 0
21 2 14 88 -8 99 -9 102 -36 102 -10 0 -19 7 -19 15 0 10 10 15 29 15 42 0 61
10 61 31 0 12 -10 21 -26 25 -27 7 -149 -19 -169 -36 -15 -13 -24 -55 -18 -81
6 -21 53 -27 53 -6 1 28 18 -21 21 -59 4 -49 -20 -91 -56 -100 -13 -3 -26 -13
-29 -22 -14 -51 -27 -135 -22 -148 4 -11 0 -13 -19 -8 -19 5 -31 -1 -53 -23
-18 -20 -45 -34 -82 -43 -30 -7 -68 -16 -84 -21 -16 -5 -34 -9 -41 -9 -19 0
-35 95 -35 211 0 107 1 110 24 119 30 11 46 39 46 79 0 20 7 35 20 43 17 11
20 24 20 76 0 35 -5 73 -11 84 -9 17 -8 24 6 34 31 23 11 44 -41 44 -44 0 -46
-1 -38 -22z"/>
<path class="castle-feature" d="M14781 5711 c-9 -6 -15 -36 -18 -85 -4 -63 -2 -81 13 -104 37 -54 44
-84 44 -192 0 -82 -5 -121 -20 -166 -30 -85 -38 -206 -16 -239 10 -16 26 -25
42 -25 14 0 45 -5 69 -11 52 -13 91 -6 104 19 17 31 32 256 35 504 l3 239 -24
19 c-13 10 -38 22 -55 26 -32 6 -56 -10 -71 -49 -8 -17 -27 12 -20 30 13 32
-49 57 -86 34z"/>
<path class="castle-feature" d="M16828 5691 c-62 -13 -89 -49 -50 -70 24 -13 161 -33 174 -25 5 4 7
19 4 35 -3 16 -1 29 4 29 6 0 10 9 10 20 0 18 -6 20 -52 19 -29 -1 -70 -5 -90
-8z"/>
<path class="castle-feature" d="M16667 5664 c-4 -4 -7 -14 -7 -23 0 -11 3 -12 11 -4 6 6 10 16 7 23
-2 6 -7 8 -11 4z"/>
<path class="castle-feature" d="M14373 5641 c-3 -11 -17 -21 -34 -25 -17 -3 -29 -12 -29 -21 0 -12
13 -15 60 -15 69 0 83 14 56 55 -19 30 -46 33 -53 6z"/>
<path class="castle-feature" d="M16700 5644 c0 -8 5 -12 10 -9 6 3 10 10 10 16 0 5 -4 9 -10 9 -5 0
-10 -7 -10 -16z"/>
<path class="castle-feature" d="M13096 5548 c4 -40 9 -103 13 -140 6 -70 27 -92 25 -28 -2 81 -13
206 -19 223 -16 40 -25 13 -19 -55z"/>
<path class="castle-feature" d="M11895 5600 c-22 -5 -58 -6 -81 -3 -47 6 -74 -13 -74 -53 0 -19 -5
-24 -24 -24 -44 0 -48 -17 -39 -177 4 -81 6 -193 4 -248 -8 -219 -7 -242 13
-264 11 -12 24 -31 30 -43 25 -50 188 -40 216 13 6 11 6 92 0 221 -5 112 -11
274 -14 361 -5 149 -4 157 14 157 10 0 31 -5 45 -12 36 -16 80 4 66 31 -8 14
-99 55 -113 50 -2 -1 -21 -5 -43 -9z"/>
<path class="castle-feature" d="M12334 5586 c-4 -10 -18 -16 -39 -16 -19 0 -36 -4 -39 -8 -3 -5 -42
-9 -88 -11 -78 -2 -97 -5 -87 -15 10 -10 170 -7 227 5 54 10 63 15 60 32 -4
26 -26 34 -34 13z"/>
<path class="castle-feature" d="M14275 5562 c-11 -2 -24 -8 -29 -13 -5 -5 -9 -69 -8 -144 2 -129 1
-135 -18 -135 -19 0 -20 7 -20 103 0 104 -11 151 -27 112 -4 -11 -8 -84 -8
-162 l0 -143 -125 -1 c-120 -1 -123 -1 -80 -14 l45 -13 -58 -1 c-41 -1 -57 -5
-55 -13 5 -15 47 -24 163 -35 104 -9 135 -7 135 11 0 8 7 19 15 26 9 7 14 24
13 39 -3 26 -3 26 72 26 70 0 75 1 78 23 2 12 8 22 13 22 12 0 10 218 -2 226
-5 3 -9 16 -9 28 0 36 -52 67 -95 58z"/>
<path class="castle-feature" d="M11940 5475 c0 -20 4 -26 18 -23 9 2 17 12 17 23 0 11 -8 21 -17 23
-14 3 -18 -3 -18 -23z"/>
<path class="castle-feature" d="M12800 5341 c0 -5 7 -14 15 -21 13 -10 15 -9 15 9 0 12 -6 21 -15 21
-8 0 -15 -4 -15 -9z"/>
<path class="castle-feature" d="M13285 5277 c-51 -16 -48 -30 10 -41 35 -6 49 -14 55 -31 5 -13 14
-26 20 -30 15 -9 40 13 40 35 0 10 7 21 16 24 9 3 14 15 12 28 -3 20 -9 23
-58 25 -30 1 -73 -4 -95 -10z"/>
<path class="castle-feature" d="M11521 5182 c-11 -21 -18 -139 -8 -149 4 -3 28 -2 55 3 l47 9 -3 57
c-3 53 -2 57 20 60 13 2 23 10 23 18 0 11 -15 16 -62 18 -52 2 -63 0 -72 -16z"/>
<path class="castle-feature" d="M12605 5191 l-40 -7 33 -8 c35 -8 44 -26 12 -26 -11 0 -20 -4 -20
-10 0 -5 4 -10 10 -10 5 0 7 -7 4 -15 -4 -9 1 -18 11 -21 9 -4 14 -13 10 -22
-3 -8 0 -21 6 -28 6 -8 8 -25 5 -39 -5 -20 -3 -25 14 -25 22 0 22 -1 24 122 1
65 -3 89 -12 93 -8 3 -14 4 -15 4 -1 -1 -20 -5 -42 -8z"/>
<path class="castle-feature" d="M13201 5113 c-5 -10 -7 -119 -5 -247 2 -198 5 -231 20 -247 9 -11 27
-19 39 -19 54 0 78 79 76 260 -1 141 -13 225 -38 252 -21 24 -79 24 -92 1z"/>
<path class="castle-feature" d="M11504 4999 c-3 -6 -2 -14 2 -19 15 -13 88 -20 104 -9 13 8 12 11 -4
24 -23 17 -92 20 -102 4z"/>
<path class="castle-feature" d="M13611 4968 c-5 -13 -12 -31 -15 -40 -7 -25 -29 -22 -77 8 -47 29
-65 26 -80 -13 -23 -61 -10 -268 19 -290 24 -19 58 -16 87 10 25 21 27 28 28
117 0 52 -1 102 -4 110 -3 12 31 15 231 17 270 3 412 13 417 29 6 18 -45 23
-122 14 -38 -5 -111 -12 -162 -15 -86 -6 -92 -5 -98 14 -8 27 -25 27 -32 0 -5
-18 -11 -20 -42 -15 -20 3 -46 6 -58 6 -14 0 -23 6 -23 15 0 8 -9 15 -20 15
-11 0 -20 6 -20 14 0 26 -20 28 -29 4z"/>
<path class="castle-feature" d="M11403 4933 c-50 -33 -53 -38 -46 -91 8 -63 50 -67 79 -8 9 17 24 38
35 46 10 8 19 29 21 45 3 26 -1 30 -22 33 -14 1 -43 -10 -67 -25z"/>
<path class="castle-feature" d="M12350 4786 c-22 -27 49 -64 74 -39 4 4 17 8 29 8 15 0 22 6 22 20 0
17 -8 20 -57 22 -37 1 -60 -2 -68 -11z"/>
<path class="castle-feature" d="M12165 4770 c-16 -3 -30 -11 -30 -19 0 -10 21 -14 87 -15 88 -1 105
6 88 34 -7 11 -13 12 -32 2 -15 -8 -33 -9 -53 -4 -16 4 -43 6 -60 2z"/>
<path class="castle-feature" d="M12538 4764 c-32 -17 -36 -32 -10 -41 9 -4 33 -16 52 -28 42 -26 122
-39 138 -23 16 16 15 24 -5 44 -10 10 -18 27 -18 38 0 19 -7 21 -65 23 -41 1
-75 -4 -92 -13z"/>
<path class="castle-feature" d="M12779 4733 c-15 -41 -8 -58 26 -58 24 0 31 5 33 25 2 14 8 30 13 36
12 15 1 24 -33 24 -22 0 -31 -6 -39 -27z"/>
<path class="castle-feature" d="M12871 4714 c-6 -20 -8 -41 -5 -46 10 -16 35 -8 44 16 5 13 15 26 22
29 16 6 2 22 -29 31 -19 6 -23 2 -32 -30z"/>
<path class="castle-feature" d="M11527 4706 c-15 -16 -32 -171 -21 -199 3 -9 14 -19 24 -22 23 -7 70
11 70 27 1 34 19 41 119 48 56 4 108 13 116 20 22 18 20 102 -3 123 -25 23
-282 25 -305 3z"/>
<path class="castle-feature" d="M12320 4685 c0 -39 20 -47 55 -22 17 13 17 15 -3 35 -33 33 -52 28
-52 -13z"/>
<path class="castle-feature" d="M11930 4660 c0 -11 5 -20 10 -20 6 0 10 -5 10 -10 0 -7 -6 -7 -19 0
-26 13 -51 -11 -51 -51 0 -31 19 -46 45 -35 8 3 17 4 19 3 1 -1 10 4 18 11 10
8 14 26 13 52 -1 22 2 40 6 40 5 0 9 7 9 15 0 10 -10 15 -30 15 -23 0 -30 -4
-30 -20z"/>
<path class="castle-feature" d="M12102 4668 c-7 -7 -12 -20 -12 -30 0 -22 -16 -24 -24 -3 -15 41 -60
-3 -54 -53 4 -35 46 -45 55 -13 4 16 13 21 40 21 34 0 34 0 31 42 -3 44 -16
56 -36 36z"/>
<path class="castle-feature" d="M12234 4625 c-9 -23 9 -37 42 -33 21 2 29 8 29 23 0 26 -62 35 -71
10z"/>
<path class="castle-feature" d="M11515 4415 c-3 -8 -7 -21 -9 -28 -3 -9 -24 -14 -64 -15 -53 -1 -62
1 -67 18 -9 28 -34 25 -45 -5 -15 -39 -3 -58 33 -51 17 3 59 3 94 0 51 -6 63
-10 63 -24 0 -10 7 -20 15 -24 17 -6 45 19 45 40 0 11 8 14 33 10 17 -3 69 -8
115 -11 78 -6 82 -5 82 14 0 17 -6 21 -31 21 -22 0 -32 5 -36 20 -3 13 -17 22
-38 26 -38 7 -55 0 -55 -22 0 -8 -7 -14 -15 -14 -10 0 -15 10 -15 30 0 23 -5
30 -19 30 -11 0 -23 -5 -27 -11 -4 -8 -9 -8 -17 0 -16 16 -37 14 -42 -4z"/>


<path class ="castle-shadow" d="M15210 8938 c-1 -2 -2 -47 -5 -101 -3 -93 -2 -100 27 -154 16 -31 41
-100 55 -152 23 -88 25 -123 33 -426 5 -181 14 -499 20 -705 6 -206 8 -389 5
-407 -9 -47 -58 -85 -109 -83 -74 3 -84 1 -53 -13 33 -14 30 0 42 -251 6 -123
5 -148 -6 -144 -16 5 -26 95 -28 249 -1 109 -1 109 -77 109 -46 0 -59 15 -23
29 20 7 20 8 -11 21 -54 22 -66 67 -80 285 -15 256 -27 366 -40 379 -7 7 -10
-4 -10 -36 0 -45 -1 -47 -55 -77 -44 -25 -55 -36 -55 -57 0 -38 -16 -20 -24
25 -12 79 -48 62 -56 -27 -6 -66 -26 -79 -66 -41 -19 18 -24 33 -25 73 -1 92
-12 140 -33 144 -19 4 -105 -35 -118 -53 -4 -5 -8 -38 -8 -73 0 -58 -2 -63
-26 -72 -14 -6 -54 -10 -90 -10 -39 0 -77 -6 -94 -15 l-30 -16 -1 48 c-4 177
-7 186 -73 218 -52 27 -55 14 -44 -195 5 -102 11 -209 12 -238 1 -28 7 -57 14
-64 17 -17 34 36 27 86 -8 56 6 100 33 104 28 4 36 -41 27 -156 -5 -72 -10
-90 -28 -104 -19 -15 -23 -30 -29 -125 -5 -90 -4 -111 9 -125 14 -16 15 -44 9
-220 -4 -115 -12 -208 -18 -215 -6 -7 -21 -13 -34 -13 -22 0 -24 -4 -24 -55 0
-42 -5 -60 -20 -75 -14 -14 -20 -33 -20 -58 1 -20 -3 -134 -10 -252 -8 -164
-8 -240 1 -320 19 -166 10 -337 -19 -347 -9 -4 -18 -1 -20 5 -2 7 -24 12 -53
12 -27 0 -49 5 -49 10 0 13 43 30 76 30 13 0 24 5 24 10 0 6 -15 10 -32 10
-18 0 -43 3 -55 6 -41 11 -24 24 32 24 41 0 55 4 55 14 0 9 -12 16 -27 18 -16
2 -28 8 -28 13 0 6 12 11 28 13 30 4 38 22 9 22 -25 0 -100 50 -141 94 -19 20
-40 36 -46 36 -6 0 -27 11 -46 25 l-37 24 -6 -38 c-6 -40 -20 -51 -61 -51 -17
0 -24 -7 -27 -28 -6 -43 0 -52 37 -52 19 0 36 -4 40 -9 7 -13 -27 -31 -59 -31
-17 0 -26 -5 -26 -16 0 -10 6 -14 15 -10 19 7 37 -27 33 -62 -2 -19 -10 -28
-25 -30 -12 -2 -27 -10 -33 -18 -18 -21 -67 -18 -80 6 -6 12 -9 68 -8 137 l3
117 33 10 c38 11 42 32 7 48 -22 10 -25 17 -25 64 0 47 -4 56 -40 94 l-39 41
2 308 2 309 -36 -1 c-26 -2 -45 -11 -69 -35 -23 -24 -40 -32 -59 -30 -22 3
-26 8 -26 36 0 24 -4 32 -18 32 -9 0 -22 -11 -26 -24 -6 -15 -20 -25 -41 -30
-67 -13 -66 -14 -59 71 3 42 4 96 1 119 -4 36 -8 43 -30 47 -20 4 -35 -5 -75
-44 -34 -34 -60 -50 -86 -54 -20 -4 -47 -12 -60 -18 -20 -10 -22 -17 -18 -53
4 -40 2 -43 -41 -74 -42 -29 -44 -33 -38 -68 7 -49 -4 -67 -40 -58 -22 6 -25
5 -17 -6 12 -15 27 -203 24 -300 -2 -59 0 -68 19 -78 20 -11 21 -16 15 -113
-3 -56 -5 -143 -5 -193 1 -100 -10 -124 -56 -124 -20 0 -29 -9 -44 -42 -11
-24 -20 -53 -20 -65 0 -27 -35 -53 -71 -53 -22 0 -32 9 -53 50 -26 49 -28 91
-11 203 4 23 0 29 -23 38 -15 6 -51 28 -79 50 -66 49 -80 55 -174 63 -64 5
-80 4 -93 -9 -9 -9 -16 -23 -16 -30 0 -8 -8 -19 -17 -25 -14 -8 3 -10 67 -5
57 5 88 11 93 21 15 26 39 17 35 -13 -3 -26 -7 -28 -53 -31 -27 -2 -54 -7 -60
-12 -12 -9 -271 -7 -281 3 -4 4 -18 7 -30 7 l-23 0 5 -137 c3 -76 10 -226 16
-333 13 -247 13 -258 -7 -280 -22 -25 -92 -42 -144 -35 -54 6 -53 6 -91 63
l-31 47 7 150 c11 210 8 247 -19 211 -11 -14 -19 -16 -56 -7 -45 10 -70 6 -83
-13 -12 -18 -9 -31 4 -18 7 7 39 12 75 12 56 0 63 -2 63 -20 0 -13 -7 -20 -20
-20 -22 0 -24 -9 -20 -77 1 -37 -1 -43 -23 -48 -13 -4 -39 -5 -58 -3 -34 3
-34 3 -33 53 0 28 -1 40 -3 28 -3 -16 -11 -23 -27 -23 -32 0 -46 -19 -46 -61
0 -55 8 -69 41 -69 24 0 29 -4 29 -24 0 -35 -10 -56 -26 -56 -8 0 -22 -16 -31
-37 -35 -72 -78 -71 -88 2 -6 37 -4 50 11 67 l19 21 -32 -18 c-17 -10 -54 -39
-81 -64 -46 -42 -51 -51 -57 -105 -8 -58 -10 -62 -109 -169 -112 -121 -209
-251 -204 -276 10 -49 126 -78 248 -62 36 5 118 10 183 11 65 0 125 4 132 7 8
3 70 -3 138 -12 117 -17 125 -17 160 0 36 17 46 26 104 94 l29 33 74 -10 c41
-6 151 -14 245 -17 93 -4 172 -8 175 -10 4 -2 63 -9 132 -15 138 -12 200 -4
249 30 15 11 42 20 59 20 21 0 56 14 94 39 34 21 95 55 135 76 66 33 78 36
112 27 27 -7 62 -6 116 3 43 7 110 16 148 20 196 18 233 32 298 120 l32 43 90
7 c50 4 167 8 260 10 1037 14 1031 14 1061 74 6 12 54 50 105 83 52 34 112 76
134 93 26 21 56 35 86 39 43 6 72 26 93 64 4 7 11 52 16 100 5 57 17 107 34
145 l26 57 53 0 c109 0 522 -41 570 -57 40 -13 63 -14 117 -7 56 8 76 6 116
-8 27 -9 58 -18 69 -18 11 0 29 -15 40 -33 28 -43 68 -57 106 -35 l29 17 16
-37 c9 -20 22 -94 29 -163 14 -134 31 -188 72 -231 20 -21 24 -33 19 -53 -5
-18 -1 -36 10 -52 15 -24 20 -25 82 -20 57 4 73 2 112 -19 52 -27 135 -36 212
-22 37 7 76 6 126 -2 53 -8 81 -9 105 -1 41 14 84 58 89 91 2 20 13 27 54 40
67 20 211 114 342 223 72 61 165 132 240 185 87 60 165 130 254 229 34 38 70
63 135 95 80 39 97 44 188 49 114 8 311 43 331 60 11 9 14 64 14 269 0 236 -1
258 -17 265 -10 4 -74 9 -143 12 -210 7 -226 14 -214 90 5 33 3 48 -7 54 -8 5
-66 9 -130 9 -92 0 -118 3 -122 14 -12 32 17 37 149 26 91 -7 174 -7 288 1 89
6 169 11 179 11 16 -1 17 18 17 258 l0 259 -52 3 -53 3 0 55 0 55 -42 3 -42 3
-3 82 -3 82 -120 -3 c-66 -2 -141 -1 -166 3 l-47 7 -6 49 c-4 27 -11 49 -16
49 -5 0 -10 28 -12 62 -3 60 -4 62 -37 73 -39 13 -81 57 -81 85 0 25 -17 34
-28 14 -6 -10 -19 -14 -43 -12 -31 3 -34 6 -42 46 -4 23 -12 42 -16 42 -17 0
-20 -45 -9 -117 9 -64 13 -73 29 -68 10 3 29 0 41 -7 13 -7 29 -11 36 -9 34 6
41 -18 39 -132 l-2 -112 -27 -3 c-44 -5 -79 65 -42 86 11 6 14 22 12 63 -3 53
-3 54 -17 27 -14 -28 -51 -39 -51 -16 0 6 -3 8 -7 4 -5 -4 -8 -73 -8 -153 0
-130 -2 -147 -18 -157 -15 -9 -21 -7 -33 9 -12 16 -13 39 -8 116 4 52 3 147
-1 210 l-7 114 -69 0 c-62 0 -72 3 -88 23 -12 16 -32 25 -66 30 l-49 7 0 165
-1 164 -33 7 c-19 4 -47 19 -63 35 -25 24 -29 35 -29 83 0 38 -6 66 -20 88
-18 31 -22 32 -67 28 -26 -2 -51 -4 -54 -5 -3 0 -6 -45 -6 -99 -1 -69 -6 -108
-17 -129 -16 -30 -17 -31 -93 -29 l-78 1 -75 77 c-60 61 -83 79 -114 84 l-39
8 6 161 c8 242 -9 332 -53 279 -16 -20 -24 -22 -64 -17 -32 5 -50 13 -57 26
-8 15 -18 19 -40 16 -21 -3 -35 2 -51 19 -26 28 -57 29 -90 4 l-25 -20 -51 48
c-54 51 -62 71 -65 171 -2 44 -3 45 -38 48 l-37 3 2 -283 c0 -156 -1 -361 -4
-455 -2 -104 0 -176 5 -182 6 -5 27 -12 47 -16 l37 -7 -4 168 c-3 110 0 173 7
181 15 18 45 16 52 -3 3 -9 6 -111 6 -227 0 -152 5 -240 17 -312 13 -79 17
-174 18 -460 1 -333 9 -495 35 -700 12 -94 31 -541 24 -559 -11 -28 -135 -47
-339 -51 -110 -3 -219 -2 -243 1 -50 7 -50 7 -60 156 l-7 106 182 4 c160 3
207 8 192 22 -2 2 -87 0 -189 -4 -102 -5 -187 -6 -189 -4 -3 2 -3 138 0 302 7
532 0 895 -21 992 -36 167 -36 187 1 551 6 58 8 133 4 165 l-6 59 -60 -3 -59
-4 2 29 c5 71 -2 95 -35 127 -18 17 -38 43 -45 59 -8 19 -19 27 -37 27 -22 0
-25 4 -25 35 0 39 -30 73 -70 81 -24 5 -25 9 -25 67 0 58 -2 62 -29 75 -28 14
-101 21 -255 25 -77 2 -85 0 -102 -22 -18 -23 -21 -23 -59 -11 -22 7 -43 10
-47 7 -3 -4 -12 -2 -19 4 -7 6 -33 17 -56 24 l-43 12 -11 94 c-18 147 -17 145
-81 158 -53 10 -93 14 -93 9z m219 -549 c7 -20 7 -37 1 -48 -5 -10 -7 -26 -5
-37 3 -10 -4 -29 -15 -42 l-19 -23 -21 21 c-21 21 -27 50 -10 50 16 0 11 37
-6 44 -13 5 -14 9 -4 21 7 8 21 15 31 15 11 0 19 7 19 15 0 26 18 16 29 -16z
m86 -336 c-2 -38 -7 -137 -10 -222 -6 -153 -13 -198 -25 -151 -9 33 -5 414 4
428 4 7 14 12 22 12 11 0 13 -13 9 -67z m-107 -126 c2 -18 -1 -27 -11 -27 -15
0 -39 44 -29 54 14 15 37 -1 40 -27z m27 -58 c4 -5 0 -18 -8 -27 -12 -14 -15
-46 -13 -165 1 -81 -1 -153 -5 -158 -10 -17 2 -59 17 -59 7 0 18 -9 25 -21 9
-18 7 -26 -17 -50 -15 -16 -33 -29 -40 -29 -14 0 -21 49 -14 110 3 25 1 68 -4
95 -4 28 -9 62 -10 77 0 14 -4 30 -8 34 -12 11 -9 42 4 50 6 4 17 -1 25 -12
12 -16 13 -15 7 16 -4 19 -14 43 -22 53 -13 14 -14 22 -5 37 10 14 9 19 -2 24
-8 3 -15 12 -15 21 0 18 75 22 85 4z m2087 -214 c8 -150 -6 -265 -33 -265 -26
0 -33 47 -30 186 3 119 -2 141 -27 125 -10 -6 -10 -23 -2 -78 15 -95 9 -203
-12 -217 -29 -18 -51 11 -44 57 7 44 -4 247 -13 247 -3 0 -6 -55 -6 -122 0
-109 -2 -123 -17 -126 -27 -5 -35 30 -39 173 l-4 130 64 2 c38 1 71 -2 79 -9
11 -10 16 -8 24 6 6 10 19 16 31 14 21 -3 22 -10 29 -123z m-97 -341 c0 -19
-6 -30 -17 -32 -21 -4 -34 34 -17 54 18 22 34 11 34 -22z m-1965 -55 c0 -5 -7
-9 -15 -9 -15 0 -20 12 -9 23 8 8 24 -1 24 -14z m-1050 -15 c11 -12 11 -18 -3
-31 -21 -21 -67 -10 -67 16 0 31 49 42 70 15z m98 -6 c5 -24 -44 -36 -65 -15
-22 21 -7 39 30 35 21 -2 33 -9 35 -20z m930 -64 c28 -56 29 -104 4 -104 -35
0 -50 23 -55 87 -3 34 -3 64 0 67 11 11 31 -8 51 -50z m-975 10 c9 -10 -4 -34
-19 -34 -8 0 -14 6 -14 13 0 22 19 35 33 21z m1037 -189 c11 -13 7 -21 -23
-50 -44 -43 -66 -45 -68 -7 -1 20 -3 17 -8 -13 -9 -57 -35 -55 -39 3 -4 55 9
70 61 75 23 2 47 4 53 5 6 1 17 -5 24 -13z m2710 -55 c11 -11 20 -26 20 -32 0
-7 3 -130 7 -273 9 -382 5 -658 -11 -683 -4 -6 -13 -12 -21 -12 -11 0 -15 18
-17 73 -2 56 -6 72 -18 72 -11 0 -17 -19 -22 -80 -6 -58 -12 -83 -25 -93 -24
-17 -37 -10 -41 21 -4 31 -22 37 -22 7 0 -35 -19 -22 -30 20 -7 26 -10 131 -8
288 3 234 2 247 -16 250 -17 4 -18 -1 -12 -55 4 -32 9 -70 12 -85 5 -23 1 -28
-22 -34 -20 -5 -31 -2 -41 11 -18 26 -16 35 6 35 11 0 23 5 26 10 4 6 -5 10
-20 10 -35 0 -59 56 -51 114 8 53 8 42 0 241 -6 153 -5 173 10 188 19 19 51
23 61 7 6 -9 98 -60 109 -60 3 0 4 13 4 29 -1 42 9 51 58 51 31 0 50 -6 64
-20z m-3280 -60 c0 -5 -8 -10 -19 -10 -10 0 -39 -3 -65 -6 -38 -6 -46 -4 -46
10 0 13 11 16 65 16 37 0 65 -4 65 -10z m130 0 c0 -5 -18 -11 -40 -12 -22 -1
-47 -2 -57 -2 -9 -1 -18 5 -20 12 -4 9 12 12 56 12 34 0 61 -4 61 -10z m-493
-62 c20 -25 24 -84 8 -98 -11 -9 -13 -25 -9 -65 8 -67 0 -102 -26 -110 -19 -6
-20 -15 -20 -135 0 -131 -7 -173 -33 -183 -32 -12 -35 6 -27 163 5 115 4 160
-5 173 -15 22 -11 223 5 242 20 24 92 32 107 13z m313 2 c0 -5 -18 -10 -40
-10 -22 0 -40 5 -40 10 0 6 18 10 40 10 22 0 40 -4 40 -10z m258 -6 c22 -6 13
-24 -13 -24 -14 0 -25 -4 -25 -10 0 -6 -32 -10 -75 -10 -85 0 -100 15 -26 25
28 4 55 13 62 21 10 13 32 12 77 -2z m-218 -29 c0 -13 -110 -19 -110 -6 0 10
47 19 88 17 12 -1 23 -5 22 -11z m-1958 -462 c16 -15 18 -35 18 -229 0 -204
-1 -213 -20 -219 -18 -6 -20 -14 -18 -80 1 -66 4 -74 25 -84 17 -8 23 -19 24
-43 2 -49 -1 -62 -17 -74 -8 -6 -14 -18 -14 -27 0 -46 -49 -67 -68 -29 -14 26
-25 268 -24 536 0 219 2 241 18 253 24 18 54 16 76 -4z m5043 -55 c-8 -41 -26
-78 -37 -78 -10 0 -28 44 -28 71 0 11 10 24 23 29 41 17 49 13 42 -22z m-768
-374 c4 -10 -1 -20 -11 -26 -12 -7 -14 -13 -6 -28 5 -10 10 -50 10 -89 0 -60
-3 -72 -20 -81 -15 -8 -20 -21 -20 -50 0 -40 -16 -64 -50 -75 -17 -5 -20 -15
-20 -63 0 -78 19 -245 28 -253 4 -4 46 3 93 15 63 15 94 29 114 49 15 15 38
27 50 27 19 0 23 8 34 80 13 80 21 95 54 101 32 7 51 50 43 102 -7 43 -9 46
-27 34 -17 -10 -22 -9 -35 7 -16 23 -18 45 -5 79 12 30 99 60 163 55 38 -3 43
-6 43 -28 0 -21 -5 -25 -35 -28 -35 -3 -68 -22 -39 -22 7 0 20 -4 27 -8 13 -9
34 -155 25 -178 -6 -16 -59 -44 -83 -44 -33 0 -43 -27 -42 -115 1 -64 -2 -86
-14 -96 -12 -10 -20 -10 -35 -1 -16 10 -21 8 -33 -16 -18 -36 -69 -51 -151
-47 -58 4 -125 -17 -125 -37 0 -19 -39 -5 -73 26 -27 24 -37 42 -37 63 0 233
2 300 5 313 3 9 20 20 38 25 30 10 32 13 38 70 4 33 10 85 14 116 6 44 4 64
-9 89 -8 18 -13 36 -10 41 3 5 25 9 50 9 32 0 46 -5 51 -16z m-2369 -211 c4
-39 15 -42 30 -8 13 29 45 33 97 11 26 -11 36 -23 44 -52 6 -20 7 -42 4 -47
-3 -6 -5 -87 -5 -181 1 -94 -5 -242 -12 -329 -18 -200 -19 -202 -126 -192
-104 10 -123 24 -32 25 41 0 72 4 72 10 0 6 -35 10 -85 10 -50 0 -85 4 -85 10
0 6 30 10 70 10 40 0 70 4 70 10 0 6 -31 10 -74 10 l-74 0 5 63 c4 34 17 93
30 131 39 116 29 300 -19 348 -20 20 -22 36 -18 123 3 75 12 87 64 83 38 -3
41 -5 44 -35z m2107 7 c4 -6 1 -17 -5 -25 -7 -8 -10 -22 -6 -30 3 -8 3 -22 -1
-30 -12 -32 -213 4 -213 37 0 7 15 23 33 36 26 18 45 22 109 22 43 0 80 -5 83
-10z m-295 -40 c0 -11 -4 -20 -10 -20 -5 0 -10 9 -10 20 0 11 5 20 10 20 6 0
10 -9 10 -20z m40 1 c0 -23 -16 -36 -25 -21 -9 14 1 40 15 40 5 0 10 -9 10
-19z m-2286 -29 c12 -43 -2 -53 -69 -50 -42 3 -50 6 -50 23 0 13 8 21 23 23
12 2 27 12 33 23 16 31 51 21 63 -19z m-1320 -10 c4 -10 10 -61 15 -113 6 -52
13 -109 17 -126 5 -25 3 -34 -10 -39 -9 -4 -19 -5 -21 -2 -14 14 -30 298 -17
298 6 0 13 -8 16 -18z m1226 -57 c21 -11 30 -23 30 -40 0 -13 4 -26 8 -29 5
-3 12 -51 15 -106 6 -90 4 -105 -14 -140 l-21 -40 -75 0 c-67 0 -74 -2 -69
-18 8 -23 -19 -78 -41 -86 -16 -6 -187 9 -252 22 -46 10 -50 27 -9 37 28 7 30
9 11 12 -13 3 -23 8 -23 13 0 4 59 6 130 3 106 -5 130 -3 131 8 0 8 0 64 -1
126 -1 130 6 183 26 183 11 0 14 -19 15 -82 1 -135 2 -142 21 -146 16 -3 18 7
13 137 -4 125 -2 142 13 150 25 15 59 13 92 -4z m-2365 -80 c0 -35 -20 -43
-35 -15 -9 16 -8 25 1 36 18 21 34 11 34 -21z m855 -146 c0 -24 -23 -21 -28 4
-2 10 3 17 12 17 10 0 16 -9 16 -21z m608 -67 c2 -13 -3 -29 -11 -35 -9 -7
-17 -21 -19 -32 -5 -29 -52 -28 -56 1 -3 21 -54 44 -96 44 -11 0 -16 6 -14 17
4 22 44 31 128 30 60 -2 65 -4 68 -25z m-762 -174 c3 -90 1 -108 -11 -108 -26
0 -30 4 -27 33 2 16 -2 27 -9 27 -7 0 -9 10 -7 25 4 17 1 25 -8 25 -8 0 -14 9
-14 20 0 11 -4 20 -10 20 -19 0 -10 18 13 25 l22 7 -24 7 c-14 3 -26 12 -29
19 -3 10 9 12 49 10 l52 -3 3 -107z m613 33 c31 -31 41 -88 44 -248 3 -214
-16 -273 -86 -273 -49 0 -52 15 -54 271 -3 235 -2 238 19 254 30 20 54 19 77
-4z m-1680 -120 c8 -5 11 -16 7 -26 -5 -14 -14 -16 -59 -10 -56 8 -73 17 -63
34 8 13 95 14 115 2z m2031 -26 c0 -8 6 -15 14 -15 7 0 20 -9 27 -19 9 -12 32
-21 65 -25 46 -6 52 -4 57 14 7 26 27 26 34 -1 5 -19 10 -20 61 -14 73 9 193
18 262 19 43 1 55 -3 58 -15 2 -14 -23 -18 -197 -29 -110 -7 -232 -10 -271 -6
-39 3 -94 3 -123 0 l-53 -6 1 -110 c0 -103 -1 -111 -24 -129 -28 -23 -84 -25
-101 -4 -7 8 -17 63 -23 122 -17 176 18 240 98 179 47 -36 62 -33 75 14 10 39
40 57 40 25z m-1165 -200 c0 -16 -10 -22 -46 -29 -52 -10 -76 -4 -86 20 -9 24
15 34 77 31 48 -2 55 -5 55 -22z m203 8 c18 -4 23 -11 20 -28 -3 -14 2 -26 14
-34 22 -14 24 -49 3 -57 -27 -11 -103 6 -138 31 -20 13 -43 25 -53 27 -43 8
-18 36 56 61 22 8 71 8 98 0z m-443 -13 c18 -7 31 -6 45 2 15 10 22 10 31 1
34 -34 -18 -43 -198 -34 -39 2 -25 18 25 29 64 13 67 13 97 2z m613 -9 c11 -7
11 -16 1 -49 -13 -45 -31 -57 -60 -42 -31 17 -21 86 15 93 11 2 23 5 26 5 3 1
11 -2 18 -7z m70 -17 c25 -7 29 -29 8 -41 -8 -4 -15 -17 -18 -28 -5 -27 -42
-27 -46 1 -3 24 14 74 25 74 5 0 18 -3 31 -6z m-1131 -24 c47 0 63 -22 63 -85
0 -30 -5 -57 -11 -60 -6 -4 -58 -11 -116 -16 -58 -4 -106 -9 -107 -11 -21 -49
-35 -63 -62 -66 -50 -5 -57 14 -49 122 4 53 13 100 19 105 12 10 170 20 211
14 11 -1 34 -3 52 -3z m580 -12 c27 -26 29 -43 6 -52 -10 -3 -24 -9 -30 -12
-19 -8 -36 42 -23 67 13 24 18 24 47 -3z m-371 -40 c4 -6 2 -14 -4 -16 -7 -2
-12 -23 -12 -48 0 -41 -2 -45 -35 -58 -60 -26 -85 0 -60 61 12 28 19 34 36 30
16 -4 18 -3 9 8 -7 8 -9 19 -5 25 9 14 62 13 71 -2z m142 -35 c-3 -46 -4 -48
-31 -45 -22 2 -30 -2 -34 -17 -9 -33 -54 -38 -67 -6 -7 19 15 83 30 89 7 3 20
-1 28 -9 20 -20 23 -19 30 10 4 16 13 25 27 25 18 0 20 -5 17 -47z m174 -6
c12 -19 -14 -38 -46 -35 -34 3 -49 34 -24 49 16 11 60 2 70 -14z m-761 -199
c17 -10 23 -10 26 0 3 6 13 12 23 12 21 0 34 -29 24 -54 -4 -10 -1 -16 9 -16
8 0 14 8 13 18 -1 13 8 18 45 20 43 3 47 1 53 -23 5 -21 12 -25 41 -25 28 0
35 -4 35 - 20 0 -23 -13 -24 -157 -12 -73 6 -83 5 -83 -9 0 -42 -57 -49 -67 -9
-5 18 -14 20 -94 20 -98 0 -112 9 -91 56 14 30 42 31 49 3 5 -18 11 -20 42
-15 20 3 46 6 58 6 14 0 24 9 32 30 11 34 13 35 42 18z"/>
<path class="castle-shadow" d="M17910 6470 c0 -5 14 -10 31 -10 17 0 28 4 24 10 -3 6 -17 10 -31 10
-13 0 -24 -4 -24 -10z"/>
<path class="castle-shadow" d="M17924 6429 c-3 -5 9 -9 25 -9 17 0 31 2 31 4 0 8 -51 13 -56 5z"/>
<path class="castle-shadow" d="M15107 8434 c-12 -13 -7 -53 7 -61 8 -4 16 -26 18 -48 2 -32 7 -40
23 -40 17 0 20 8 23 48 3 42 0 49 -17 54 -11 3 -21 14 -23 26 -3 21 -19 32
-31 21z"/>
<path class="castle-shadow" d="M16637 8294 c-4 -4 -7 -40 -7 -81 0 -58 3 -75 16 -80 25 -9 32 14 27
81 -5 58 -21 94 -36 80z"/>
<path class="castle-shadow" d="M16561 7981 c-6 -11 -11 -46 -11 -79 0 -67 18 -86 52 -55 15 14 18
28 16 82 -3 59 -5 66 -25 69 -14 2 -26 -4 -32 -17z"/>
<path class="castle-shadow" d="M14947 7953 c-11 -10 -8 -51 3 -58 6 -4 10 8 10 29 0 37 -2 41 -13
29z"/>
<path class="castle-shadow" d="M13962 7411 c-8 -18 -12 -58 -10 -102 3 -71 4 -73 32 -80 16 -5 42
-5 58 -2 31 6 49 30 30 42 -6 3 -12 36 -14 71 -3 56 -6 65 -23 69 -11 2 -24 9
-28 17 -13 22 -31 16 -45 -15z"/>
<path class="castle-shadow" d="M15210 7321 c-16 -32 -13 -127 6 -146 26 -26 38 -13 52 55 11 54 10
66 -3 87 -19 28 -41 30 -55 4z"/>
<path class="castle-shadow" d="M13695 6516 c-18 -24 -36 -36 -51 -36 -13 0 -24 -2 -24 -5 0 -3 17
-31 38 -62 l37 -56 2 -300 c5 -547 47 -348 65 303 3 113 1 128 -18 159 l-21
33 -28 -36z"/>
<path class="castle-shadow" d="M13836 6181 c-9 -14 11 -172 23 -184 5 -5 21 -3 38 5 25 12 28 18 26
61 -2 60 -31 121 -60 125 -11 2 -24 -1 -27 -7z"/>
<path class="castle-shadow" d="M16430 5981 c-15 -4 34 -10 130 -13 85 -3 157 -4 159 -2 2 2 1 7 -3
12 -10 10 -255 13 -286 3z"/>
<path class="castle-shadow" d="M16503 5920 c-120 -10 -95 -20 43 -18 71 2 129 7 129 12 0 11 -74 14
-172 6z"/>
<path class="castle-shadow" d="M14007 5724 c-4 -4 -7 -18 -7 -30 0 -13 -9 -28 -20 -34 -30 -16 -27
-68 4 -80 13 -5 27 -13 30 -19 4 -6 13 -8 21 -5 21 8 16 168 -5 172 -9 1 -19
0 -23 -4z"/>
<path class="castle-shadow" d="M12640 5695 c-11 -13 -10 -14 4 -9 9 3 16 10 16 15 0 13 -6 11 -20
-6z"/>
<path class="castle-shadow" d="M12602 5668 c-16 -16 -17 -162 -1 -152 8 5 10 29 6 74 -4 44 -2 71 6
79 6 6 9 11 6 11 -3 0 -10 -5 -17 -12z"/>
<path class="castle-shadow" d="M11828 5613 c-48 -3 -70 -9 -80 -21 -11 -15 -11 -15 3 -5 8 7 44 13
80 14 35 0 82 1 104 2 22 0 49 -3 60 -7 20 -8 20 -7 1 8 -12 10 -36 15 -60 14
-23 -1 -71 -3 -108 -5z"/>
<path class="castle-shadow" d="M11762 5351 c-21 -13 -12 -131 11 -145 31 -20 51 4 57 68 3 31 2 63
-3 71 -9 16 -44 20 -65 6z"/>
<path class="castle-shadow" d="M11847 5074 c-4 -4 -7 -35 -7 -69 0 -70 17 -98 48 -78 13 8 17 26 17
79 0 66 -1 69 -25 72 -14 2 -29 0 -33 -4z"/>
</g>
</svg>
