<?xml version="1.0" standalone="no"?>
<!DOCTYPE svg PUBLIC "-//W3C//DTD SVG 20010904//EN"
 "http://www.w3.org/TR/2001/REC-SVG-20010904/DTD/svg10.dtd">
<svg version="1.0" xmlns="http://www.w3.org/2000/svg"
 width="1920.000000pt" height="682.000000pt" viewBox="0 0 1920.000000 682.000000"
 preserveAspectRatio="xMidYMid meet">
<style>
.hill {
    fill: #c97062;
}
.keep {
    fill: #c97062;
}
.detail {
    fill: #934948;
}
.outline {
    fill: #934948;
}
.forest {
    fill: #934948;
}
.features {
    fill: #e99469;
}

</style>
<g transform="translate(0.000000,682.000000) scale(0.100000,-0.100000)"
fill="#000000" stroke="none">
<path class="hill" d="M18375 3599 c-22 -4 -89 -8 -148 -8 -61 -1 -179 -12 -270 -25 -236
-36 -344 -46 -612 -56 -252 -10 -364 -24 -610 -81 -202 -46 -398 -76 -732
-114 -368 -40 -405 -46 -592 -90 -214 -50 -250 -54 -671 -65 -212 -5 -455 -17
-540 -25 -128 -13 -175 -14 -269 -4 -176 18 -329 7 -501 -36 -80 -20 -233 -49
-340 -66 -136 -21 -230 -42 -310 -69 -330 -110 -600 -204 -728 -254 -79 -31
-180 -65 -225 -76 -192 -49 -276 -96 -443 -251 -57 -52 -87 -72 -145 -93 -41
-15 -103 -47 -139 -71 -46 -31 -105 -57 -200 -88 -74 -25 -166 -63 -205 -86
-44 -26 -82 -41 -103 -41 -60 0 -112 -40 -301 -227 -188 -188 -223 -215 -424
-334 -60 -35 -141 -90 -180 -122 -40 -32 -123 -83 -185 -114 -95 -47 -130 -71
-210 -146 -117 -108 -190 -159 -285 -198 -86 -36 -103 -51 -222 -199 -51 -63
-124 -147 -162 -187 l-68 -71 -51 5 c-65 7 -94 -8 -189 -99 -59 -56 -76 -67
-81 -54 -3 9 -39 31 -78 50 -40 18 -113 60 -163 94 -50 34 -140 81 -199 105
-60 25 -148 61 -195 80 -47 20 -189 67 -315 106 -126 38 -256 80 -289 92 -33
12 -202 70 -375 129 -173 59 -380 130 -460 158 -80 28 -189 64 -243 81 -54 17
-155 58 -225 92 -199 96 -292 129 -447 155 -165 29 -571 115 -701 149 -50 13
-151 47 -225 75 -74 29 -219 83 -324 120 -367 132 -512 193 -790 332 -110 55
-219 113 -242 129 -24 17 -114 53 -205 83 -469 154 -526 167 -1012 237 -76 11
-249 45 -385 77 l-246 57 -305 0 c-277 0 -323 -3 -507 -27 -110 -16 -224 -33
-252 -40 l-51 -11 0 -1289 0 -1288 9584 0 9584 0 5 33 c26 148 28 261 25 1852
l-3 1660 -38 9 c-41 11 -68 5 -173 -35 l-61 -23 -86 42 c-138 68 -156 72 -296
71 -69 -1 -144 -5 -166 -10z"/>

<path class="forest" d="M602 3676 c-21 -10 -23 -16 -19 -53 4 -39 3 -43 -18 -43 -12 0 -30 9
-40 20 -10 11 -21 17 -26 14 -11 -6 0 -34 24 -61 13 -15 17 -30 14 -45 -5 -20
-12 -24 -44 -23 -21 0 -44 4 -51 9 -18 11 -18 9 -25 -56 -4 -38 -2 -58 5 -58
9 0 4 -78 -6 -88 -2 -1 -20 5 -41 15 -35 17 -38 17 -50 0 -15 -20 -44 -22 -70
-3 -17 13 -16 15 24 41 23 16 40 33 38 39 -4 12 -43 13 -69 1 -14 -5 -18 -2
-18 13 0 11 8 23 18 27 16 6 16 7 -2 20 -17 13 -17 15 -3 21 30 11 20 34 -12
28 -33 -7 -53 21 -20 29 22 6 26 27 4 27 -10 0 -15 10 -15 30 0 17 5 30 10 30
6 0 10 5 10 10 0 6 -9 10 -19 10 -14 0 -21 -8 -23 -27 -2 -23 -8 -28 -32 -28
-38 0 -45 -22 -12 -35 30 -11 34 -25 9 -34 -10 -3 -26 -11 -35 -18 -14 -10
-20 -9 -36 5 -19 18 -52 23 -52 8 0 -4 14 -19 30 -33 26 -22 29 -29 24 -58 -6
-29 -9 -31 -19 -16 -20 27 -38 20 -32 -13 4 -18 2 -31 -5 -33 -8 -3 -13 -111
-16 -369 l-5 -366 249 -6 c137 -4 296 -12 354 -17 96 -8 113 -13 191 -54 47
-24 113 -52 146 -60 34 -9 94 -30 134 -47 41 -17 110 -42 154 -56 76 -24 119
-48 247 -134 95 -64 220 -83 388 -59 51 7 76 6 119 -7 66 -19 194 -12 340 18
127 26 275 25 361 -1 36 -12 130 -36 210 -56 119 -29 159 -44 232 -85 48 -28
91 -56 95 -63 5 -8 37 -36 71 -64 52 -41 77 -54 135 -67 40 -9 81 -24 92 -34
25 -24 115 -71 134 -71 7 0 28 -8 45 -19 17 -10 69 -26 116 -35 106 -21 263
-75 448 -154 78 -34 186 -75 240 -93 53 -18 113 -43 132 -55 55 -36 142 -54
260 -54 63 0 147 -8 210 -20 61 -12 147 -20 204 -20 119 0 193 -17 336 -77 58
-25 158 -64 223 -88 64 -24 191 -82 281 -129 188 -98 382 -173 546 -211 30 -7
98 -29 150 -50 52 -21 132 -50 177 -66 45 -15 99 -38 120 -51 61 -38 89 -47
212 -72 131 -27 448 -131 555 -182 91 -44 165 -47 190 -9 24 37 20 96 -9 139
-14 20 -25 41 -25 46 0 5 13 25 30 43 16 19 30 37 30 41 0 13 -25 5 -46 -15
l-22 -20 2 53 c1 41 -2 53 -14 53 -10 0 -16 -12 -18 -32 -3 -29 -7 -33 -34
-33 -23 0 -29 4 -24 16 3 9 6 19 6 24 0 4 9 10 21 13 16 4 19 11 14 27 -4 13
0 31 9 45 9 13 16 35 16 49 0 13 7 26 15 30 8 3 15 13 15 23 0 10 9 24 20 31
19 12 28 42 12 42 -4 0 -18 -7 -31 -16 -12 -9 -26 -12 -31 -8 -13 15 -24 194
-11 194 6 0 11 7 11 15 0 8 -7 15 -16 15 -9 0 -18 9 -21 20 -5 20 -33 29 -33
10 0 -5 -7 -10 -15 -10 -18 0 -19 -14 -5 -41 8 -15 7 -19 -4 -19 -13 0 -14 -9
-9 -45 4 -33 2 -45 -7 -45 -7 0 -10 -8 -7 -20 4 -16 -6 -29 -40 -55 -25 -19
-52 -35 -60 -35 -21 0 -27 29 -9 49 26 28 19 36 -33 37 -37 2 -54 8 -74 28
-14 14 -33 26 -42 26 -11 0 -15 12 -15 50 0 55 15 70 69 70 41 0 48 17 9 25
l-31 7 23 18 c15 11 19 19 11 24 -18 12 -49 -3 -57 -27 -12 -38 -44 -50 -44
-17 0 11 11 30 25 42 32 28 32 48 1 48 -31 0 -42 16 -16 23 30 8 25 37 -5 37
-31 0 -33 17 -3 22 24 3 38 28 15 28 -8 0 -17 9 -20 20 -6 23 -27 27 -27 5 0
-28 -24 -65 -42 -65 -24 0 -23 -11 3 -33 28 -25 19 -41 -24 -45 -42 -4 -49
-25 -21 -66 19 -30 7 -39 -43 -34 -35 3 -56 -13 -34 -27 20 -12 12 -45 -10
-45 -12 0 -23 -8 -26 -20 -4 -15 -14 -20 -40 -20 -35 0 -35 0 -28 36 5 28 3
35 -7 32 -8 -3 -17 9 -23 35 -14 58 -37 62 -29 5 6 -40 4 -45 -20 -56 -31 -14
-32 -22 -6 -50 24 -25 27 -62 5 -62 -8 0 -15 -9 -15 -20 0 -11 5 -20 10 -20
15 0 12 -33 -6 -58 -11 -16 -25 -22 -53 -22 -23 0 -44 -6 -52 -16 -12 -14 -14
-13 -21 7 -7 19 -4 27 16 42 15 10 26 25 26 33 0 18 -8 18 -27 -2 -15 -14 -17
-14 -25 0 -5 9 -16 16 -23 16 -22 0 -18 34 5 55 11 10 20 24 20 32 0 16 -22
17 -38 1 -9 -9 -12 -8 -12 4 0 9 5 20 10 23 6 3 10 13 10 21 0 11 -6 13 -21 9
-19 -6 -20 -3 -18 36 4 45 -14 66 -24 28 -7 -24 -34 -20 -29 5 3 18 -9 21 -25
5 -8 -8 -14 -6 -22 10 -9 17 -7 28 13 60 14 22 30 42 36 46 17 10 11 32 -9 38
-11 3 -27 21 -35 42 -9 20 -20 34 -26 30 -6 -4 -10 6 -10 24 0 24 8 36 35 53
43 28 45 48 6 48 -35 0 -48 15 -30 36 10 12 10 17 1 23 -7 4 -11 18 -10 31 5
40 -20 34 -27 -7 -4 -21 -15 -57 -26 -80 -16 -37 -23 -43 -49 -43 -25 0 -30 4
-30 24 0 14 5 28 10 31 8 5 7 12 -2 22 -10 12 -9 17 5 25 10 5 15 14 12 19 -4
5 -11 7 -16 4 -5 -4 -9 1 -9 9 0 26 -23 18 -45 -14 -28 -42 -55 -40 -55 4 0
30 4 35 30 41 17 4 30 13 30 21 0 12 -8 13 -35 8 -34 -6 -35 -5 -35 25 0 27 4
31 26 31 31 0 28 24 -5 28 -16 3 -20 8 -16 22 3 10 1 21 -4 24 -11 7 -51 -45
-51 -67 0 -31 -13 -47 -36 -47 -16 0 -24 -6 -24 -18 0 -9 -13 -23 -30 -30 -40
-18 -38 -32 5 -32 60 0 39 -46 -27 -59 -43 -9 -47 -29 -9 -42 37 -13 40 -26 9
-38 -17 -7 -28 -4 -43 9 -35 30 -43 31 -80 10 -41 -23 -61 -25 -68 -7 -3 9 -8
9 -16 1 -6 -6 -9 -19 -5 -28 5 -13 14 -17 35 -12 18 3 29 1 33 -9 4 -11 21
-15 58 -15 46 -1 51 -2 36 -14 -37 -28 -12 -57 27 -32 31 20 35 20 35 -3 0
-10 -7 -22 -16 -25 -10 -4 -14 -15 -12 -33 3 -28 28 -46 28 -20 0 11 14 16 46
19 48 3 74 -12 74 -46 0 -13 -4 -15 -19 -6 -33 17 -53 12 -49 -12 2 -15 -3
-24 -15 -26 -26 -5 -77 21 -77 40 0 24 -11 48 -21 48 -5 0 -9 -11 -9 -24 0
-31 -17 -43 -25 -17 -3 10 -14 26 -25 36 -11 10 -20 26 -20 37 0 10 -7 18 -15
18 -8 0 -15 -7 -15 -15 0 -9 -9 -15 -21 -15 -27 0 -20 -23 9 -30 29 -6 61 -56
54 -82 -2 -11 -14 -24 -26 -28 -11 -5 -15 -9 -8 -9 15 -1 16 -33 0 -49 -19
-19 -34 -14 -47 15 -11 25 -10 29 8 42 33 21 26 41 -14 41 -23 0 -35 5 -35 14
0 16 -21 26 -57 26 -19 0 -24 4 -19 16 3 9 6 24 6 35 0 16 7 19 45 19 51 0 56
11 24 47 -18 18 -20 25 -9 38 16 20 6 45 -20 45 -17 0 -20 6 -20 44 0 66 -59
126 -75 77 -10 -31 -75 -43 -75 -13 0 17 11 34 78 115 28 34 31 43 19 52 -17
12 -10 34 28 95 20 31 24 45 16 53 -9 9 -17 8 -31 -1 -17 -10 -20 -10 -20 7 0
10 7 24 15 31 8 7 15 17 15 23 0 5 8 16 18 23 12 9 14 16 6 24 -14 14 -64 -4
-64 -22 -1 -12 -44 -68 -54 -68 -2 0 -9 14 -15 30 -12 35 -31 40 -31 8 0 -15
-11 -29 -30 -40 -28 -16 -31 -16 -37 -2 -9 25 22 68 53 74 46 8 40 27 -9 28
-37 1 -51 -5 -85 -33 l-40 -35 -7 30 c-8 37 0 50 30 50 13 0 27 5 30 10 3 6
17 7 31 4 20 -5 26 -2 31 15 4 15 13 21 33 21 39 0 60 9 60 27 0 13 -9 15 -47
9 -27 -3 -52 -12 -58 -19 -15 -21 -55 -28 -55 -11 0 21 29 74 40 74 6 0 10 20
10 45 0 35 4 47 21 55 25 14 18 24 -19 25 -20 0 -26 4 -24 18 2 12 -4 17 -23
17 -30 0 -32 14 -5 37 12 11 20 30 20 50 0 22 -6 36 -20 43 -11 6 -20 17 -20
25 0 20 -19 19 -26 0 -4 -8 -12 -15 -20 -15 -8 0 -14 -5 -14 -10 0 -6 -11 -8
-25 -4 -31 8 -36 -21 -5 -31 26 -8 25 -22 -1 -44 -19 -15 -20 -20 -8 -38 16
-27 1 -48 -40 -56 -21 -4 -30 -13 -33 -29 -4 -30 -34 -36 -43 -8 -8 24 -42 23
-36 -1 2 -8 6 -32 9 -54 5 -39 5 -40 -15 -22 -23 20 -33 22 -33 4 0 -19 53
-67 83 -75 15 -4 27 -10 27 -14 1 -66 -11 -75 -50 -33 -48 51 -112 41 -154
-23 -14 -21 -25 -27 -41 -24 -13 2 -26 -1 -29 -7 -4 -6 -14 -11 -22 -11 -25 0
-12 56 19 80 20 16 27 30 27 58 0 21 9 48 20 62 26 33 25 50 -1 50 -20 0 -21
1 -5 25 23 34 20 45 -11 45 -24 0 -25 1 -11 18 9 9 18 45 21 80 5 64 -6 82
-23 37 -5 -14 -15 -25 -21 -25 -7 0 -9 -9 -5 -25 5 -18 2 -27 -9 -31 -8 -4
-15 -14 -15 -25 0 -10 -10 -24 -22 -30 l-21 -11 23 -18 c23 -17 23 -20 11 -58
-8 -22 -11 -54 -9 -71 6 -43 -10 -49 -37 -15 -20 25 -25 27 -39 15 -22 -18
-20 -42 4 -48 11 -3 20 -11 20 -19 0 -19 -28 -31 -80 -35 -41 -4 -45 -2 -48
19 -2 14 4 29 14 36 21 16 9 40 -17 33 -23 -6 -36 28 -18 49 8 10 9 21 2 37
-5 12 -6 33 -2 47 10 37 10 70 0 70 -5 0 -13 -9 -16 -20 -9 -29 -40 -25 -55 8
-9 19 -14 23 -18 12 -2 -8 -14 -23 -26 -32 -18 -15 -19 -18 -3 -18 9 0 17 -6
17 -13 0 -9 -10 -12 -30 -9 -31 4 -38 -6 -18 -26 9 -9 8 -15 -7 -25 -12 -10
-14 -16 -7 -21 24 -14 11 -25 -23 -19 -43 7 -44 -3 -3 -37 22 -19 30 -32 25
-44 -4 -10 -13 -16 -21 -13 -8 3 -31 9 -50 13 -29 5 -36 3 -36 -9 0 -9 8 -21
18 -26 16 -10 16 -10 0 -11 -25 0 -23 -26 2 -33 23 -6 27 -27 6 -27 -7 0 -16
-13 -19 -29 -5 -25 -14 -32 -48 -42 -40 -13 -64 -39 -41 -47 7 -2 12 -17 12
-34 0 -23 4 -29 16 -24 29 11 33 -4 8 -31 -19 -20 -27 -24 -36 -15 -7 7 -35
12 -63 12 -42 0 -52 3 -60 23 -9 19 -5 28 25 60 19 22 45 43 58 48 12 5 22 15
22 24 0 26 -50 17 -87 -16 -44 -38 -53 -31 -18 15 45 59 10 77 -50 25 -29 -26
-38 -29 -50 -19 -16 14 -20 40 -6 40 5 0 14 14 20 30 5 17 17 33 26 36 8 3 15
14 15 24 0 10 14 31 31 48 39 38 32 54 -16 39 -19 -6 -38 -8 -41 -4 -13 13 12
82 34 92 25 11 30 35 7 35 -21 0 -19 10 11 41 43 45 8 45 -38 0 -44 -44 -59
-48 -101 -28 -26 11 -38 37 -17 37 5 0 18 19 28 43 11 23 29 53 41 66 21 24
27 41 15 41 -4 0 -22 -13 -41 -30 -18 -16 -38 -30 -43 -30 -16 0 -11 37 5 44
8 3 15 12 15 21 0 17 -25 21 -35 5 -3 -5 -15 -10 -27 -10 -18 0 -16 5 16 40
34 38 39 60 14 60 -7 0 -22 -10 -34 -21 l-23 -22 -7 27 c-4 19 -1 33 11 46 9
10 14 24 10 29 -11 19 -35 12 -47 -14 -6 -14 -17 -25 -25 -25 -7 0 -13 -4 -13
-10 0 -5 -7 -10 -15 -10 -10 0 -15 10 -15 28 1 33 21 62 44 62 9 0 16 4 16 8
0 12 -30 72 -36 72 -2 0 -9 -12 -15 -27 -10 -26 -12 -27 -23 -10 -13 17 -36
23 -36 9 0 -4 7 -17 15 -29 22 -32 5 -35 -29 -6 -25 21 -28 28 -18 42 7 9 17
27 22 40 6 13 18 30 28 37 16 13 16 13 -1 14 -13 0 -17 5 -13 18 3 9 1 24 -4
32 -7 11 -11 9 -19 -13 -6 -16 -11 -31 -11 -34 0 -3 -8 -11 -17 -18 -15 -11
-15 -15 -4 -29 11 -13 11 -16 -2 -16 -8 0 -20 7 -27 15 -32 38 -41 2 -10 -38
26 -33 27 -60 1 -52 -23 7 -38 -12 -22 -28 6 -6 11 -22 11 -36 l0 -24 -23 21
c-32 30 -40 28 -32 -8 6 -27 4 -30 -19 -30 -31 0 -36 -29 -6 -37 11 -3 20 -8
20 -12 -1 -17 -41 -51 -60 -51 -30 0 -60 -18 -60 -35 0 -17 -16 -20 -25 -5
-10 16 -25 11 -25 -8 0 -10 9 -37 20 -60 11 -22 20 -44 20 -47 0 -3 -18 -5
-40 -5 -22 0 -40 -4 -40 -10 0 -14 32 -50 41 -44 4 2 19 0 33 -6 19 -7 26 -17
26 -35 0 -21 -5 -25 -30 -25 -20 0 -33 6 -37 18 -3 9 -14 25 -24 34 -9 10 -24
27 -32 39 -20 28 -42 16 -25 -14 6 -12 11 -35 10 -51 -2 -22 7 -39 34 -67 l37
-38 -29 -24 c-27 -24 -28 -27 -16 -61 7 -20 10 -40 7 -46 -10 -15 -52 -12 -59
5 -8 21 -24 19 -31 -5 -3 -11 -10 -20 -15 -20 -13 0 -18 50 -5 58 7 4 16 17
19 30 6 19 4 22 -18 22 -19 0 -26 5 -26 20 0 11 -7 23 -15 26 -8 4 -15 14 -15
24 0 14 9 20 32 22 17 2 33 9 36 15 2 9 -5 11 -27 7 -34 -7 -37 -3 -20 27 8
16 7 25 -4 37 -8 9 -17 25 -20 35 -9 24 -27 21 -27 -4 0 -24 -48 -118 -68
-134 -7 -6 -12 -16 -10 -23 2 -10 -79 -48 -109 -52 -2 0 -3 15 -3 33 0 28 4
34 32 42 41 12 51 45 14 45 -29 0 -40 38 -16 57 13 10 13 13 -3 30 -21 24 -21
33 0 48 18 13 10 35 -13 35 -13 0 -19 24 -15 58 1 6 -9 16 -22 21 -18 7 -24
16 -21 33 6 37 -27 93 -55 93 -19 0 -26 8 -37 45 -18 58 -18 95 0 109 11 9 15
7 20 -11 6 -23 7 -23 21 -4 17 23 20 86 5 86 -18 0 -64 -27 -84 -49 -22 -24
-64 -28 -72 -6 -3 8 11 35 35 63 23 26 41 54 41 60 0 17 -20 15 -41 -4 -17
-16 -19 -15 -28 10 -6 14 -17 26 -26 26 -19 0 -20 16 0 24 9 3 15 18 15 34 0
16 -7 35 -15 42 -8 7 -15 21 -15 31 0 25 -15 32 -30 14 -7 -8 -30 -20 -51 -26
-41 -13 -58 -36 -33 -46 10 -4 20 1 26 10 15 28 23 19 26 -27 2 -52 -19 -69
-37 -29 -7 14 -18 23 -28 21 -28 -5 -26 -24 6 -61 38 -43 41 -77 7 -77 -14 0
-32 -10 -43 -24 -14 -19 -24 -24 -45 -19 -35 7 -36 29 -3 37 14 4 25 13 25 22
0 11 -6 14 -22 9 -16 -6 -20 -4 -15 8 15 39 19 88 7 101 -8 10 -8 21 -2 33 9
16 17 95 13 132 -1 9 -14 1 -34 -20 -43 -44 -48 -60 -29 -81 13 -16 13 -21 -1
-50 -11 -23 -13 -37 -6 -51 13 -23 -8 -54 -25 -37 -13 13 -56 13 -56 0 0 -5 5
-10 10 -10 17 0 60 -47 60 -65 0 -12 -6 -15 -20 -11 -11 3 -29 9 -40 12 -13 3
-20 1 -20 -9 0 -8 15 -18 32 -23 34 -10 52 -44 24 -44 -9 0 -16 5 -16 10 0 18
-29 10 -35 -10 -8 -26 -17 -25 -45 5 -22 24 -50 34 -50 18 0 -5 9 -23 21 -42
18 -31 19 -35 5 -43 -19 -11 -21 -38 -3 -38 7 0 22 7 33 15 22 17 34 19 34 5
0 -5 -20 -23 -45 -40 l-44 -31 -7 28 c-4 15 -11 33 -16 39 -5 7 -4 22 3 38 15
33 5 45 -19 23 -26 -24 -62 -22 -62 3 0 13 12 25 35 34 39 17 46 36 13 36 -20
0 -21 1 -3 20 22 24 14 36 -14 20 -19 -9 -21 -8 -21 14 0 13 7 26 15 30 18 7
20 32 3 40 -9 3 -8 8 5 16 21 14 22 30 1 30 -12 0 -15 7 -12 25 3 14 1 28 -4
31 -14 9 -36 -26 -43 -68 -4 -21 -10 -38 -15 -38 -14 0 -21 -32 -9 -47 13 -14
1 -27 -49 -54 -29 -16 -43 1 -35 42 3 15 0 30 -6 33 -12 8 -14 3 -31 -61 -9
-38 -15 -44 -50 -53 -41 -11 -50 -23 -26 -37 7 -4 17 -18 20 -30 7 -21 4 -23
-28 -23 -38 0 -44 -8 -23 -29 10 -10 5 -19 -25 -47 -21 -19 -38 -39 -38 -44 0
-13 -37 -50 -50 -50 -5 0 -10 9 -10 19 0 11 -4 23 -10 26 -16 10 -12 23 10 30
23 7 27 35 5 35 -8 0 -15 4 -15 9 0 5 7 11 15 15 21 8 19 30 -5 51 -13 12 -18
25 -14 41 4 17 1 26 -10 30 -10 4 -16 18 -16 39 0 20 -6 35 -15 39 -10 3 -15
19 -15 46 0 58 -27 55 -35 -4 -7 -41 -10 -45 -39 -48 -31 -3 -31 -3 -29 -56 2
-51 1 -53 -20 -46 -12 4 -23 11 -25 15 -6 15 -32 10 -32 -5 0 -8 7 -22 16 -31
20 -20 11 -45 -17 -45 -18 0 -20 -5 -16 -26 4 -25 3 -26 -29 -21 -36 6 -54 -6
-30 -20 10 -5 13 -16 9 -31 -7 -27 -30 -29 -38 -2 -3 11 -17 23 -31 26 -30 8
-30 17 -1 37 18 12 20 18 10 28 -10 10 -16 10 -25 1 -18 -18 -28 -15 -28 9 0
13 10 23 30 31 34 11 36 35 3 30 -31 -4 -39 47 -10 70 30 23 15 33 -44 31 -43
-2 -49 0 -49 18 0 37 19 59 51 59 24 0 30 4 27 18 -2 12 -13 17 -33 17 -42 0
-40 33 2 60 31 19 41 39 25 49 -4 2 -25 -4 -47 -14 -51 -25 -55 -24 -55 1 0
12 16 37 36 56 35 33 36 35 19 53 -10 11 -26 20 -37 20 -13 0 -18 7 -18 25 0
20 5 25 25 25 16 0 25 6 25 15 0 8 -7 15 -15 15 -7 0 -19 8 -24 18 -9 15 -12
15 -21 2 -5 -8 -10 -26 -10 -40 0 -40 -14 -54 -38 -41 -30 16 -39 -5 -13 -33
27 -29 26 -34 -4 -28 -22 4 -25 1 -25 -28 0 -23 5 -33 20 -37 27 -7 25 -23 -3
-23 -13 0 -34 11 -47 25 -23 24 -50 33 -50 17 0 -5 9 -17 19 -26 11 -10 21
-28 23 -40 3 -18 9 -21 41 -18 28 3 37 0 37 -12 0 -8 -10 -16 -22 -18 -32 -4
-88 14 -88 29 0 7 -7 13 -15 13 -8 0 -15 -6 -15 -13 0 -9 -14 -13 -42 -13 -24
0 -64 -3 -90 -7 -41 -7 -47 -6 -42 7 3 9 12 16 19 16 30 0 24 56 -6 65 -10 4
-19 12 -19 19 0 10 10 11 44 3 51 -12 94 1 114 34 17 27 12 31 -24 18 -23 -9
-37 -8 -64 4 -34 15 -34 15 -8 16 30 1 78 20 78 32 0 11 -28 19 -71 19 -44 0
-54 21 -19 40 27 15 25 30 -4 30 -24 0 -41 23 -30 41 3 5 16 9 30 9 29 0 33
25 4 33 -15 4 -20 14 -21 44 -2 72 -4 88 -13 93 -6 3 -13 -9 -18 -27 -6 -21
-16 -33 -31 -36 l-22 -4 23 -8 c25 -8 29 -42 11 -94 -12 -33 -44 -42 -67 -19
-20 20 -26 -1 -7 -22 10 -11 29 -20 43 -20 18 0 23 -4 18 -16 -3 -9 -6 -22 -6
-30 0 -24 -40 -16 -49 10 -9 22 -39 42 -49 32 -2 -3 5 -24 16 -48 12 -26 19
-54 15 -69 -4 -23 -8 -25 -33 -20 -16 3 -38 18 -50 34 -22 28 -50 36 -50 14 0
-20 72 -85 103 -92 17 -5 27 -14 27 -26 0 -19 -25 -24 -87 -20 -27 3 -38 -15
-23 -34 15 -18 53 -18 103 -1 40 15 44 10 31 -41 -8 -28 -24 -29 -52 -2 -22
20 -42 18 -42 -3 0 -6 -8 -20 -17 -31 -17 -18 -17 -19 1 -33 17 -12 18 -17 7
-38 -13 -23 -44 -40 -55 -28 -3 3 -3 22 0 44 7 44 -5 49 -37 17 -26 -26 -49
-21 -69 14 -15 27 -14 28 30 67 25 21 39 39 32 40 -9 0 -11 12 -6 43 5 42 5
42 -13 21 -11 -12 -29 -24 -40 -28 -18 -6 -22 -2 -25 21 -2 23 -8 29 -35 31
-37 4 -40 9 -18 38 23 31 19 70 -11 91 -25 19 -25 20 -8 37 11 12 14 20 6 25
-6 3 -14 19 -17 34 -8 31 -21 35 -30 8 -5 -16 -47 -30 -92 -31 -18 0 -16 29 2
36 18 7 20 24 2 24 -35 0 -59 105 -25 113 24 7 23 28 -3 34 -12 3 -18 11 -15
19 6 16 -3 44 -14 44 -4 0 -10 -23 -12 -51 -4 -34 -11 -55 -22 -61 -9 -5 -16
-17 -16 -27 0 -10 -11 -26 -24 -35 -24 -15 -25 -14 -44 18 l-20 34 34 33 c19
18 34 39 34 46 0 16 -12 17 -28 1 -17 -17 -29 0 -14 20 19 27 25 42 18 49 -3
4 -12 1 -18 -5 -21 -21 -28 -13 -28 26 0 30 -5 41 -22 50 l-23 11 23 7 c12 3
22 13 22 20 0 16 -35 17 -68 0z m368 -445 c0 -10 -50 -25 -57 -17 -3 2 -2 9 2
15 8 13 55 15 55 2z m628 -331 c2 -12 1 -38 -3 -56 -5 -31 -9 -34 -40 -34 -31
0 -35 3 -35 25 0 14 5 25 10 25 6 0 18 16 27 35 19 39 36 41 41 5z m-122 -36
c-3 -8 -10 -14 -16 -14 -14 0 -12 47 3 53 14 5 21 -17 13 -39z m14 -69 c0 -8
7 -15 16 -15 23 0 13 -34 -12 -38 -23 -3 -60 41 -49 58 10 16 45 12 45 -5z
m3698 -543 c2 -7 -1 -12 -7 -12 -6 0 -11 -7 -11 -16 0 -14 -3 -14 -15 -4 -8 7
-15 23 -15 36 0 20 3 22 22 15 12 -4 24 -13 26 -19z m462 -247 c0 -19 -3 -35
-6 -35 -5 0 -36 16 -73 37 -13 8 26 33 50 33 26 0 29 -3 29 -35z m-35 -65 c10
-11 28 -20 40 -20 19 0 56 -27 44 -31 -13 -5 -70 -10 -104 -10 -65 1 -88 49
-33 71 32 12 33 12 53 -10z m185 -120 c9 -17 7 -22 -12 -29 -28 -11 -52 7 -42
32 9 23 41 21 54 -3z m140 -62 c0 -10 -6 -18 -12 -18 -7 0 -23 -3 -36 -6 -22
-6 -23 -5 -16 32 3 22 9 43 11 47 8 13 53 -34 53 -55z m-1194 -11 c2 -2 -2
-12 -10 -22 -18 -25 -99 -28 -104 -3 -5 25 44 48 81 37 16 -5 31 -10 33 -12z
m1964 -216 c-5 -11 -15 -23 -20 -26 -6 -3 -10 -15 -10 -26 0 -10 -4 -19 -10
-19 -5 0 -10 16 -10 35 0 28 5 38 23 45 34 13 39 12 27 -9z m270 -431 c0 -15
-7 -20 -25 -20 -27 0 -32 9 -13 28 18 18 38 14 38 -8z m403 -98 c17 -7 16 -9
-3 -30 -12 -13 -33 -22 -50 -22 -25 0 -30 4 -30 23 0 13 3 27 7 30 8 9 53 8
76 -1z"/>

<path class="outline" d="M15197 6739 c-9 -5 -19 -25 -23 -44 -3 -18 -14 -41 -25 -51 -10 -9
-16 -21 -13 -25 3 -5 0 -9 -5 -9 -6 0 -10 -3 -9 -7 1 -5 -2 -19 -6 -32 -5 -13
-4 -27 2 -33 7 -7 7 -19 1 -36 -10 -25 -23 -81 -36 -150 -4 -20 -7 -70 -6
-111 1 -59 -2 -78 -17 -93 -19 -21 -20 -33 -22 -220 -1 -49 -4 -88 -7 -89 -63
-8 -98 -29 -115 -71 -16 -38 -12 -99 8 -110 10 -6 14 -19 10 -41 -2 -17 -6
-99 -8 -181 -3 -81 -6 -149 -8 -151 -2 -2 -20 -10 -40 -18 -36 -15 -38 -15
-48 4 -14 25 -48 24 -71 -2 -13 -15 -18 -36 -17 -71 1 -59 -6 -68 -32 -42 -15
15 -22 39 -26 94 -9 117 -10 120 -26 137 -14 13 -20 14 -47 2 -17 -8 -31 -17
-31 -20 0 -3 -18 -11 -40 -18 l-39 -12 -3 -77 -3 -77 -40 -6 c-22 -4 -49 -3
-60 1 -12 4 -40 5 -62 1 -41 -8 -41 -7 -46 23 -2 17 -3 51 -2 76 4 64 -37 130
-80 130 -8 0 -15 4 -15 10 0 5 -18 9 -40 8 -64 -2 -70 -16 -68 -159 1 -68 1
-165 0 -215 -2 -91 -2 -92 -29 -100 -36 -10 -32 -9 -73 -17 -32 -7 -45 -9
-100 -21 -30 -7 -84 -66 -107 -116 -39 -85 -42 -98 -36 -162 7 -86 7 -147 -1
-183 -4 -16 -10 -45 -13 -63 -3 -19 -22 -51 -41 -73 l-36 -39 -94 6 c-95 6
-142 -4 -142 -31 0 -19 -56 -54 -90 -57 -18 -1 -39 -11 -49 -24 -9 -11 -29
-24 -44 -28 l-28 -7 5 110 c6 121 5 126 -56 130 -33 2 -43 -3 -85 -46 -39 -39
-55 -48 -87 -51 -22 -1 -51 -9 -64 -18 -20 -13 -23 -22 -20 -59 2 -34 -1 -47
-16 -57 -33 -23 -76 -69 -76 -82 0 -6 5 -17 11 -23 18 -18 1 -32 -31 -28 -24
3 -35 -3 -59 -34 l-30 -37 12 -101 c10 -96 10 -101 -13 -144 -17 -33 -23 -61
-24 -111 l0 -67 -42 -20 c-45 -23 -54 -46 -54 -139 l0 -44 -37 23 c-21 13 -42
28 -48 35 -5 6 -25 21 -44 34 -29 20 -50 24 -137 28 -84 4 -106 2 -118 -11 -9
-9 -16 -22 -16 -29 0 -19 -48 -38 -97 -38 -35 0 -43 3 -43 18 0 36 -40 45
-167 38 -123 -8 -143 -16 -143 -58 0 -10 -7 -18 -15 -18 -28 0 -53 -36 -49
-71 16 -161 16 -188 3 -217 -13 -30 -14 -31 -83 -29 -78 2 -77 2 -91 -83 -4
-27 -13 -38 -38 -50 -31 -14 -32 -17 -32 -73 l-1 -58 -49 -27 c-46 -25 -87
-56 -136 -104 -18 -17 -35 -69 -41 -125 -3 -25 -28 -57 -115 -146 -61 -63
-114 -124 -118 -136 -3 -12 -11 -21 -16 -21 -5 0 -9 -5 -9 -12 0 -6 -7 -19
-15 -28 -37 -41 -20 -120 25 -120 11 0 20 -4 20 -8 0 -14 145 -21 205 -9 17 3
109 8 205 11 154 5 220 1 295 -17 35 -9 40 -9 67 -8 15 0 34 8 42 17 9 8 16
12 16 8 0 -4 17 10 38 32 20 21 36 40 34 42 -2 2 8 12 21 23 22 17 31 18 78 9
30 -6 79 -10 109 -9 83 1 276 -10 355 -21 39 -5 79 -9 90 -9 11 0 43 -2 70 -6
61 -9 154 9 187 34 13 10 43 21 68 23 38 4 129 51 150 78 3 4 34 21 70 38 59
29 69 31 104 21 22 -6 55 -7 75 -3 20 4 43 8 51 9 8 1 33 5 55 9 22 3 63 8 90
11 28 2 68 7 90 11 22 3 49 6 60 5 41 -1 85 22 117 62 61 77 71 87 102 92 17
4 139 7 271 8 132 2 335 6 450 11 116 4 298 7 406 6 l197 -1 33 36 c19 20 43
44 53 53 10 9 26 24 35 32 9 8 33 24 54 35 20 11 37 23 37 27 0 5 7 8 15 8 8
0 15 5 15 10 0 6 7 10 15 10 7 0 18 6 22 13 17 26 43 38 88 41 46 3 102 34 98
55 -2 6 2 11 9 11 6 0 8 3 5 7 -4 3 -3 11 2 17 4 6 11 46 15 89 3 42 12 92 19
110 15 34 18 42 24 68 5 17 75 35 93 24 8 -5 79 -12 205 -21 39 -3 93 -7 120
-10 28 -3 73 -7 100 -9 28 -3 69 -11 91 -19 29 -11 67 -14 127 -11 61 4 95 1
121 -10 20 -8 38 -15 41 -15 43 1 55 -2 50 -10 -4 -6 8 -24 25 -41 26 -26 36
-30 68 -27 20 3 42 7 49 9 6 2 12 0 13 -6 1 -5 7 -19 13 -30 14 -26 16 -36 22
-120 10 -159 28 -219 76 -259 15 -13 25 -27 21 -30 -14 -14 -12 -59 3 -76 13
-15 31 -18 96 -17 61 1 82 -2 89 -13 5 -8 10 -12 10 -7 0 4 11 0 25 -9 19 -12
47 -16 108 -15 45 0 111 1 147 2 36 0 90 -2 121 -4 42 -4 66 -1 90 11 32 17
71 71 66 94 -1 6 18 17 42 24 24 7 49 18 56 24 6 5 15 7 18 3 4 -3 7 -1 7 5 0
7 6 12 14 12 8 0 28 14 46 30 18 17 34 30 35 30 11 0 135 89 180 128 86 76
106 92 116 92 5 0 9 5 9 10 0 6 6 10 13 10 7 0 26 14 43 31 16 17 42 38 58 46
33 17 42 24 95 70 20 18 51 44 69 58 17 15 32 31 32 36 0 11 106 119 118 119
5 0 19 9 32 20 13 11 30 20 39 20 9 0 27 7 39 16 12 8 22 12 22 7 0 -4 4 -2 9
6 6 9 22 13 43 12 18 -2 42 -3 53 -4 30 -1 147 13 156 19 11 7 43 13 94 19 52
6 83 12 95 20 6 4 10 235 10 656 l0 649 -43 0 -43 0 3 47 c3 56 -9 73 -52 73
-32 0 -33 1 -22 29 6 16 7 36 2 47 -4 10 -10 30 -12 44 -7 44 -24 48 -198 54
-66 2 -128 7 -137 11 -12 5 -18 18 -18 39 0 18 -4 36 -9 42 -6 5 -11 31 -12
58 -3 50 -40 113 -60 100 -5 -3 -9 0 -9 5 0 6 -3 10 -7 9 -20 -4 -42 17 -48
44 -8 35 -33 48 -50 25 -24 -34 -65 -13 -65 33 0 14 -8 30 -19 37 -21 13 -220
21 -238 10 -8 -5 -13 -29 -13 -59 0 -42 -3 -49 -16 -44 -9 3 -29 6 -45 6 l-30
0 5 157 c6 177 1 193 -59 193 -49 0 -65 25 -65 103 0 38 -4 67 -10 67 -5 0
-10 9 -10 20 0 24 -28 32 -101 28 l-54 -3 -6 -105 c-3 -58 -9 -112 -13 -121
-5 -12 -21 -15 -76 -14 l-68 3 -69 70 c-37 39 -84 78 -103 86 l-35 14 0 84
c-1 46 -4 103 -8 128 -4 25 -9 80 -11 123 -2 43 -10 85 -16 93 -18 21 -45 17
-66 -11 -22 -29 -55 -25 -95 12 -17 15 -32 21 -43 17 -11 -4 -27 3 -45 20 -24
23 -35 27 -67 22 -20 -4 -43 -11 -51 -17 -18 -16 -97 58 -100 92 -1 13 -3 49
-5 79 -5 74 -11 81 -64 79 -47 -3 -70 -19 -61 -43 3 -7 2 -17 -3 -22 -7 -8 1
-141 16 -241 5 -37 2 -47 -20 -74 -23 -27 -31 -48 -27 -71 2 -12 -17 -10 -24
2 -4 6 -12 7 -18 4 -7 -4 -9 -4 -5 1 14 15 -30 37 -51 26 -14 -8 -31 -7 -60 4
-23 8 -41 12 -41 8 0 -3 -7 0 -15 7 -21 17 -75 5 -113 -26 -21 -18 -38 -47
-53 -91 l-21 -64 -36 3 c-37 3 -37 3 -40 53 -1 28 -4 55 -6 60 -2 6 -5 15 -6
20 -2 6 -18 20 -36 32 -18 13 -34 33 -36 45 -2 16 -11 24 -30 26 -24 3 -27 8
-30 45 -3 39 -7 44 -50 67 l-47 24 6 47 c5 43 -11 99 -24 85 -4 -3 -11 -2 -17
3 -16 14 -115 21 -121 10 -4 -5 -14 -5 -25 1 -10 5 -43 10 -72 10 -32 0 -62 6
-74 15 -26 20 -29 19 -64 -15 -25 -24 -35 -28 -50 -20 -10 5 -29 9 -42 9 -13
-1 -36 6 -53 15 -16 9 -37 16 -46 16 -13 0 -18 14 -23 63 -21 186 -24 192 -91
193 -28 1 -62 4 -76 7 -14 3 -33 1 -42 -4z"/>

<path class="keep" d="M16046 6674 c-3 -8 -3 -26 0 -40 6 -22 3 -24 -28 -24 -19 0 -40 -6
-47 -12 -11 -10 -14 -10 -18 0 -8 20 -42 14 -67 -13 -14 -15 -37 -26 -60 -28
-47 -5 -51 -10 -65 -76 -14 -64 -7 -75 47 -76 20 0 42 -3 47 -7 6 -3 22 -8 37
-12 28 -6 44 -33 69 -111 7 -23 33 -61 64 -92 28 -29 64 -79 80 -110 27 -57
126 -162 153 -163 19 0 55 -23 70 -43 19 -25 56 -18 60 11 2 12 8 22 14 22 7
0 9 21 3 68 -4 37 -7 76 -7 87 0 11 -4 36 -10 56 -7 26 -6 57 6 120 24 126 22
163 -10 188 -15 12 -40 21 -55 21 -24 0 -29 4 -29 26 0 15 -12 36 -29 52 -16
15 -33 39 -36 55 -8 31 -25 37 -25 8 0 -17 -5 -19 -37 -14 -49 7 -53 12 -60
62 -4 31 -10 41 -24 41 -11 0 -19 5 -19 10 0 16 -17 12 -24 -6z m77 -246 c12
-9 19 -34 23 -79 l7 -67 -30 -6 c-16 -4 -42 -2 -56 3 -26 10 -27 13 -27 86 l0
75 33 0 c18 0 41 -6 50 -12z"/>

<path class="features" d="M15061 6719 c-5 -13 -13 -50 -16 -81 -6 -50 -9 -58 -27 -58 -34 0
-85 -61 -103 -125 -16 -55 -16 -65 -1 -164 19 -117 24 -471 11 -733 -6 -126
-5 -155 10 -200 17 -52 28 -172 44 -458 5 -104 12 -154 24 -177 l17 -32 -111
1 c-112 1 -137 -6 -126 -36 5 -13 28 -15 138 -15 72 0 133 -2 135 -4 2 -2 -2
-11 -9 -20 -18 -25 -135 -29 -148 -4 -7 13 -23 17 -60 17 -55 0 -66 -11 -50
-53 l10 -26 151 0 c83 0 160 4 170 9 63 31 57 43 62 -121 5 -157 13 -184 46
-163 15 10 17 27 14 140 -1 71 -5 154 -8 185 l-6 56 40 7 c22 3 45 13 52 21
11 14 14 13 24 -7 14 -28 53 -36 62 -14 3 9 14 16 23 16 24 0 91 72 91 97 0
29 -8 33 -79 34 -56 2 -61 3 -61 24 0 22 2 22 35 13 68 -22 86 38 37 126 -32
58 -58 78 -72 56 -7 -11 -10 2 -10 43 0 53 2 57 23 57 26 0 87 57 87 82 0 9
-14 29 -31 46 -18 18 -28 35 -24 42 4 7 7 79 7 160 -1 125 2 150 15 162 15 12
16 8 10 -37 -3 -27 -2 -70 1 -95 6 -40 10 -45 32 -45 25 0 25 1 31 105 4 58 8
166 10 240 4 129 3 135 -16 138 -11 1 -29 -4 -40 -12 -18 -13 -19 -25 -17
-137 2 -122 2 -123 -17 -102 -11 11 -21 36 -23 54 -3 31 -6 34 -35 34 l-33 0
0 140 c1 119 3 137 14 123 18 -25 27 -23 59 14 22 24 27 37 22 60 -4 17 -2 28
4 28 6 0 11 9 11 20 0 11 -4 20 -10 20 -5 0 -10 9 -10 20 0 29 -25 35 -63 17
-30 -15 -32 -15 -35 1 -20 120 -72 275 -104 309 -18 19 -20 32 -17 105 l4 82
-30 15 c-16 8 -51 16 -77 19 -42 4 -48 2 -57 -19z"/>
<path class="features" d="M16625 6503 c-11 -2 -42 -13 -70 -23 -27 -10 -75 -21 -106 -25 -51
-6 -98 -31 -99 -53 -9 -163 -8 -527 1 -564 9 -38 8 -69 -5 -150 -42 -280 -43
-365 -5 -525 18 -72 20 -121 22 -390 1 -169 1 -416 0 -548 -2 -232 9 -520 22
-598 4 -22 15 -42 26 -48 11 -5 81 -9 162 -9 78 1 150 -1 160 -5 9 -4 34 -4
55 -1 20 4 66 11 102 15 154 20 178 36 166 108 -4 21 -11 117 -16 213 -5 96
-16 285 -26 420 -9 135 -17 407 -19 605 -2 249 -6 371 -15 395 -7 22 -15 139
-19 307 -8 287 -11 303 -55 303 -43 0 -46 -15 -46 -196 l0 -172 -27 7 c-23 6
-29 15 -35 47 -3 21 -3 55 2 74 13 49 22 499 14 652 -8 160 -14 169 -105 167
-35 -1 -73 -3 -84 -6z"/>
<path class="features" d="M17466 5583 c-4 -4 -43 -6 -86 -4 -97 3 -116 -9 -105 -67 4 -20 9
-86 12 -147 4 -111 12 -135 43 -135 9 0 23 -12 30 -26 12 -21 20 -25 51 -23
25 2 44 -3 57 -14 23 -21 36 -21 52 -2 19 23 23 393 5 412 -15 14 -47 17 -59
6z"/>
<path class="features" d="M14055 5476 c-30 -13 -110 -98 -180 -189 -29 -39 -36 -56 -33 -85 3
-32 -1 -39 -32 -58 -70 -44 -80 -59 -80 -118 0 -30 -5 -58 -11 -62 -9 -5 -10
-55 -3 -188 5 -100 7 -242 5 -316 -2 -99 1 -142 11 -161 16 -31 16 -393 -1
-479 -5 -30 -12 -73 -13 -95 -2 -22 -4 66 -4 195 l-1 235 -36 57 c-53 82 -67
90 -157 82 -85 -6 -120 -19 -120 -45 0 -10 -13 -21 -32 -28 -47 -17 -68 -40
-68 -76 0 -63 57 -75 115 -23 20 17 46 32 58 32 l22 1 -1 -295 c-1 -162 2
-306 7 -318 5 -13 17 -26 27 -28 21 -6 42 -48 42 -85 0 -40 17 -79 35 -79 21
0 19 -20 -2 -20 -10 0 -26 -7 -37 -15 -17 -13 -18 -26 -14 -139 3 -104 7 -128
22 -145 22 -24 64 -27 92 -6 10 8 27 15 37 15 28 0 43 44 30 90 -9 35 -8 39
10 42 56 8 37 68 -22 68 -24 0 -31 4 -31 20 0 14 7 20 23 20 33 0 67 28 67 54
l0 23 45 -23 c25 -12 71 -45 101 -73 31 -28 63 -51 71 -51 13 0 13 -3 3 -15
-7 -8 -10 -22 -6 -30 4 -11 -1 -15 -18 -15 -33 0 -53 -25 -36 -45 7 -8 19 -15
27 -15 11 0 8 -6 -8 -19 -22 -17 -22 -19 -6 -35 12 -12 26 -15 50 -11 26 5 36
3 40 -9 8 -21 51 -21 68 0 15 18 17 138 9 539 -5 267 4 418 26 436 9 7 14 32
14 65 0 50 2 54 24 54 13 0 28 6 33 13 16 19 24 465 9 474 -8 6 -10 35 -6 106
5 84 9 101 26 115 36 29 52 241 22 280 -14 17 -38 15 -59 -4 -14 -13 -16 -26
-12 -69 3 -29 2 -66 -2 -82 l-8 -28 -9 30 c-5 17 -11 137 -13 269 -3 208 -6
241 -21 257 -20 22 -47 24 -89 5z"/>
<path class="features" d="M18151 5386 c-21 -23 -29 -92 -15 -142 8 -31 50 -49 109 -47 l52 2 7
-62 c9 -94 10 -205 2 -277 -6 -58 -5 -69 14 -93 25 -32 50 -34 75 -7 16 18 17
33 12 150 -7 121 -6 130 11 130 10 0 24 6 31 13 11 10 12 7 6 -13 -4 -14 -13
-30 -21 -36 -19 -15 -17 -43 5 -81 25 -40 54 -50 87 -28 l25 16 -7 122 c-4 67
-11 127 -16 134 -5 7 -36 15 -69 19 -45 5 -58 10 -57 23 5 39 -16 183 -26 186
-6 2 -54 6 -108 8 -90 5 -97 4 -117 -17z"/>
<path class="features" d="M14333 5046 c-27 -24 -28 -24 -9 -45 12 -13 31 -21 53 -21 25 0 33
-4 33 -18 0 -39 46 -56 71 -26 10 12 10 20 2 34 -10 15 -8 19 18 24 54 10 30
76 -28 76 -16 0 -34 -5 -40 -11 -8 -8 -13 -8 -17 0 -12 19 -54 12 -83 -13z"/>
<path class="features" d="M18102 4770 c-13 -6 -28 -23 -35 -39 -11 -25 -15 -28 -32 -18 -11 6
-26 19 -33 29 -17 23 -69 24 -101 2 -23 -17 -23 -17 -17 -188 10 -301 13 -349
30 -455 9 -57 21 -110 27 -117 15 -18 46 -18 56 0 4 8 8 -46 9 -120 0 -126 2
-135 24 -159 18 -19 34 -25 65 -25 49 0 65 13 66 55 1 29 1 29 8 5 5 -17 15
-26 33 -28 37 -4 49 23 48 110 0 40 3 118 8 173 4 55 4 163 0 240 -4 77 -8
217 -9 310 -1 192 -6 208 -64 219 -20 4 -42 9 -48 11 -7 2 -22 0 -35 -5z"/>
<path class="features" d="M14460 4617 c-25 -12 -25 -15 -26 -142 -1 -72 2 -135 8 -142 10 -13
5 -210 -8 -277 -8 -43 3 -56 49 -56 37 0 47 29 47 139 0 128 9 178 31 184 20
5 23 22 19 113 -1 28 4 60 10 70 8 13 9 35 3 69 l-8 50 -50 3 c-28 1 -61 -4
-75 -11z"/>
<path class="features" d="M19076 4153 c-4 -4 -122 -8 -263 -8 -232 0 -257 -2 -267 -17 -8 -14
-6 -22 11 -40 21 -21 30 -22 138 -19 l115 2 -6 -53 c-9 -76 0 -81 150 -89 66
-4 149 -10 184 -14 l62 -8 0 127 0 126 -58 0 c-32 0 -62 -3 -66 -7z"/>
<path class="features" d="M12862 4118 c-7 -14 -11 -78 -11 -168 2 -302 0 -343 -14 -331 -14 11
-32 204 -29 309 3 88 -51 113 -91 42 -18 -31 -19 -48 -14 -164 l6 -130 -30
-37 c-24 -31 -29 -46 -29 -93 0 -48 -3 -56 -19 -56 -39 0 -50 -34 -36 -118 6
-35 4 -47 -12 -65 -17 -18 -22 -42 -27 -124 -4 -63 -3 -104 3 -107 8 -6 41
-63 41 -73 0 -1 -9 -3 -20 -3 -22 0 -39 -28 -24 -39 5 -3 10 -19 11 -34 0 -16
8 -36 17 -46 9 -10 16 -25 16 -34 0 -9 4 -19 10 -22 5 -3 9 -21 7 -38 -2 -29
1 -32 30 -35 29 -3 34 1 48 35 12 29 13 44 6 61 -14 29 -14 102 -1 102 15 0
12 26 -5 40 -14 11 -13 14 4 26 11 8 22 29 26 47 9 48 35 105 48 104 71 -2 83
23 67 131 -9 53 -9 77 -1 85 6 6 11 48 11 96 0 46 2 82 4 80 2 -2 7 -58 11
-123 7 -126 15 -146 57 -146 30 0 48 17 48 46 0 12 6 27 14 33 17 14 27 97 15
128 -5 13 -15 23 -24 23 -10 0 -15 10 -15 28 0 15 -3 43 -6 62 -5 30 -2 36 18
45 l23 10 -3 225 c-3 133 -8 230 -14 238 -6 6 -32 12 -58 12 -38 0 -49 -4 -58
-22z"/>
<path class="features" d="M17122 3708 c-16 -16 -15 -36 3 -54 17 -18 21 -139 5 -149 -5 -3 -10
-31 -10 -61 0 -49 -2 -54 -22 -54 -12 0 -30 -7 -40 -16 -16 -16 -17 -31 -12
-198 l6 -181 36 -37 c42 -45 62 -47 106 -13 29 22 43 25 113 25 81 0 139 17
149 45 3 7 14 11 24 8 10 -3 27 0 39 6 17 9 21 21 21 59 0 26 3 71 6 100 6 49
8 52 35 52 15 0 31 5 34 11 4 5 17 14 30 19 22 8 24 14 23 94 0 50 -6 96 -14
111 -11 22 -11 25 5 25 25 0 43 24 39 52 -3 21 -9 23 -73 26 -87 4 -154 -15
-166 -46 -5 -13 -9 -43 -9 -67 0 -44 10 -55 50 -55 12 0 21 -10 25 -31 5 -24
2 -36 -16 -55 -12 -13 -31 -24 -40 -24 -22 0 -39 -29 -39 -66 0 -40 -22 -104
-35 -104 -7 0 -30 -16 -51 -35 -27 -25 -47 -35 -70 -35 -17 0 -50 -6 -72 -14
l-40 -15 -11 47 c-19 86 -23 130 -16 184 6 45 11 56 35 70 21 12 30 26 35 59
4 24 15 53 25 64 15 16 18 36 17 108 -1 49 1 91 6 94 14 9 7 42 -12 53 -27 14
-104 13 -119 -2z"/>
<path class="features" d="M14757 3500 c-11 -16 -13 -43 -9 -113 3 -51 8 -94 11 -97 4 -3 15
-16 24 -30 26 -38 24 -217 -4 -296 -12 -36 -23 -97 -26 -155 -8 -131 -7 -132
177 -155 36 -5 50 -2 69 14 22 17 26 32 38 138 9 91 16 384 11 459 -1 6 2 44
6 85 7 86 -3 117 -48 139 -41 19 -106 27 -106 12 0 -8 -6 -7 -16 3 -24 25
-109 22 -127 -4z"/>
<path class="features" d="M16773 3484 c-20 -15 -34 -20 -44 -13 -28 18 -69 10 -81 -15 -13 -31
-4 -58 19 -54 10 1 24 -1 31 -6 8 -5 18 -4 24 2 6 6 22 3 46 -8 24 -12 67 -19
122 -22 l85 -3 3 35 c2 19 8 41 14 48 8 9 8 19 -1 36 -12 21 -19 23 -101 23
-77 0 -92 -3 -117 -23z"/>
<path class="features" d="M14358 3450 c-7 -11 -20 -20 -28 -20 -21 0 -40 -20 -40 -42 0 -12 -8
-18 -23 -18 -33 0 -47 -18 -48 -64 0 -35 -2 -38 -9 -18 -5 12 -16 22 -23 22
-34 0 -42 -31 -46 -176 l-3 -144 -123 0 c-121 0 -123 0 -139 -26 -40 -59 1
-78 190 -88 l131 -8 22 37 c11 20 21 45 21 57 0 19 4 20 63 14 70 -8 79 -3 91
47 12 51 17 257 6 257 -5 0 -10 13 -10 28 0 22 7 31 33 43 28 12 32 18 31 51
-1 21 -7 44 -14 53 -18 22 -67 19 -82 -5z"/>
<path class="features" d="M13075 3397 c-10 -53 11 -278 27 -288 20 -13 44 -11 58 6 10 13 11
30 2 83 -6 37 -14 95 -17 129 -5 69 -21 103 -47 103 -11 0 -19 -11 -23 -33z"/>
<path class="features" d="M11753 3399 c-12 -4 -24 -20 -28 -38 -4 -21 -13 -31 -26 -31 -10 0
-26 -11 -35 -25 -15 -23 -15 -37 -5 -128 6 -56 8 -117 5 -135 -6 -32 -7 -32
-68 -32 -82 0 -105 -20 -108 -93 -1 -29 -3 -65 -3 -82 -2 -39 -14 -65 -30 -65
-17 0 -100 -47 -115 -65 -9 -10 -10 -32 -5 -70 6 -48 10 -57 33 -66 37 -14 70
3 88 46 8 19 19 35 26 35 18 0 37 33 38 63 0 27 1 28 43 22 60 -9 87 11 70 54
-6 18 -7 33 -2 37 5 3 9 30 9 60 0 43 3 54 16 54 14 0 16 -9 10 -72 -3 -40 -9
-93 -12 -117 -8 -53 12 -150 32 -158 8 -3 14 -10 14 -16 0 -6 7 -19 17 -29 15
-17 12 -18 -84 -18 -87 0 -102 -3 -122 -21 -15 -15 -22 -31 -20 -53 1 -17 -1
-56 -5 -87 -6 -45 -4 -64 10 -95 13 -27 15 -39 6 -42 -7 -2 -12 -12 -12 -22 0
-12 -10 -19 -37 -24 -56 -9 -60 -8 -66 15 -4 16 -12 20 -34 17 -23 -2 -31 -11
-42 -45 -22 -63 -9 -73 100 -73 83 0 88 -1 91 -22 2 -18 11 -24 35 -26 25 -3
35 2 49 23 l17 27 116 -4 c115 -3 116 -3 119 20 5 30 -14 52 -44 52 -17 0 -28
9 -36 26 -11 24 -16 25 -64 22 -44 -2 -54 0 -58 15 -5 19 -50 24 -61 7 -4 -6
-11 -7 -17 -4 -6 4 5 15 26 26 22 11 36 26 36 38 0 20 12 23 155 35 38 3 73
11 77 18 5 8 8 4 8 -9 0 -36 53 -45 104 -19 20 11 33 12 40 5 17 -17 64 -11
79 10 8 12 21 18 29 15 27 -11 49 29 46 81 -3 44 -6 49 -29 52 -14 2 -31 -4
-39 -12 -16 -20 -64 -20 -80 -1 -19 23 -90 16 -104 -10 -6 -11 -19 -31 -28
-44 l-18 -24 0 51 c0 28 -5 54 -11 58 -11 6 16 22 74 43 44 17 49 45 37 239
-14 237 -13 422 1 422 18 0 38 32 39 61 0 22 5 28 33 32 17 3 67 0 111 -5 56
-7 89 -7 115 1 20 6 56 14 81 19 39 7 45 11 48 35 6 49 -32 73 -67 44 -9 -8
-68 -21 -131 -30 -109 -15 -115 -15 -127 3 -7 10 -34 23 -60 29 -54 12 -218
12 -250 0z"/>
<path class="features" d="M13345 3100 c-77 -10 -112 -24 -120 -49 -9 -30 -1 -38 50 -45 36 -6
48 -13 60 -37 21 -40 70 -41 88 -1 6 15 20 36 29 46 10 11 18 26 18 33 0 16
-45 64 -57 62 -4 -1 -35 -5 -68 -9z"/>
<path class="features" d="M13202 2926 c-23 -23 -23 -25 -22 -259 0 -149 4 -246 11 -261 13 -28
57 -40 94 -26 49 18 60 66 60 255 0 94 -4 190 -8 215 -15 89 -83 127 -135 76z"/>
<path class="features" d="M13602 2784 c-13 -9 -22 -26 -22 -40 0 -14 -3 -24 -7 -22 -49 24 -63
32 -63 40 0 15 -67 8 -81 -9 -22 -25 -16 -320 6 -342 25 -26 101 -20 131 11
23 23 25 32 27 132 l2 107 160 -6 c209 -7 473 12 489 37 8 13 6 22 -9 39 -19
20 -25 21 -105 14 -47 -4 -107 -9 -135 -10 -27 -1 -69 -5 -92 -9 -36 -7 -43
-5 -53 13 -14 26 -46 27 -62 2 -17 -28 -73 -16 -117 26 -41 38 -40 38 -69 17z"/>
<path class="features" d="M12341 2596 c-6 -7 -22 -11 -36 -8 -14 2 -31 -1 -38 -7 -9 -7 -24 -8
-44 -2 -37 11 -122 -3 -142 -24 -12 -11 -12 -17 -2 -29 18 -22 67 -28 130 -17
59 9 73 3 83 -36 5 -20 2 -23 -26 -23 -38 0 -56 -15 -56 -47 0 -16 8 -27 26
-33 52 -20 87 -9 96 30 2 8 16 19 32 25 39 14 55 39 39 64 -11 18 -9 20 25 26
38 6 100 -17 150 -55 34 -27 117 -36 147 -16 22 14 26 14 54 -2 25 -14 34 -15
50 -5 13 8 22 9 26 3 10 -17 55 -11 62 8 3 9 15 24 26 33 25 21 17 69 -13 69
-10 0 -22 5 -25 10 -4 6 -15 8 -25 5 -10 -3 -21 -1 -25 5 -8 14 -56 12 -76 -3
-9 -7 -19 -25 -23 -41 -7 -27 -8 -27 -21 -10 -8 11 -15 26 -15 35 0 8 -5 20
-12 27 -16 16 -123 14 -168 -2 -32 -12 -36 -11 -45 8 -9 18 -21 21 -77 23 -45
2 -70 -2 -77 -11z"/>

<path class="detail" d="M15092 6238 c-19 -19 -14 -73 9 -94 12 -11 18 -26 15 -37 -2 -10 3
-27 12 -38 34 -39 66 -16 71 50 2 36 -2 48 -25 72 -15 16 -24 29 -20 29 4 0 1
7 -8 15 -18 18 -38 19 -54 3z"/>
<path class="detail" d="M16550 5795 c-7 -9 -15 -46 -18 -84 -3 -56 -1 -72 14 -90 43 -49 90
-6 93 86 2 51 -1 65 -18 82 -25 25 -54 27 -71 6z"/>
<path class="detail" d="M13963 5243 c-7 -2 -13 -13 -13 -24 0 -10 -3 -19 -7 -19 -14 0 -6
-171 8 -185 19 -17 76 -29 83 -17 3 6 15 8 26 5 27 -7 47 35 31 65 -6 11 -11
42 -11 67 0 55 -14 85 -39 85 -11 0 -21 7 -25 15 -5 15 -29 18 -53 8z"/>
<path class="detail" d="M15196 5128 c-21 -35 -16 -150 8 -177 21 -24 49 -27 64 -8 16 20 30
143 18 164 -25 46 -68 55 -90 21z"/>
<path class="detail" d="M13831 3986 c-11 -14 -13 -77 -4 -164 5 -54 34 -70 82 -46 29 15 31
19 31 74 0 56 -15 110 -30 110 -4 0 -10 9 -13 20 -6 24 -48 27 -66 6z"/>
<path class="detail" d="M16648 3885 c-2 -1 -64 -5 -138 -9 -74 -3 -136 -6 -137 -6 -2 0 -3
-7 -3 -15 0 -13 25 -15 168 -14 189 2 225 7 230 32 3 15 -4 17 -57 16 -33 -1
-62 -3 -63 -4z"/>
<path class="detail" d="M18057 3763 c-4 -3 -7 -15 -7 -27 0 -20 0 -20 -14 0 -8 10 -18 16
-22 11 -11 -11 -20 -97 -14 -137 5 -34 6 -35 50 -35 l45 0 -2 75 c-4 107 -13
137 -36 113z"/>
<path class="detail" d="M13997 3529 c-11 -6 -17 -20 -15 -32 1 -12 -1 -23 -6 -24 -17 -3 -26
-28 -26 -71 0 -32 4 -44 18 -48 9 -3 27 -11 40 -17 17 -8 28 -8 40 0 26 16 22
171 -4 190 -21 15 -24 16 -47 2z"/>
<path class="detail" d="M11750 3151 c-6 -12 -10 -53 -8 -94 l3 -72 36 -3 c22 -2 40 2 48 11
13 17 26 153 14 160 -5 3 -25 8 -45 12 -31 6 -38 4 -48 -14z"/>
<path class="detail" d="M11832 2875 c-16 -19 -11 -137 7 -159 7 -9 27 -16 42 -16 23 0 32 6
39 26 11 28 4 117 -12 147 -11 21 -58 22 -76 2z"/>
<path class="detail" d="M14742 2761 c-36 -7 -43 -21 -15 -32 17 -7 17 -8 1 -8 -10 -1 -18 -8
-18 -16 0 -13 17 -15 117 -13 82 2 118 7 121 16 2 6 -5 15 -15 20 -10 4 -18
14 -18 22 0 12 -15 15 -70 16 -38 1 -85 -1 -103 -5z"/>
</g>
</svg>
