<?xml version="1.0" standalone="no"?>
<!DOCTYPE svg PUBLIC "-//W3C//DTD SVG 20010904//EN"
 "http://www.w3.org/TR/2001/REC-SVG-20010904/DTD/svg10.dtd">
<svg version="1.0" xmlns="http://www.w3.org/2000/svg"
 width="1920.000000pt" height="1080.000000pt" viewBox="0 0 1920.000000 1080.000000"
 preserveAspectRatio="xMidYMid meet">
<style>
.cliff {
    fill:#2e1010;
}
.adventurer {
    fill:#4f2726;
} 
</style>
<g transform="translate(0.000000,1080.000000) scale(0.100000,-0.100000)"
fill="#000000" stroke="none">
<path class="cliff" d="M2040 8734 c-83 -21 -118 -24 -274 -24 -113 0 -217 -6 -285 -16 -135
-21 -288 -23 -419 -5 -71 9 -144 11 -230 6 -188 -10 -270 -8 -337 10 -48 13
-95 16 -240 12 -99 -3 -197 -8 -217 -12 l-38 -7 0 -4349 0 -4349 9600 0 9600
0 0 3418 0 3418 -62 -7 c-102 -13 -587 -30 -978 -34 -434 -5 -997 -20 -1350
-35 -273 -12 -509 -7 -682 15 -124 16 -164 9 -202 -36 -14 -16 -28 -46 -32
-66 -9 -46 9 -170 31 -216 9 -19 66 -84 126 -144 118 -117 177 -154 282 -174
l58 -12 -3 -65 c-3 -65 -3 -66 -37 -75 -46 -11 -79 -35 -96 -66 -11 -23 -30
-31 -152 -63 -173 -46 -160 -45 -213 -20 -57 27 -83 27 -137 1 -115 -56 -155
-204 -73 -273 17 -13 30 -27 30 -29 0 -2 -24 -8 -52 -11 -29 -4 -127 -25 -218
-46 -91 -22 -247 -51 -345 -65 -99 -14 -216 -32 -260 -40 -147 -26 -235 -36
-255 -30 -14 4 -20 15 -20 34 0 45 -30 120 -57 141 -42 33 -83 35 -149 7 -34
-15 -70 -23 -84 -20 -14 2 -82 -9 -150 -26 -69 -16 -186 -41 -260 -56 -74 -14
-162 -33 -195 -41 -53 -13 -323 -96 -361 -111 -9 -3 -14 1 -14 12 0 28 -55 73
-104 86 -39 10 -60 26 -144 114 -85 90 -105 105 -151 119 -66 19 -327 39 -406
31 -160 -17 -555 -77 -631 -95 -47 -11 -110 -23 -140 -26 -50 -6 -58 -4 -82
18 -15 14 -37 31 -49 37 -27 14 -93 14 -128 1 -15 -6 -87 -65 -161 -131 l-133
-121 -128 -18 c-180 -26 -477 -58 -614 -65 l-116 -6 -84 42 c-93 47 -154 55
-188 25 -22 -20 -22 -19 -45 51 -11 34 -28 61 -48 75 -52 40 -72 63 -106 125
-42 74 -281 352 -324 376 -47 25 -111 21 -208 -13 -47 -17 -121 -35 -164 -40
-91 -11 -253 -62 -290 -91 -27 -21 -51 -88 -41 -118 3 -9 -4 -60 -15 -112 -11
-52 -20 -107 -20 -123 l0 -29 -52 9 c-117 18 -468 -4 -975 -62 -343 -39 -360
-40 -399 -19 -39 20 -110 19 -245 -5 -63 -11 -150 -20 -194 -21 -44 0 -116 -4
-160 -8 -68 -6 -81 -5 -89 8 -5 9 -24 30 -42 46 -42 39 -78 148 -99 298 -8 62
-20 148 -26 192 -17 128 -19 135 -56 176 -45 50 -117 74 -176 58 -21 -6 -58
-27 -80 -49 -46 -41 -105 -70 -146 -70 -35 0 -152 -42 -188 -67 -15 -11 -66
-37 -113 -58 -47 -21 -120 -63 -163 -94 -131 -93 -128 -93 -209 -59 -77 31
-215 29 -368 -7 -63 -15 -151 -31 -195 -36 -44 -6 -119 -19 -166 -30 -76 -17
-95 -18 -157 -7 -61 10 -82 10 -139 -4 -108 -25 -209 -11 -361 50 -67 27 -158
60 -201 73 -71 22 -81 28 -97 59 -9 19 -21 76 -25 125 -5 50 -16 122 -26 162
l-16 72 36 148 c38 157 52 235 62 348 4 39 15 117 26 175 10 58 35 207 54 332
39 256 44 375 19 511 l-16 89 26 51 c22 45 24 57 16 89 -6 20 -22 46 -35 56
-31 24 -24 52 25 109 55 63 152 229 160 273 8 46 -5 141 -25 181 -17 32 -68
73 -105 84 -14 4 -41 21 -61 37 -20 16 -71 40 -113 54 -92 29 -194 31 -391 8
-71 -8 -170 -19 -220 -25 -49 -6 -184 -9 -300 -7 l-210 3 -100 47 c-55 26
-120 52 -145 57 -72 17 -168 11 -270 -15z"/>

<path class="adventurer" d="M888 10191 c-26 -21 -58 -81 -78 -146 -9 -28 -34 -62 -85 -111 l-72
-70 -7 -115 c-4 -63 -7 -130 -7 -149 0 -42 20 -120 32 -120 4 0 11 -10 15 -22
4 -13 23 -42 42 -66 l35 -43 -21 -112 c-12 -62 -22 -126 -22 -142 0 -28 -36
-145 -53 -172 -5 -7 -13 -40 -18 -74 -5 -34 -17 -76 -27 -93 -21 -41 -22 -76
-1 -89 16 -10 17 -21 5 -113 -6 -45 17 -74 58 -74 49 0 67 27 77 112 16 143
25 193 41 223 8 17 18 44 22 60 13 53 39 105 55 105 8 0 23 7 33 17 17 15 18
15 18 -4 0 -33 25 -46 78 -41 42 4 49 2 59 -18 6 -12 9 -39 7 -59 -2 -21 3
-50 11 -66 8 -15 15 -38 15 -51 0 -28 30 -108 41 -108 10 0 19 -45 20 -107 2
-81 33 -105 99 -80 8 3 32 8 53 11 50 7 92 48 77 77 -6 10 -20 19 -30 19 -36
0 -57 32 -55 85 1 26 -4 61 -12 77 -8 16 -15 46 -14 66 0 34 -4 53 -25 107 -4
11 -8 22 -8 25 -1 3 -7 23 -13 45 -7 22 -20 98 -28 168 -9 70 -24 151 -34 180
-35 97 -55 214 -42 236 4 6 15 -7 25 -32 26 -63 31 -71 54 -83 27 -13 112
-117 112 -136 0 -23 22 -38 56 -38 24 0 38 8 58 34 32 43 32 48 1 83 -53 59
-83 99 -89 120 -4 11 -20 36 -36 55 -16 18 -30 38 -30 44 0 6 -9 21 -20 34
-11 13 -21 29 -21 37 -2 15 -4 22 -12 43 -3 8 -8 36 -11 61 -10 84 -62 152
-138 180 -21 7 -38 16 -38 20 0 4 7 24 17 45 30 71 26 104 -19 147 -33 31 -47
37 -82 37 -28 0 -52 -7 -68 -19z"/>
<path class="adventurer" d="M2249 10148 c-38 -42 -39 -44 -40 -123 0 -44 -4 -100 -9 -125 -24
-118 -36 -167 -47 -186 -16 -27 -23 -95 -13 -114 5 -9 0 -40 -11 -74 -10 -33
-15 -64 -12 -69 5 -8 -29 -130 -47 -167 -10 -20 -24 -83 -22 -92 1 -5 -3 -8
-9 -8 -5 0 -8 -4 -4 -9 3 -5 1 -12 -4 -16 -5 -3 -10 -13 -10 -23 -1 -24 -7
-54 -15 -74 -4 -9 -5 -21 -3 -25 3 -5 2 -15 -2 -22 -13 -20 -22 58 -12 101 10
41 5 115 -8 151 -5 14 -23 40 -39 58 -39 46 -44 64 -23 83 18 16 21 42 8 63
-4 7 -5 22 -2 35 4 16 -3 33 -23 57 -25 30 -35 35 -85 39 -48 4 -57 8 -57 24
0 29 -27 76 -52 89 -19 10 -25 8 -43 -15 -18 -23 -23 -24 -40 -12 -11 7 -31
11 -45 9 -45 -6 -79 -3 -126 13 -86 29 -108 -3 -78 -114 22 -86 66 -174 100
-201 l26 -20 -26 -55 c-14 -30 -26 -70 -26 -88 0 -44 59 -160 88 -173 12 -5
22 -17 22 -25 0 -18 -29 -109 -41 -130 -23 -39 -29 -64 -21 -93 11 -41 24 -43
46 -6 10 17 20 29 22 26 10 -9 12 -107 3 -107 -6 0 -8 -4 -5 -9 4 -5 2 -11 -4
-13 -5 -1 -17 -34 -26 -71 -15 -58 -15 -74 -4 -105 20 -57 47 -82 92 -82 34 0
41 5 66 43 18 29 33 41 45 39 46 -9 49 18 22 191 -4 24 -2 44 6 53 6 8 8 14 3
14 -5 0 4 7 19 15 15 8 34 12 41 9 15 -6 41 -54 36 -69 -42 -136 -47 -180 -24
-214 16 -22 21 -23 78 -17 34 4 76 9 95 10 37 3 64 30 56 55 -2 9 -7 48 -10
86 -2 39 -9 84 -13 100 -5 17 -7 39 -4 50 2 11 5 38 7 60 1 22 10 63 20 90 9
28 19 59 21 70 9 57 45 186 64 230 12 28 22 59 23 70 1 11 10 31 18 45 9 14
19 47 23 74 3 27 8 52 11 54 3 3 14 -7 26 -22 33 -42 75 -33 135 26 l49 49 5
-108 c4 -96 3 -109 -12 -115 -13 -5 -18 -20 -19 -50 -3 -116 -9 -150 -35 -193
-29 -50 -27 -71 10 -84 22 -9 23 -13 15 -53 -4 -24 -8 -75 -9 -114 0 -39 -4
-84 -10 -100 -5 -16 -11 -49 -13 -74 -1 -25 -5 -50 -9 -55 -3 -6 -9 -40 -12
-76 -8 -73 6 -102 55 -113 55 -12 78 29 86 154 4 47 10 69 24 81 10 9 16 19
12 23 -3 3 -1 6 5 6 7 0 9 17 7 48 -7 78 20 254 41 269 38 28 45 17 78 -127 9
-36 18 -83 22 -105 7 -48 16 -89 39 -170 10 -33 19 -78 21 -100 9 -84 15 -105
37 -120 33 -23 71 -19 87 9 12 24 11 44 -9 121 -5 22 -13 92 -16 155 -3 63 -8
129 -10 145 -17 114 -18 156 -3 173 9 9 19 27 22 40 7 22 26 31 26 12 0 -16
53 -11 76 8 12 10 24 31 27 47 3 17 10 48 16 70 13 49 14 152 2 159 -13 9 -19
79 -9 100 16 30 20 78 10 100 -23 47 -35 94 -41 151 -5 51 -9 60 -27 63 -12 2
-27 16 -35 35 -12 28 -20 32 -56 35 -34 2 -43 7 -43 21 0 21 -26 46 -56 55
-17 5 -22 17 -27 62 -3 30 -11 61 -16 68 -6 7 -37 16 -68 19 -82 8 -90 -1 -92
-110 -2 -96 -13 -123 -38 -97 -9 9 -28 14 -47 12 -28 -3 -31 -6 -34 -43 -2
-22 -8 -44 -13 -49 -5 -6 -9 -22 -9 -37 0 -40 -38 -75 -77 -71 -28 3 -33 7
-33 31 0 15 -5 32 -11 38 -8 8 -7 19 4 39 8 16 19 65 26 109 6 44 23 130 37
192 15 61 24 118 21 127 -4 10 -18 16 -38 16 -24 0 -40 -10 -70 -42z"/>
</g>
</svg>
