<?xml version="1.0" standalone="no"?>
<!DOCTYPE svg PUBLIC "-//W3C//DTD SVG 20010904//EN"
 "http://www.w3.org/TR/2001/REC-SVG-20010904/DTD/svg10.dtd">
<svg version="1.0" xmlns="http://www.w3.org/2000/svg"
 width="512.000000pt" height="167.000000pt" viewBox="0 0 512.000000 167.000000"
 preserveAspectRatio="xMidYMid meet">
<style>
.outline {
    fill: #5e3231;
}
</style>
<g transform="translate(0.000000,167.000000) scale(0.100000,-0.100000)"
fill="#000000" stroke="none">
<path class="outline" d="M371 1643 c-1 -40 -11 -64 -22 -57 -10 6 -7 -25 4 -42 8 -14 6 -64
-3 -64 -3 0 -11 5 -18 12 -21 21 -22 2 -2 -20 19 -20 18 -26 -2 -23 -13 2 -8
-23 7 -43 8 -11 15 -29 15 -39 0 -20 0 -20 -21 -2 -20 19 -20 19 -10 -9 15
-37 14 -46 -4 -40 -20 8 -19 -15 2 -38 18 -20 4 -25 -15 -6 -21 21 -14 -11 8
-39 28 -35 25 -46 -15 -75 l-35 -25 31 -34 30 -34 -25 -3 c-41 -5 -44 -51 -6
-104 32 -43 28 -58 -9 -38 -17 8 -21 8 -21 -4 0 -8 4 -16 9 -18 5 -1 11 -12
13 -23 2 -16 -2 -19 -19 -17 -13 2 -23 -2 -23 -8 0 -23 30 -68 50 -73 24 -6
27 -27 4 -27 -8 0 -24 5 -35 10 -28 16 -25 -18 6 -64 28 -41 14 -49 -32 -19
-26 17 -27 17 -20 0 4 -10 7 -22 7 -27 0 -5 12 -22 26 -39 l25 -31 -33 15
c-18 8 -32 19 -31 25 2 5 -2 10 -8 10 -11 0 -7 39 7 75 6 17 5 18 -7 8 -13
-10 -15 -5 -13 41 1 39 -2 53 -12 53 -14 0 -17 -13 -18 -69 0 -16 -4 -28 -9
-28 -5 0 -3 -8 4 -17 12 -15 12 -16 -4 -10 -17 6 -23 -3 -10 -16 11 -12 12
-57 1 -57 -5 0 -7 -7 -4 -16 4 -10 1 -14 -6 -12 -7 3 -16 18 -19 34 l-7 29 -1
-32 c0 -17 -5 -34 -10 -37 -5 -3 -7 -19 -5 -36 2 -16 0 -30 -5 -30 -16 0 -18
-34 -4 -52 13 -14 12 -17 -6 -23 -12 -4 -18 -12 -14 -21 3 -7 0 -14 -5 -14 -6
0 -12 10 -14 23 -9 53 -32 -120 -35 -265 l-4 -158 2560 0 2561 0 0 153 c0 83
-5 159 -10 167 -8 12 -10 11 -10 -7 0 -15 -5 -21 -14 -17 -8 3 -12 12 -9 20 6
17 -1 18 -30 3 -21 -12 -21 -11 -4 8 21 24 23 40 2 23 -18 -15 -21 1 -5 31 7
13 7 19 1 19 -7 0 -7 9 -1 25 7 18 6 23 -4 19 -9 -4 -13 3 -11 20 2 14 -1 26
-6 26 -6 0 -8 4 -4 9 3 5 1 12 -4 15 -14 9 -21 -7 -23 -53 -1 -27 -6 -41 -15
-41 -12 0 -17 -13 -14 -32 0 -5 -3 -8 -8 -8 -4 0 -6 -10 -4 -22 3 -16 -3 -27
-16 -36 -17 -10 -21 -10 -21 2 0 8 8 17 17 20 15 6 15 8 3 16 -11 7 -15 30
-17 77 -1 79 -1 74 -12 92 -8 13 -12 13 -28 0 -16 -12 -17 -12 -7 1 5 8 9 25
8 38 -1 12 -2 31 -3 42 0 11 -8 20 -17 20 -8 0 -12 -5 -9 -10 3 -6 2 -10 -4
-10 -5 0 -8 -11 -7 -25 2 -13 0 -22 -4 -20 -4 3 -6 -18 -4 -46 3 -43 1 -50
-13 -45 -14 6 -13 3 2 -21 10 -16 12 -22 4 -16 -7 7 -19 13 -27 13 -12 0 -12
-3 -2 -15 9 -11 9 -15 1 -15 -7 0 -11 -6 -9 -13 2 -7 -1 -14 -7 -15 -5 -2 -13
12 -16 30 l-6 33 -3 -40 c-3 -38 -3 -39 -7 -8 l-4 33 -30 -15 -29 -15 24 54
24 54 -26 -14 c-34 -18 -41 -9 -13 17 25 23 45 68 35 78 -4 3 -9 1 -11 -5 -2
-7 -12 -10 -22 -7 -13 3 -17 11 -13 29 3 19 0 24 -17 24 -19 0 -20 2 -10 22
15 29 21 98 9 98 -6 0 -10 -4 -10 -10 0 -5 -4 -10 -10 -10 -5 0 -7 6 -5 12 2
7 7 32 9 56 3 23 8 47 12 54 5 8 2 9 -11 4 -15 -5 -16 -4 -5 9 8 10 9 15 1 15
-6 0 -11 15 -11 34 0 44 -17 56 -25 19 -4 -15 -11 -38 -16 -51 -6 -15 -5 -30
1 -42 14 -26 13 -30 -11 -30 -19 0 -19 -1 -5 -16 22 -21 21 -55 0 -47 -9 3
-20 0 -24 -7 -11 -18 8 -68 28 -73 15 -4 15 -5 -1 -6 -25 -1 -65 -40 -51 -49
6 -4 16 -17 22 -29 10 -18 9 -23 -8 -28 -19 -6 -21 -12 -24 -57 -1 -9 -4 -20
-8 -24 -5 -4 -8 -17 -8 -28 0 -22 45 -50 63 -39 6 3 7 1 3 -5 -12 -19 -65 -25
-81 -8 -8 8 -11 17 -6 20 13 8 11 58 -3 53 -6 -3 -12 3 -12 13 0 10 3 17 6 15
3 -2 6 18 6 45 0 27 -4 46 -8 44 -5 -3 -8 9 -7 28 2 38 -18 98 -22 63 -1 -11
-3 -29 -4 -40 -2 -11 -5 -32 -6 -47 -3 -28 -28 -40 -30 -15 -1 6 -4 -3 -8 -22
-3 -19 -12 -36 -19 -39 -11 -3 -12 0 -3 17 8 14 8 21 1 21 -5 0 -10 7 -10 15
0 8 -5 15 -11 15 -7 0 -5 10 5 25 10 16 12 25 5 25 -6 0 -9 7 -5 15 3 8 1 15
-5 15 -6 0 -7 4 -4 10 3 5 -1 22 -9 37 l-15 28 -1 -27 c0 -15 -4 -29 -9 -33
-6 -3 -8 -14 -6 -25 2 -13 -2 -20 -11 -20 -12 0 -13 -4 -3 -22 15 -27 14 -28
-2 -39 -10 -6 -10 -13 -1 -33 10 -22 9 -24 -5 -19 -13 5 -15 2 -11 -15 4 -14
2 -19 -7 -16 -15 6 -27 57 -18 81 5 12 3 14 -7 8 -10 -6 -12 0 -7 28 3 21 2
37 -3 37 -5 0 -2 12 6 28 19 36 18 53 -3 45 -12 -5 -15 -2 -10 10 4 10 2 17
-4 17 -6 0 -9 7 -5 15 3 8 -1 31 -8 52 l-13 37 -8 -29 c-5 -17 -7 -36 -6 -44
1 -7 -2 -10 -7 -7 -5 3 -14 -6 -20 -19 -7 -14 -17 -25 -24 -25 -9 0 -9 3 0 12
18 18 14 35 -9 41 -18 5 -19 8 -8 29 15 28 20 86 8 94 -5 3 -9 0 -9 -5 0 -6
-4 -11 -9 -11 -9 0 -7 67 4 100 3 11 3 20 -2 20 -5 0 -9 8 -10 18 -7 70 -33
122 -33 65 0 -15 -7 -40 -14 -55 -9 -16 -11 -30 -5 -33 16 -10 11 -45 -6 -39
-19 8 -19 -5 0 -30 8 -11 15 -27 15 -35 0 -14 -2 -14 -9 -2 -8 12 -12 12 -25
2 -23 -19 -20 -38 10 -68 18 -17 20 -24 8 -19 -11 4 -24 -1 -37 -15 -19 -20
-19 -23 -4 -48 14 -24 14 -28 -8 -56 -17 -21 -21 -33 -14 -42 6 -6 7 -18 3
-24 -5 -9 -11 -7 -21 6 -12 17 -13 15 -14 -21 -1 -21 -1 -45 0 -52 1 -8 -2
-19 -8 -26 -6 -7 -9 -22 -6 -34 2 -14 -1 -22 -11 -22 -8 0 -14 9 -14 20 0 13
-7 20 -20 20 -13 0 -18 5 -14 15 4 8 1 15 -5 15 -8 0 -9 5 -1 19 13 25 13 34
-1 25 -7 -4 -7 1 1 16 7 13 8 20 2 16 -7 -4 -14 9 -18 31 l-7 38 -13 -30 c-7
-16 -13 -40 -14 -52 0 -16 -4 -21 -15 -16 -13 4 -14 2 -4 -20 8 -17 8 -30 1
-43 -7 -14 -7 -26 0 -39 6 -11 7 -17 3 -13 -5 5 -23 -3 -41 -17 -34 -26 -54
-32 -54 -15 0 5 6 7 14 4 8 -3 21 8 33 29 l20 34 -23 -5 c-23 -4 -24 -4 -9 24
17 34 14 39 -17 24 -19 -10 -21 -10 -10 1 17 18 15 34 -2 20 -9 -7 -17 -8 -20
-3 -5 9 18 25 28 19 2 -1 16 11 30 26 39 42 33 63 -8 32 -32 -24 -39 -17 -11
10 30 31 34 56 5 30 -15 -14 -23 -16 -30 -7 -6 7 -7 10 -3 7 3 -3 15 3 25 12
18 16 18 17 -11 32 l-30 16 19 40 c28 58 26 83 -4 78 -27 -5 -28 1 -8 50 15
36 15 44 0 50 -10 3 -9 8 2 22 14 17 13 18 -2 12 -13 -4 -15 -2 -11 10 5 11 3
14 -6 9 -9 -6 -12 0 -10 23 2 17 -1 32 -6 33 -6 2 -11 -21 -13 -49 -2 -29 -7
-53 -11 -53 -4 0 -7 -20 -6 -44 0 -25 -3 -42 -7 -40 -15 10 -8 -29 9 -48 15
-17 14 -18 -18 -18 l-34 -1 23 -18 c12 -11 22 -24 22 -30 0 -6 8 -8 18 -4 9 3
2 -8 -15 -24 -37 -32 -41 -43 -17 -43 14 0 14 -3 4 -15 -7 -8 -17 -15 -23 -15
-6 0 -18 -7 -27 -15 -15 -13 -16 -12 -14 20 2 21 -1 33 -6 30 -6 -4 -10 10
-11 32 -1 38 -1 38 -10 9 -4 -17 -6 -45 -3 -64 6 -34 -11 -92 -27 -92 -5 0 -5
7 -2 17 4 10 2 14 -4 10 -8 -5 -10 6 -7 33 2 22 0 40 -5 40 -5 0 -11 8 -13 18
-3 9 -8 -2 -12 -25 -4 -24 -12 -43 -17 -43 -6 0 -7 -4 -4 -10 3 -5 1 -10 -5
-10 -8 0 -9 -10 -5 -29 5 -23 1 -31 -20 -45 -26 -17 -27 -17 -20 3 4 13 2 21
-6 21 -9 0 -8 4 1 15 10 12 10 15 0 15 -7 0 -10 8 -7 19 2 10 1 25 -4 32 -10
15 -11 8 -13 -85 -1 -36 -7 -61 -19 -74 -17 -18 -17 -20 5 -35 19 -13 20 -16
6 -16 -12 -1 -16 -7 -13 -22 4 -17 2 -19 -10 -9 -8 7 -15 21 -15 31 0 11 -4
19 -10 19 -10 0 -12 -13 -12 -73 -1 -15 -5 -27 -11 -27 -5 0 -3 -8 4 -17 10
-11 10 -14 2 -9 -16 9 -17 -16 -2 -31 9 -9 7 -11 -9 -6 -15 4 -19 11 -16 29 2
13 0 24 -6 24 -6 0 -8 5 -5 10 3 6 2 10 -3 10 -5 0 -8 14 -7 30 1 17 -2 30 -6
30 -5 0 -5 7 -2 17 4 9 2 14 -3 11 -5 -3 -9 13 -10 36 0 24 -4 51 -8 62 -8 18
-8 18 -17 -3 -4 -13 -7 -50 -4 -83 2 -41 0 -59 -8 -57 -7 1 -12 -8 -12 -20 0
-12 -4 -24 -8 -27 -4 -4 -5 -3 -2 1 3 3 0 11 -5 18 -5 6 -14 29 -19 51 -8 33
-9 35 -10 11 -1 -19 -5 -26 -13 -21 -8 5 -9 2 -5 -10 4 -9 0 -30 -8 -46 -8
-16 -11 -30 -6 -32 5 -2 13 -15 16 -30 l7 -28 -91 0 c-84 0 -91 1 -91 20 0 23
-10 26 -28 8 -7 -7 -12 -8 -12 -4 0 5 8 15 18 22 15 12 15 15 2 23 -10 7 -15
29 -16 73 -1 65 -13 108 -29 111 -6 1 -11 16 -11 32 -2 52 -4 55 -21 55 -9 0
-14 -3 -10 -6 3 -3 2 -16 -3 -29 -6 -15 -4 -27 3 -34 9 -9 8 -11 -4 -6 -12 5
-15 -2 -13 -34 1 -22 5 -44 9 -50 9 -15 -8 -14 -24 1 -11 11 -12 10 -6 -2 4
-8 15 -24 24 -35 10 -13 11 -16 1 -8 -16 15 -44 17 -35 4 3 -5 1 -13 -5 -16
-8 -5 -7 -11 1 -21 9 -11 8 -14 -5 -14 -11 0 -16 9 -16 29 0 40 -15 47 -18 9
-1 -17 -7 -38 -12 -48 -6 -10 -7 -26 -4 -34 3 -9 1 -16 -5 -16 -6 0 -8 -7 -5
-15 5 -12 -2 -15 -27 -15 -52 0 -76 26 -57 63 5 11 5 17 -2 17 -5 0 -10 9 -10
20 0 11 -5 20 -12 20 -7 0 -6 5 4 13 17 14 31 47 20 47 -4 0 -19 -8 -32 -17
-17 -12 -21 -13 -13 -3 6 8 12 29 14 45 2 17 7 36 12 43 7 8 4 12 -7 12 -11 0
-16 9 -16 26 0 16 -4 23 -11 18 -11 -6 -11 -4 7 56 6 23 6 24 -11 10 -17 -14
-17 -14 -6 7 6 13 8 23 3 23 -5 0 -7 13 -4 30 3 18 0 30 -7 30 -10 0 -15 -14
-12 -32 0 -5 -3 -8 -8 -8 -6 0 -8 -9 -6 -20 2 -11 -1 -20 -7 -20 -6 0 -5 -7 3
-17 12 -15 12 -16 -4 -10 -14 5 -16 2 -13 -18 3 -14 7 -29 11 -35 3 -5 1 -10
-5 -10 -7 0 -9 -7 -6 -16 4 -10 1 -14 -6 -12 -7 3 -15 15 -18 29 -5 18 -8 9
-14 -33 -4 -32 -11 -58 -16 -58 -11 0 -9 -41 3 -57 7 -10 3 -13 -13 -13 -16 0
-20 -4 -16 -15 6 -18 0 -19 -17 -5 -7 6 -21 17 -32 24 -19 14 -19 15 -1 35 17
19 17 21 3 21 -14 0 -17 11 -18 58 0 41 -3 51 -9 37 -5 -11 -6 -35 -3 -53 4
-28 2 -32 -16 -32 -25 0 -26 -7 -4 -32 16 -18 16 -18 -3 -11 -18 7 -18 6 -2
-19 17 -26 17 -27 -3 -33 -16 -6 -18 -9 -8 -22 10 -12 10 -16 0 -23 -10 -6
-10 -9 -1 -15 9 -6 9 -10 -1 -16 -8 -5 -17 -9 -21 -9 -14 0 -8 27 8 41 14 12
13 14 -7 21 -22 8 -22 9 -3 24 16 13 16 15 2 10 -19 -6 -34 9 -18 19 5 3 10
11 10 16 0 6 -4 7 -10 4 -6 -3 -10 -2 -10 4 0 5 8 15 18 20 16 10 16 10 0 11
-9 0 -20 5 -24 12 -4 6 -3 8 3 5 6 -4 18 2 28 13 10 11 13 20 7 20 -6 0 -14
-5 -17 -10 -5 -8 -11 -7 -21 1 -13 10 -12 14 2 30 11 12 13 19 5 19 -8 0 -9 5
-1 19 12 24 13 34 1 27 -5 -3 -9 4 -10 17 0 12 -1 42 -2 65 -2 59 -21 40 -21
-22 -1 -27 -5 -43 -11 -39 -6 4 -7 1 -1 -8 23 -38 6 -84 -33 -86 -25 -2 -26
-1 -10 11 17 14 23 27 10 25 -19 -3 -23 2 -13 21 9 16 8 18 -5 14 -11 -5 -13
-2 -9 10 3 9 10 13 15 10 5 -3 9 2 9 10 0 11 -6 13 -17 9 -17 -7 -17 -6 0 20
23 36 23 51 -3 37 -20 -11 -30 3 -10 15 6 3 10 11 10 16 0 6 -5 7 -12 3 -8 -5
-9 -2 -3 12 4 10 8 28 9 39 1 11 5 26 10 34 7 11 5 13 -7 8 -12 -5 -15 0 -12
24 2 16 7 34 10 39 4 6 -1 7 -12 3 -16 -6 -16 -5 -4 10 9 12 10 21 3 30 -5 6
-12 21 -15 32 -4 16 -5 14 -6 -7 0 -15 -6 -30 -11 -33 -6 -4 -8 -21 -4 -41 6
-30 4 -33 -12 -27 -17 6 -17 5 -5 -10 10 -13 10 -17 1 -17 -9 0 -8 -7 4 -25
21 -31 22 -52 2 -36 -12 10 -13 8 -9 -8 3 -12 1 -21 -6 -21 -9 0 -9 -5 -1 -20
9 -17 8 -19 -7 -13 -14 6 -13 2 5 -22 l23 -29 -28 -23 c-26 -21 -27 -24 -10
-37 21 -16 22 -26 3 -26 -25 0 -25 -39 1 -77 22 -33 22 -35 4 -19 -21 19 -21
19 -21 -12 0 -17 -5 -32 -11 -34 -9 -3 -9 -10 0 -26 9 -16 9 -22 0 -22 -7 0
-9 -10 -6 -25 2 -14 2 -23 -1 -20 -3 2 -12 -1 -20 -8 -13 -10 -14 -9 -7 3 12
19 16 70 6 70 -4 0 -5 14 -3 31 3 23 1 30 -7 24 -8 -4 -12 -2 -10 6 3 28 -4
113 -8 91 -2 -12 -8 -22 -12 -22 -4 0 -7 -20 -6 -44 0 -40 -2 -45 -25 -49 -22
-5 -23 -4 -7 8 9 7 17 15 17 19 0 12 -23 6 -42 -11 -17 -15 -18 -15 -18 5 0
12 6 22 14 22 7 0 19 6 25 14 10 11 8 16 -7 20 -19 7 -46 72 -32 81 12 7 5
138 -8 143 -7 2 -12 13 -12 25 0 20 -1 20 -27 -4 -15 -13 -21 -16 -14 -6 8 9
11 20 8 24 -4 3 -2 12 4 20 6 7 7 13 2 13 -5 0 -8 18 -6 40 2 22 -2 40 -7 40
-6 0 -10 7 -10 15 0 13 -2 13 -14 3 -7 -7 -11 -19 -9 -25 3 -7 0 -13 -7 -13
-9 0 -10 -3 -1 -14 9 -11 8 -15 -6 -21 -17 -6 -17 -7 1 -21 11 -7 17 -17 13
-20 -4 -4 -14 -1 -22 6 -14 12 -15 10 -9 -16 4 -16 12 -32 18 -36 7 -5 4 -8
-6 -8 -22 0 -22 -2 -4 -45 16 -37 4 -49 -22 -23 -6 6 -14 9 -17 6 -3 -3 8 -19
24 -37 32 -34 31 -37 -2 -19 -41 23 -62 17 -35 -10 9 -9 7 -13 -5 -18 -20 -7
-13 -22 17 -34 l21 -9 -22 0 c-32 -1 -28 -20 7 -35 17 -7 27 -15 23 -19 -3 -4
1 -7 10 -7 10 0 17 -4 17 -10 0 -5 -15 -10 -33 -10 -35 0 -78 24 -76 43 1 7 0
39 -1 72 l-2 60 -12 -35 c-7 -19 -12 -50 -10 -68 1 -17 -1 -32 -6 -32 -4 0 -6
-9 -3 -20 3 -12 0 -20 -6 -20 -7 0 -9 -4 -6 -10 3 -5 2 -25 -3 -44 -7 -23 -6
-38 1 -45 8 -8 8 -11 0 -11 -12 0 -33 52 -33 81 0 11 -7 19 -16 19 -14 0 -14
-3 -4 -15 11 -13 7 -15 -26 -15 l-39 0 30 25 c29 23 29 24 5 18 l-25 -6 20 23
c14 16 16 24 8 27 -9 3 -10 10 -3 24 9 15 7 19 -6 19 -13 0 -14 3 -4 15 10 12
9 15 -5 15 -14 0 -15 3 -5 15 8 10 9 15 1 15 -6 0 -10 15 -9 33 0 17 -1 50 -2
72 l-2 40 -10 -45 c-7 -35 -17 -50 -44 -68 -34 -22 -48 -16 -18 8 8 7 14 23
12 35 -1 12 3 30 11 39 12 14 11 16 -4 16 -14 0 -13 3 6 21 l24 20 -29 -6
c-23 -5 -27 -3 -23 9 4 11 0 16 -11 17 -10 0 -12 3 -4 6 6 2 12 12 12 20 0 9
-6 13 -14 10 -10 -4 -13 0 -10 14 2 10 6 28 8 38 3 11 10 29 16 40 11 21 -3
31 -15 11 -3 -6 -10 -10 -16 -10 -5 0 -4 9 3 20 9 14 10 23 2 28 -11 8 -12 51
0 70 4 7 1 12 -8 12 -12 0 -13 6 -5 32 10 37 12 54 4 46 -9 -9 -34 -112 -29
-120 3 -5 0 -8 -6 -8 -8 0 -8 -6 0 -20 9 -17 8 -19 -7 -13 -15 5 -16 3 -5 -8
17 -18 15 -30 -3 -23 -8 4 -15 1 -15 -5 0 -7 7 -14 15 -17 8 -4 15 -11 15 -16
0 -6 -7 -5 -15 2 -27 22 -30 1 -4 -26 l24 -27 -25 13 -24 13 17 -27 c17 -26
15 -52 -4 -41 -13 9 -11 -9 3 -23 17 -17 0 -28 -22 -14 -28 17 -25 -1 6 -32
28 -27 26 -33 -7 -16 -26 15 -26 -13 1 -47 30 -39 26 -53 -12 -42 -17 5 -34 7
-36 4 -3 -2 12 -20 32 -39 20 -20 36 -40 36 -46 0 -12 -2 -12 -34 0 -31 11
-34 0 -6 -25 30 -27 26 -45 -7 -36 -20 5 -30 16 -34 37 l-7 29 -2 -27 c-1 -16
-4 -32 -5 -38 -1 -5 -3 -17 -4 -25 -2 -24 -21 -17 -20 8 1 38 -13 107 -21 102
-4 -3 -8 -19 -8 -37 0 -73 -1 -75 -16 -55 -8 10 -14 34 -14 54 0 19 -5 39 -12
43 -6 4 -11 10 -11 14 1 3 1 14 0 24 0 13 -3 12 -11 -5 -12 -25 -16 -27 -37
-14 -18 11 -6 61 14 61 24 0 17 18 -7 22 -24 3 -23 -1 -27 117 -2 69 -14 40
-15 -36 -1 -64 -2 -68 -25 -71 -16 -3 -30 3 -39 15 -10 13 -16 14 -19 5 -3 -6
-9 -10 -14 -6 -5 3 -9 1 -9 -5 0 -5 5 -13 10 -16 6 -3 10 -13 10 -22 0 -12 -3
-13 -15 -3 -11 9 -19 8 -37 -4 -35 -25 -40 -19 -18 24 24 47 24 51 5 44 -11
-5 -13 -2 -8 12 4 12 3 15 -5 10 -15 -9 -15 -5 -2 30 8 21 8 29 -2 35 -10 7
-10 11 0 21 17 17 15 41 -4 34 -9 -3 -12 -2 -9 5 12 19 7 77 -8 99 -13 18 -15
19 -21 5 -3 -9 -4 -21 0 -26 3 -5 1 -9 -5 -9 -6 0 -8 -7 -5 -15 4 -8 1 -15 -6
-15 -7 0 -10 -7 -6 -15 3 -8 1 -15 -5 -15 -6 0 -9 -7 -5 -15 3 -9 0 -15 -9
-15 -20 0 -19 -19 3 -43 16 -19 16 -20 0 -14 -22 8 -23 -2 -2 -32 16 -22 16
-23 -5 -12 -26 14 -29 -3 -5 -30 15 -16 14 -17 -5 -12 -17 4 -20 2 -15 -13 4
-11 14 -28 23 -38 15 -18 15 -19 -2 -13 -10 4 -22 7 -25 7 -4 0 -19 10 -34 23
l-27 23 25 19 c31 23 31 39 -1 33 -27 -6 -35 9 -10 18 8 4 15 13 15 21 0 8 -3
12 -7 10 -5 -3 -9 11 -10 31 -1 21 -4 51 -6 67 -2 17 -4 38 -5 48 -1 9 -7 17
-13 17 -7 0 -8 -11 -4 -31 5 -22 4 -29 -4 -25 -11 7 -15 -6 -12 -33 2 -8 -2
-10 -10 -6 -12 8 -12 5 7 -64 6 -20 4 -22 -14 -17 -18 6 -20 4 -16 -20 3 -15
11 -39 20 -55 14 -27 13 -29 -11 -35 -27 -7 -31 -14 -15 -30 7 -7 4 -10 -12
-9 -32 2 -33 18 -3 54 15 17 24 32 21 32 -47 10 -78 39 -39 35 10 0 19 6 21
15 2 13 -3 15 -23 12 -28 -6 -33 8 -10 27 21 17 19 27 -6 33 -25 7 -16 27 11
27 10 0 22 4 25 10 3 6 -5 10 -19 10 -14 0 -28 5 -31 10 -3 6 -1 10 5 10 19 0
62 38 51 44 -5 4 -12 2 -16 -4 -10 -16 -42 -12 -49 7 -4 10 2 25 15 40 19 19
20 23 6 23 -21 0 -21 3 -2 40 16 31 9 40 -13 18 -18 -18 -15 4 4 31 14 19 14
25 3 32 -14 8 -15 18 -18 104 -1 30 -4 36 -11 25 -6 -8 -9 -30 -8 -48 2 -20
-3 -36 -12 -42 -10 -6 -11 -12 -3 -22 6 -7 10 -21 10 -30 0 -14 -3 -15 -14 -7
-9 8 -13 8 -13 1 0 -6 7 -15 16 -20 11 -6 14 -14 8 -23 -4 -8 -9 -33 -10 -57
-3 -52 -8 -59 -30 -41 -16 13 -16 12 -5 -9 19 -35 22 -112 5 -112 -8 0 -14 -4
-14 -9 0 -11 -31 -24 -38 -16 -3 3 9 18 26 35 35 33 42 54 15 46 -24 -8 -51 9
-29 17 20 8 21 37 1 37 -21 0 -19 17 5 30 28 15 25 30 -6 30 -24 0 -24 1 -10
22 22 30 20 41 -5 33 -18 -6 -20 -5 -10 14 7 12 16 21 20 21 5 0 11 7 15 15 4
12 0 14 -20 9 -24 -6 -25 -5 -15 14 6 12 16 24 21 27 6 3 10 18 10 32 0 25 -1
25 -25 9 -29 -19 -32 -6 -8 31 17 26 17 27 -1 20 -16 -6 -17 -4 -11 20 3 16
11 30 16 31 5 2 9 10 9 18 0 9 -4 12 -10 9 -15 -9 -12 18 5 42 14 20 13 21 -8
16 -16 -3 -18 -2 -8 5 9 7 10 11 2 17 -7 3 -10 14 -7 23 2 10 7 27 11 39 5 18
3 22 -9 17 -19 -7 -20 0 -6 27 7 13 7 19 0 19 -5 0 -9 3 -8 8 0 4 -2 14 -5 22
-3 8 -8 24 -10 35 -3 13 -5 8 -6 -12z m-21 -509 c0 -17 -22 -14 -28 4 -2 7 3
12 12 12 9 0 16 -7 16 -16z m-53 -110 c-3 -3 -12 -4 -19 -1 -8 3 -5 6 6 6 11
1 17 -2 13 -5z m161 -228 c-7 -8 -15 -12 -17 -11 -5 6 10 25 20 25 5 0 4 -6
-3 -14z m1392 -50 c0 -3 -4 -8 -10 -11 -5 -3 -10 -1 -10 4 0 6 5 11 10 11 6 0
10 -2 10 -4z m-814 -84 c-11 -10 -42 10 -42 28 0 19 1 19 23 -2 13 -12 21 -23
19 -26z m-278 -5 c3 -16 1 -17 -17 -7 -25 13 -28 33 -4 28 10 -2 19 -11 21
-21z m200 -6 c-2 -9 -12 -16 -23 -16 -11 0 -26 -4 -34 -9 -7 -5 -4 5 9 22 23
31 54 33 48 3z m2639 -13 c-3 -8 -6 -5 -6 6 -1 11 2 17 5 13 3 -3 4 -12 1 -19z
m-2557 -38 c0 -10 -60 -29 -65 -20 -3 4 2 13 11 20 11 10 12 15 3 20 -6 4 -8
13 -4 20 5 8 14 5 31 -11 13 -12 24 -25 24 -29z m1055 30 c3 -5 1 -10 -4 -10
-6 0 -11 5 -11 10 0 6 2 10 4 10 3 0 8 -4 11 -10z m-1325 -15 c0 -2 -7 -5 -15
-9 -9 -3 -15 0 -15 9 0 9 6 12 15 9 8 -4 15 -7 15 -9z m710 2 c0 -7 -9 -18
-21 -25 -17 -11 -20 -11 -13 0 20 36 34 46 34 25z m-551 -10 c-2 -1 -13 -9
-24 -17 -19 -14 -19 -14 -6 3 7 9 18 17 24 17 6 0 8 -1 6 -3z m-281 -28 c2 -5
9 -6 14 -3 6 4 8 3 5 -2 -3 -6 -21 -11 -40 -12 -31 -2 -35 0 -30 18 4 16 11
19 27 14 11 -4 23 -11 24 -15z m3350 -20 c1 -9 -6 -15 -18 -16 -11 -1 -20 4
-20 11 0 29 32 33 38 5z m-3044 -5 c3 -9 4 -20 1 -24 -9 -15 -35 1 -35 21 0
23 25 25 34 3z m-819 -4 c3 -5 2 -10 -4 -10 -5 0 -13 5 -16 10 -3 6 -2 10 4
10 5 0 13 -4 16 -10z m4282 -22 c-3 -7 -5 -2 -5 12 0 14 2 19 5 13 2 -7 2 -19
0 -25z m-2218 -38 c-1 -10 -2 -11 -6 -2 -2 6 -11 12 -19 12 -12 0 -13 4 -3 22
12 22 12 22 20 3 4 -11 8 -27 8 -35z m1201 40 c0 -5 -8 -10 -17 -10 -15 0 -16
2 -3 10 19 12 20 12 20 0z m-905 -10 c3 -6 -1 -7 -9 -4 -18 7 -21 14 -7 14 6
0 13 -4 16 -10z m-2275 -46 c-18 -21 -24 -10 -8 15 7 12 14 17 16 11 2 -6 -2
-17 -8 -26z m3670 15 c0 -11 -4 -18 -10 -14 -5 3 -7 12 -3 20 7 21 13 19 13
-6z m-3752 -7 c2 -7 -2 -10 -12 -6 -9 3 -16 11 -16 16 0 13 23 5 28 -10z m635
1 c-7 -2 -19 -2 -25 0 -7 3 -2 5 12 5 14 0 19 -2 13 -5z m-128 -15 c5 4 5 1 1
-6 -6 -10 -11 -10 -22 -1 -8 6 -14 14 -14 16 0 3 6 0 13 -6 8 -6 18 -7 22 -3z
m305 -22 c-14 -14 -24 0 -16 21 6 15 8 15 16 3 6 -9 5 -19 0 -24z m750 -5 c13
-11 12 -12 -6 -3 -12 7 -24 19 -28 29 -5 16 -4 16 7 3 7 -8 19 -21 27 -29z
m800 19 c0 -5 -7 -7 -15 -4 -8 4 -12 10 -9 15 6 11 24 2 24 -11z m-1270 -5 c0
-9 -6 -12 -16 -8 -13 5 -13 7 -2 14 17 11 18 11 18 -6z m64 -11 c3 -9 -1 -14
-12 -14 -10 0 -18 8 -19 19 -2 22 22 19 31 -5z m890 11 c-25 -19 -40 -19 -24
0 7 8 20 15 28 15 13 0 12 -3 -4 -15z m1733 -7 c-3 -8 -6 -5 -6 6 -1 11 2 17
5 13 3 -3 4 -12 1 -19z m-27 -8 c0 -5 -8 -10 -17 -10 -15 0 -16 2 -3 10 19 12
20 12 20 0z m-3650 -4 c0 -2 -8 -10 -17 -17 -16 -13 -17 -12 -4 4 13 16 21 21
21 13z m3160 0 c0 -3 -4 -8 -10 -11 -5 -3 -10 -1 -10 4 0 6 5 11 10 11 6 0 10
-2 10 -4z m381 -17 c9 -18 8 -20 -9 -15 -11 4 -23 2 -27 -4 -3 -5 -14 -10 -23
-10 -13 1 -9 7 13 25 17 14 31 25 32 25 1 0 7 -9 14 -21z m-2201 3 c0 -12 -23
-32 -37 -32 -9 0 -8 6 4 20 18 21 33 26 33 12z m2690 0 c0 -4 -10 -13 -22 -21
-23 -14 -23 -14 -4 8 20 22 26 25 26 13z m-4150 -52 c0 -5 -2 -10 -4 -10 -3 0
-8 5 -11 10 -3 6 -1 10 4 10 6 0 11 -4 11 -10z m1155 0 c3 -5 1 -10 -4 -10 -6
0 -11 5 -11 10 0 6 2 10 4 10 3 0 8 -4 11 -10z m450 -6 c9 -9 13 -19 10 -22
-3 -3 -14 4 -25 16 -24 25 -10 30 15 6z m3103 -21 c11 -11 9 -13 -11 -13 -29
0 -66 35 -45 43 13 4 28 -4 56 -30z m-2341 21 c-3 -3 -12 -4 -19 -1 -8 3 -5 6
6 6 11 1 17 -2 13 -5z m300 -14 l26 -20 -32 0 c-17 0 -31 2 -31 4 0 2 -3 11
-6 20 -8 22 13 20 43 -4z m1728 10 c-3 -5 -12 -10 -18 -10 -7 0 -6 4 3 10 19
12 23 12 15 0z m-3287 -25 c-3 -3 -9 2 -12 12 -6 14 -5 15 5 6 7 -7 10 -15 7
-18z m1162 -1 c0 -2 -7 -4 -15 -4 -8 0 -15 4 -15 10 0 5 7 7 15 4 8 -4 15 -8
15 -10z m-460 2 c0 -2 -7 -7 -16 -10 -8 -3 -12 -2 -9 4 6 10 25 14 25 6z
m-360 -25 c0 -12 -28 -22 -34 -12 -3 5 -3 11 1 15 9 9 33 7 33 -3z"/>

</g>
</svg>
