<?xml version="1.0" standalone="no"?>
<!DOCTYPE svg PUBLIC "-//W3C//DTD SVG 20010904//EN"
 "http://www.w3.org/TR/2001/REC-SVG-20010904/DTD/svg10.dtd">
<svg version="1.0" xmlns="http://www.w3.org/2000/svg"
 width="1200.000000pt" height="400.000000pt" viewBox="0 0 1200.000000 400.000000"
 preserveAspectRatio="xMidYMid meet">
<style>
.outline {
    fill: #7d4140;
}</style>
<g transform="translate(0.000000,400.000000) scale(0.100000,-0.100000)"
fill="#000000" stroke="none">
<path class="outline" d="M11903 2613 c-16 -6 -17 -37 -3 -63 8 -15 6 -24 -10 -40 -22 -22 -26
-45 -9 -55 7 -5 3 -14 -11 -27 -15 -14 -20 -27 -16 -43 4 -14 0 -29 -9 -38 -8
-8 -11 -17 -8 -21 4 -3 1 -6 -5 -6 -19 0 -14 -35 7 -54 24 -22 17 -64 -13 -68
-18 -3 -21 -9 -19 -43 4 -59 9 -65 48 -65 36 0 46 -13 22 -27 -22 -13 -29 -43
-12 -49 8 -4 15 -15 15 -26 0 -19 -1 -19 -40 3 -22 12 -38 25 -35 27 3 3 -4
12 -16 20 -15 10 -17 17 -9 27 8 9 8 15 0 20 -5 3 -10 17 -10 30 0 37 -58 87
-96 83 -30 -4 -31 -2 -21 20 9 20 7 26 -18 46 -19 15 -42 23 -68 23 -34 0 -40
-3 -49 -28 -8 -23 -16 -29 -40 -29 -16 0 -38 -5 -49 -10 -25 -14 -25 -50 1
-57 11 -3 17 -9 15 -14 -7 -11 -38 1 -48 18 -4 7 -15 13 -22 13 -8 0 -15 7
-15 15 0 8 -10 20 -22 26 -33 18 -72 -36 -88 -121 l-13 -67 -28 28 c-16 16
-29 34 -29 41 0 7 -13 24 -30 38 -16 14 -30 30 -30 37 0 6 -9 15 -21 18 -22 7
-52 -20 -44 -42 2 -7 -6 -10 -23 -8 -15 2 -30 4 -34 4 -5 1 -8 10 -8 21 0 11
-7 23 -16 27 -8 3 -13 12 -10 19 3 8 1 14 -4 14 -5 0 -11 9 -15 19 -3 11 -21
26 -39 35 -18 9 -39 22 -46 31 -14 16 -36 20 -42 7 -4 -13 -58 -24 -58 -13 0
17 -66 78 -84 78 -11 0 -24 -13 -32 -33 -8 -18 -18 -36 -24 -39 -6 -4 -8 -10
-5 -15 3 -4 -2 -10 -10 -14 -8 -3 -15 -12 -15 -20 0 -9 -9 -20 -20 -26 -27
-14 -25 -46 4 -75 14 -14 20 -27 15 -32 -5 -5 -11 -19 -14 -31 -2 -12 -8 -30
-14 -39 -10 -17 -10 -17 -11 0 0 10 -22 40 -48 66 -27 27 -52 56 -55 65 -11
29 -42 15 -45 -21 -2 -23 -7 -30 -17 -26 -23 8 -51 -26 -38 -46 7 -12 7 -20
-2 -28 -10 -9 -19 -6 -42 14 -15 15 -28 31 -28 35 0 13 -47 48 -64 48 -8 0
-22 -7 -32 -15 -15 -14 -18 -14 -33 1 -12 11 -15 26 -12 45 4 16 9 42 12 58 6
34 -20 55 -58 46 -19 -5 -28 2 -48 35 -29 47 -43 50 -67 13 -9 -16 -18 -30
-20 -32 -1 -2 -9 2 -17 8 -8 7 -25 11 -38 9 -35 -5 -34 -40 1 -79 28 -30 29
-34 13 -45 -9 -6 -26 -13 -36 -15 -30 -6 -43 -34 -24 -52 9 -9 18 -14 21 -11
2 3 16 2 30 -1 30 -8 26 -32 -6 -37 -13 -2 -23 -13 -27 -27 l-6 -25 -21 23
c-27 29 -57 24 -61 -11 -2 -18 -11 -28 -27 -32 -27 -7 -42 -41 -27 -59 7 -8 6
-20 -3 -36 l-13 -24 -6 21 c-4 12 -10 22 -14 23 -59 9 -93 7 -106 -6 -13 -13
-15 -12 -18 7 -5 34 -34 34 -52 1 -11 -20 -15 -23 -16 -10 0 10 -6 20 -14 23
-25 10 -49 -12 -53 -47 -4 -41 -9 -46 -33 -31 -11 7 -27 12 -35 12 -9 0 -13 5
-10 10 10 16 -23 43 -45 37 -14 -4 -20 0 -21 11 -2 59 -28 89 -60 71 -14 -7
-17 -17 -13 -33 6 -26 -21 -45 -40 -26 -5 5 -16 10 -24 10 -18 0 -45 -27 -38
-39 3 -5 -10 -25 -29 -45 -19 -21 -35 -43 -35 -50 0 -7 -11 -22 -25 -32 -28
-21 -32 -39 -11 -47 20 -8 6 -61 -17 -65 -21 -4 -48 56 -36 80 5 9 9 26 9 37
0 20 -4 23 -40 25 -8 1 -19 15 -23 31 -14 46 -23 60 -38 61 -28 1 -40 -18 -33
-54 9 -46 -13 -40 -41 11 -32 59 -78 44 -68 -22 3 -20 2 -32 -3 -28 -4 4 -20
-15 -34 -44 l-27 -52 0 49 c0 28 -5 50 -11 52 -7 2 -10 8 -6 13 3 5 -2 16 -10
25 -9 8 -16 12 -16 7 -1 -4 -10 11 -20 34 -19 40 -49 61 -70 48 -5 -3 -10 -11
-10 -17 0 -5 -9 -23 -21 -39 -17 -24 -19 -32 -8 -45 9 -11 9 -18 1 -26 -6 -6
-8 -17 -5 -25 3 -8 0 -13 -8 -11 -7 2 -18 -12 -25 -32 -19 -57 -55 -48 -57 16
-2 32 -6 39 -27 45 -14 4 -20 8 -15 8 6 1 2 6 -7 12 -10 5 -18 21 -18 35 0 14
-7 27 -17 31 -28 10 -53 35 -53 53 0 9 -8 24 -17 33 -26 23 -47 3 -69 -66 -18
-54 -34 -74 -34 -42 0 8 -4 15 -9 15 -4 0 -12 15 -17 33 -13 42 -35 41 -56 -3
-13 -28 -17 -31 -18 -14 0 21 -17 34 -45 34 -15 0 -45 -54 -45 -81 0 -10 -4
-21 -10 -24 -5 -3 -10 -12 -10 -20 0 -8 -16 -31 -35 -52 -32 -35 -35 -36 -35
-15 0 12 -6 25 -12 27 -8 3 -14 25 -15 52 0 29 -7 51 -16 58 -8 6 -17 22 -19
35 -4 35 -33 38 -36 4 -1 -14 -11 -33 -23 -43 -19 -15 -20 -18 -5 -30 23 -19
20 -27 -11 -26 -24 0 -28 -4 -28 -27 1 -15 -4 -29 -11 -32 -15 -6 -51 43 -62
85 -15 58 -72 44 -72 -18 0 -32 -33 -90 -48 -85 -7 2 -18 -1 -25 -6 -9 -8 -20
-5 -37 8 -14 11 -32 20 -40 20 -24 0 -63 -48 -57 -70 6 -23 -8 -27 -17 -5 -3
8 -15 15 -26 15 -11 0 -20 7 -20 15 0 8 -9 15 -20 15 -11 0 -20 -7 -20 -15 0
-23 -31 -66 -42 -59 -5 3 -1 12 9 19 15 12 16 17 5 34 -8 14 -9 21 -1 21 7 0
8 11 4 30 -4 19 -2 36 5 45 20 24 4 45 -32 43 -29 -3 -33 0 -43 35 -19 68 -64
74 -86 12 -9 -23 -21 -38 -36 -41 -32 -8 -44 -27 -48 -74 -1 -23 -5 -44 -9
-47 -3 -4 -6 -16 -6 -29 0 -12 -7 -24 -15 -28 -17 -6 -20 -42 -5 -51 8 -5 7
-11 0 -20 -7 -8 -10 -27 -8 -44 2 -22 -4 -35 -23 -50 -15 -11 -30 -17 -33 -13
-4 4 -13 0 -19 -9 -7 -8 -20 -18 -29 -22 -11 -4 -18 -17 -18 -32 0 -14 -6 -26
-12 -26 -7 -1 -23 -3 -34 -4 -14 -1 -27 7 -38 26 -10 16 -23 29 -29 29 -7 0
-18 9 -24 19 -10 15 -9 22 2 31 20 17 19 37 -3 44 -12 4 -18 16 -17 34 0 43
-34 36 -62 -13 l-23 -40 0 40 c0 22 -4 45 -8 50 -15 21 -52 4 -52 -24 0 -12
-7 -17 -22 -17 -17 1 -24 -5 -26 -21 -2 -13 -9 -23 -15 -24 -7 -1 -21 -2 -32
-3 -12 0 -21 -9 -23 -22 -2 -16 -8 -20 -27 -16 -19 3 -25 -1 -31 -22 -3 -14
-4 -33 0 -41 4 -10 -1 -15 -15 -15 -24 0 -36 -25 -20 -43 8 -11 6 -13 -12 -13
-28 1 -38 15 -26 38 14 26 1 41 -27 34 -27 -7 -32 5 -9 24 17 14 20 36 5 45
-5 3 -26 -4 -47 -15 l-38 -20 -3 82 c-2 46 -7 87 -12 92 -18 18 -40 -15 -40
-63 0 -52 -13 -83 -24 -56 -9 24 -51 16 -51 -10 0 -11 -4 -23 -10 -27 -5 -4
-10 -13 -10 -20 0 -9 -13 -12 -39 -10 -27 2 -42 -2 -53 -15 -13 -16 -14 -14
-8 22 19 122 19 114 -6 124 -28 10 -39 -1 -39 -40 0 -34 -7 -40 -35 -29 -18 7
-25 4 -35 -15 -7 -13 -9 -29 -5 -36 5 -7 4 -10 -3 -6 -5 4 -24 -1 -41 -10 -43
-25 -56 -9 -36 46 16 48 13 61 -15 61 -21 0 -40 -28 -40 -60 0 -13 -9 -24 -26
-30 -36 -14 -39 -13 -20 9 13 14 15 24 8 37 -7 13 -4 22 17 40 21 19 24 26 15
41 -7 10 -19 17 -29 16 -13 -1 -10 6 12 29 26 28 27 30 10 43 -16 11 -16 14
-2 28 30 31 12 67 -24 48 -16 -9 -18 -8 -14 8 3 10 0 22 -7 26 -8 5 -8 10 0
20 15 19 2 38 -21 32 -13 -3 -19 1 -21 17 -2 11 -10 20 -17 18 -8 -2 -11 3 -8
13 4 8 2 15 -3 15 -5 0 -18 9 -29 21 -12 13 -24 18 -32 13 -7 -4 -3 7 10 24
27 38 19 56 -20 48 l-30 -6 6 49 c4 36 2 51 -10 61 -20 17 -45 -3 -45 -36 0
-16 -10 -28 -31 -40 -24 -12 -30 -21 -27 -38 4 -19 1 -22 -19 -18 -35 7 -39
-22 -8 -62 26 -34 22 -52 -9 -40 -18 7 -50 -21 -41 -36 4 -6 3 -10 -2 -9 -17
4 -43 -14 -43 -29 0 -9 12 -26 28 -39 l27 -22 -22 -16 c-25 -18 -30 -54 -11
-73 9 -9 7 -12 -10 -12 -23 0 -28 22 -24 91 1 15 -5 32 -13 39 -9 8 -15 30
-15 59 0 25 -4 52 -9 60 -14 22 -41 5 -41 -26 0 -15 -9 -39 -20 -53 -11 -14
-20 -32 -20 -40 0 -24 -34 -130 -42 -130 -4 0 -5 6 -2 13 7 19 -22 83 -41 91
-9 3 -13 11 -9 17 3 6 1 22 -7 35 -11 21 -10 26 6 38 17 12 17 16 6 30 -8 9
-20 15 -28 12 -8 -4 -11 -1 -8 5 10 15 -23 79 -40 79 -8 0 -15 6 -15 14 0 7
-7 20 -16 27 -14 11 -18 11 -28 -2 -6 -8 -19 -18 -28 -22 -12 -4 -18 -17 -18
-36 0 -20 -7 -34 -20 -41 -11 -6 -20 -18 -21 -28 0 -14 -2 -14 -9 3 -4 11 -6
30 -3 42 3 15 0 25 -10 28 -11 5 -13 17 -10 48 4 31 1 46 -11 56 -21 17 -46
-1 -46 -34 0 -16 -8 -25 -24 -29 -25 -6 -27 -18 -11 -58 4 -11 3 -18 -4 -18
-6 0 -11 -8 -11 -17 0 -10 -14 -27 -31 -38 -21 -14 -29 -26 -26 -41 2 -13 -4
-26 -15 -33 -10 -6 -16 -16 -13 -21 4 -6 -1 -13 -9 -16 -21 -8 -20 -43 0 -65
15 -16 14 -17 -5 -12 -12 3 -21 1 -21 -5 0 -5 -9 -12 -20 -15 -12 -3 -20 -14
-20 -25 0 -25 -26 -36 -34 -15 -4 9 -14 13 -26 10 -27 -7 -36 30 -20 77 12 39
6 76 -13 76 -7 0 -22 -7 -33 -15 -12 -8 -24 -11 -28 -8 -10 10 -7 48 5 60 19
19 2 46 -24 41 -20 -4 -23 -1 -19 18 4 24 -21 59 -37 50 -14 -9 -31 19 -39 65
-6 34 -12 44 -26 44 -20 0 -32 -16 -40 -55 -3 -14 -18 -39 -35 -57 -16 -17
-27 -34 -24 -37 3 -2 -9 -19 -27 -36 -24 -23 -31 -38 -27 -56 3 -19 1 -23 -12
-19 -9 2 -29 -6 -45 -18 -25 -20 -27 -26 -17 -45 14 -25 -2 -58 -31 -65 -10
-3 -18 -14 -18 -25 0 -12 -4 -23 -8 -26 -13 -8 -43 51 -44 85 -1 21 -10 36
-32 52 -38 27 -47 28 -67 6 -14 -17 -16 -16 -28 2 -6 11 -9 29 -6 40 4 13 1
21 -11 26 -20 7 -44 -21 -44 -52 0 -16 -6 -21 -22 -21 -18 1 -24 -5 -26 -26
-2 -18 -9 -28 -19 -28 -24 0 -43 -31 -32 -52 8 -14 6 -16 -7 -11 -9 3 -20 0
-24 -7 -11 -18 -33 -1 -27 21 3 11 0 25 -7 32 -7 7 -12 20 -10 30 1 9 -2 17
-7 17 -5 0 -9 6 -9 14 0 7 -7 27 -15 42 -8 16 -15 37 -15 46 0 31 -20 30 -50
-3 -16 -18 -30 -46 -32 -63 -2 -19 -8 -30 -16 -28 -7 1 -15 -11 -19 -28 -3
-17 -10 -33 -14 -36 -5 -3 -9 -15 -9 -27 -1 -20 -2 -20 -11 -4 -5 9 -17 17
-25 17 -12 0 -11 6 6 30 22 31 24 77 3 73 -7 -2 -20 13 -29 33 -14 30 -15 40
-5 56 14 22 0 48 -25 48 -7 0 -18 18 -24 40 -6 22 -15 38 -19 35 -9 -5 -25 31
-22 49 3 18 -11 46 -24 46 -9 0 -12 6 -9 15 8 20 -21 46 -41 39 -15 -6 -17 0
-14 42 5 88 -24 111 -57 47 -10 -21 -22 -39 -26 -41 -5 -2 -8 -10 -8 -18 0 -8
-9 -22 -20 -31 -11 -10 -20 -25 -20 -35 0 -9 -7 -23 -15 -31 -8 -8 -11 -17 -8
-20 6 -7 -55 -87 -65 -87 -4 0 -15 19 -24 41 -13 31 -15 46 -7 61 12 22 4 52
-11 43 -6 -4 -8 5 -4 23 4 19 1 32 -10 41 -9 7 -13 17 -10 22 3 5 0 17 -6 28
-7 13 -7 22 0 26 17 10 11 33 -10 40 -11 3 -20 11 -20 18 0 18 -52 67 -71 67
-14 0 -19 10 -21 48 -3 40 -6 47 -25 50 -25 4 -48 -29 -40 -59 3 -12 0 -19 -9
-19 -8 0 -14 -6 -14 -12 0 -7 -9 -2 -19 11 -21 28 -51 23 -51 -9 0 -11 -5 -20
-11 -20 -5 0 -7 -5 -4 -10 3 -6 -5 -14 -19 -20 -14 -5 -26 -17 -26 -25 0 -9
-9 -25 -20 -37 -11 -12 -20 -32 -20 -45 0 -13 -4 -23 -10 -23 -11 0 -11 0 -15
50 -2 19 -3 41 -4 48 -1 8 -18 30 -39 51 -29 28 -36 43 -34 66 1 17 -2 36 -6
43 -12 18 -42 4 -42 -19 0 -13 -7 -19 -23 -19 -27 0 -47 -17 -47 -40 0 -9 -11
-23 -25 -30 -14 -7 -24 -19 -23 -26 2 -6 -10 -24 -26 -38 -18 -18 -26 -34 -23
-46 3 -11 -1 -21 -9 -24 -8 -3 -14 -12 -14 -19 0 -8 -8 -21 -17 -28 -17 -13
-17 -12 -3 5 12 16 12 20 0 30 -9 6 -14 21 -12 34 2 12 -1 22 -7 22 -6 0 -11
7 -11 15 0 8 -9 24 -21 36 -15 15 -17 24 -10 33 7 8 7 24 1 46 -5 19 -7 50 -4
71 11 64 -37 62 -51 -3 -11 -48 -57 -114 -77 -110 -13 3 -18 -3 -18 -21 0 -29
-24 -54 -35 -37 -10 17 -35 -8 -28 -27 4 -9 2 -14 -3 -10 -6 3 -16 2 -24 -3
-11 -7 -11 -16 -2 -48 17 -57 16 -61 -16 -53 -20 5 -28 15 -30 35 -2 15 -10
30 -18 33 -8 3 -14 14 -14 24 0 25 -26 35 -45 19 -12 -10 -15 -9 -15 8 0 11
-6 25 -14 31 -8 7 -12 20 -9 30 3 10 0 22 -5 25 -6 3 -8 15 -5 25 3 13 -2 21
-17 26 -16 5 -18 10 -10 20 8 10 6 17 -9 27 -10 7 -21 27 -23 43 -2 22 -8 30
-22 30 -19 0 -23 -5 -48 -60 -7 -16 -20 -30 -28 -30 -8 0 -15 -9 -15 -20 0
-12 -8 -21 -20 -23 -23 -4 -65 -49 -65 -69 0 -7 -8 -13 -19 -13 -25 0 -43 -23
-34 -45 4 -12 3 -16 -5 -11 -6 4 -14 23 -18 42 -4 20 -12 38 -19 40 -10 4 -10
12 -2 35 8 21 8 32 0 40 -16 16 -42 4 -52 -24 -5 -13 -23 -36 -39 -52 -17 -15
-28 -34 -25 -42 3 -7 -2 -13 -11 -13 -22 0 -30 -24 -16 -49 10 -19 8 -21 -19
-21 -25 0 -29 3 -24 18 3 9 10 22 15 28 5 7 8 16 7 20 -1 5 2 18 6 28 6 13 3
23 -8 31 -11 7 -18 30 -20 61 -2 41 -6 49 -22 49 -15 0 -21 9 -25 35 -4 27
-10 35 -25 35 -14 0 -21 -8 -23 -28 -3 -27 -6 -28 -50 -25 -44 3 -47 2 -47
-22 0 -25 -17 -42 -44 -46 -11 -2 -12 9 -7 57 5 50 3 61 -11 66 -26 10 -53
-32 -53 -86 0 -57 -11 -77 -35 -64 -9 5 -22 21 -29 34 -6 13 -18 24 -26 24 -8
0 -17 11 -20 24 -7 34 -24 36 -55 6 -16 -14 -37 -25 -47 -25 -11 0 -22 -9 -25
-20 -3 -11 -12 -20 -19 -20 -8 0 -14 -4 -14 -9 0 -5 -12 -12 -26 -15 -21 -6
-25 -11 -20 -30 4 -16 1 -26 -9 -30 -8 -3 -15 -12 -15 -21 0 -8 -4 -15 -8 -15
-4 0 -8 12 -7 28 0 22 -4 27 -22 26 -18 0 -21 4 -18 20 7 27 -36 111 -55 111
-8 0 -19 -15 -25 -32 -5 -18 -14 -33 -20 -33 -6 0 -22 -12 -35 -27 -28 -32
-40 -15 -16 22 32 48 -15 78 -51 32 -10 -13 -26 -26 -37 -30 -13 -5 -17 -14
-14 -32 3 -16 1 -25 -7 -25 -7 0 -16 -7 -19 -16 -3 -9 -6 -535 -6 -1170 l0
-1154 6000 0 6000 0 -2 1292 c-3 1284 -3 1293 -23 1296 -11 3 -24 10 -28 18
-8 14 -22 16 -44 7z"/>
</g>
</svg>
