<?xml version="1.0" standalone="no"?>
<!DOCTYPE svg PUBLIC "-//W3C//DTD SVG 20010904//EN"
 "http://www.w3.org/TR/2001/REC-SVG-20010904/DTD/svg10.dtd">
<svg version="1.0" xmlns="http://www.w3.org/2000/svg"
 width="600.000000pt" height="282.000000pt" viewBox="0 0 600.000000 282.000000"
 preserveAspectRatio="xMidYMid meet">

<g transform="translate(0.000000,282.000000) scale(0.100000,-0.100000)"
fill="#000000" stroke="none">
<path d="M392 2761 c-2 -49 -3 -52 -19 -40 -15 13 -16 11 -9 -11 4 -14 8 -41
10 -60 2 -19 1 -23 -1 -7 -4 26 -23 39 -23 16 0 -8 -6 -7 -17 2 -15 13 -16 11
-8 -16 5 -16 9 -42 8 -57 0 -17 5 -28 13 -28 8 0 14 -4 14 -10 0 -5 -7 -10
-15 -10 -18 0 -18 -5 -5 -30 15 -29 -6 -35 -37 -11 -30 25 -39 21 -23 -8 6
-12 8 -26 5 -31 -3 -5 0 -18 7 -30 10 -16 10 -24 0 -41 -16 -26 -13 -30 27
-31 25 -1 29 -4 20 -15 -9 -10 -8 -13 4 -13 8 0 18 -6 20 -12 4 -10 8 -9 16 2
9 12 11 11 11 -7 0 -18 -6 -23 -28 -23 -15 0 -38 8 -52 17 -22 16 -23 16 -17
-1 8 -20 -6 -14 -40 17 -19 17 -23 18 -23 4 0 -8 -9 -19 -21 -22 -16 -5 -18
-10 -8 -21 6 -8 18 -14 26 -14 10 0 12 -6 8 -22 -6 -16 -4 -20 8 -15 11 4 18
-1 22 -14 7 -20 7 -20 27 -2 20 18 21 18 10 -4 -22 -41 39 -29 76 16 8 9 12
11 12 3 0 -7 -15 -29 -34 -49 -30 -33 -36 -36 -51 -23 -13 11 -18 11 -24 2 -4
-7 -15 -10 -24 -6 -9 3 -17 2 -17 -4 0 -5 -8 -9 -17 -8 -31 2 -16 -39 30 -82
23 -22 22 -32 -5 -29 -20 2 -23 -2 -19 -28 l3 -30 -23 20 c-19 17 -22 18 -16
3 5 -14 1 -18 -15 -18 -20 0 -21 -1 -3 -20 10 -11 14 -20 10 -20 -5 0 8 -12
28 -27 20 -16 45 -45 56 -66 l19 -38 -25 -12 c-18 -8 -29 -8 -44 1 -16 10 -19
9 -19 -4 0 -11 -6 -14 -20 -9 -11 3 -20 4 -20 0 0 -16 35 -72 57 -92 27 -23
17 -38 -20 -30 -12 3 -30 2 -39 -1 -15 -6 -11 -14 25 -55 40 -46 43 -47 55
-27 7 11 17 20 23 20 8 0 8 -5 -1 -15 -7 -8 -10 -21 -7 -29 8 -19 -22 -44 -62
-52 -17 -4 -36 -15 -42 -25 -5 -11 -17 -19 -27 -19 -14 -1 -13 -4 7 -21 13
-11 21 -22 18 -26 -11 -10 13 -32 29 -26 8 3 14 0 14 -7 0 -6 4 -9 9 -6 5 4
12 0 15 -6 3 -10 8 -9 18 2 7 9 20 15 28 15 8 0 18 4 22 9 4 6 11 7 15 2 9 -9
-45 -56 -64 -56 -18 0 -16 -19 2 -26 28 -11 5 -22 -63 -29 -83 -8 -101 -17
-83 -39 10 -12 11 -19 2 -30 -11 -13 -4 -18 32 -24 4 -1 15 -8 24 -17 8 -9 22
-14 29 -11 8 3 14 1 14 -4 0 -6 7 -10 15 -10 8 0 15 -4 15 -9 0 -5 11 -12 25
-15 34 -9 31 -19 -10 -39 -42 -20 -66 -21 -84 -5 -11 11 -12 10 -6 -1 7 -12 0
-13 -36 -8 l-44 7 23 -19 c15 -13 18 -21 10 -25 -9 -3 -8 -8 5 -16 9 -6 15
-15 12 -20 -6 -9 23 -22 35 -15 5 3 14 -8 21 -24 10 -23 16 -27 26 -19 10 8
13 6 13 -5 0 -27 -49 -50 -92 -43 -27 4 -37 3 -33 -4 4 -7 -2 -9 -19 -4 -22 5
-25 3 -20 -11 6 -14 3 -16 -14 -10 -26 8 -30 -10 -6 -23 9 -5 18 -23 19 -41 3
-38 21 -62 41 -54 9 3 14 -2 14 -15 0 -13 -9 -22 -25 -26 -30 -8 -33 -26 -4
-26 18 0 19 -2 9 -15 -14 -17 -6 -31 20 -37 16 -3 40 -23 40 -32 0 -3 -26 -6
-57 -6 -44 0 -54 -3 -45 -12 17 -17 15 -25 -8 -31 -11 -3 -20 -11 -20 -17 0
-8 9 -10 26 -6 22 6 25 4 19 -14 -5 -14 -2 -20 9 -20 9 0 16 -7 16 -15 0 -18
16 -20 23 -2 3 6 6 1 6 -13 l1 -25 20 25 c11 14 20 19 20 12 0 -7 4 -10 10 -7
6 3 7 -1 4 -10 -7 -18 -45 -29 -72 -21 -12 4 -26 0 -35 -9 -9 -8 -20 -15 -26
-15 -6 0 -11 -4 -11 -10 0 -5 5 -10 12 -10 6 0 1 -12 -13 -26 l-24 -27 23 6
c16 4 22 2 19 -6 -6 -17 15 -34 41 -32 12 1 22 -3 22 -8 0 -5 7 -4 15 3 8 7
15 8 15 2 0 -5 -10 -17 -22 -25 -20 -14 -21 -16 -5 -16 14 -1 17 -6 12 -22 -6
-19 -5 -20 15 -9 20 11 21 10 15 -9 -9 -29 34 -47 53 -23 11 14 12 14 12 -4 1
-18 1 -18 14 -1 10 12 15 14 18 6 7 -20 37 -19 43 2 4 10 12 19 20 19 8 0 17
9 20 21 4 11 9 18 12 15 9 -8 32 26 33 47 0 10 5 15 10 12 12 -7 12 -73 1
-132 l-8 -43 47 0 47 0 -5 57 c-4 53 -4 56 12 41 9 -9 16 -21 16 -26 0 -14 26
-22 71 -22 31 0 39 4 39 18 0 11 8 18 20 19 11 1 20 -4 20 -13 0 -8 6 -14 13
-15 6 0 20 -2 30 -4 13 -2 17 4 17 23 1 26 1 27 16 7 12 -14 18 -16 21 -7 4
10 8 10 19 1 11 -9 14 -8 14 4 0 10 6 14 14 11 13 -5 77 26 107 52 26 23 32
16 27 -31 l-6 -45 44 0 43 0 -6 32 -6 33 27 -18 c35 -24 230 -32 251 -11 7 7
16 10 20 6 3 -4 12 0 18 8 15 19 68 26 63 8 -3 -7 -7 -25 -10 -40 -6 -27 -5
-28 40 -28 l47 0 -7 42 c-6 38 -6 40 11 27 10 -8 21 -18 24 -23 9 -12 103 -9
107 4 4 11 42 14 42 2 0 -4 14 -8 30 -8 21 -1 30 3 30 13 0 12 3 13 13 4 8 -6
17 -8 20 -5 3 3 12 2 19 -2 7 -5 21 -10 31 -11 23 -4 48 -28 39 -38 -4 -5 3
-6 15 -3 14 4 21 2 20 -6 -1 -6 11 -11 31 -11 17 0 32 -4 32 -9 0 -4 6 -3 14
3 10 8 16 9 21 1 4 -6 21 -2 48 13 23 12 51 22 61 22 33 0 29 -25 -6 -40 -18
-8 -28 -15 -23 -15 6 0 2 -7 -8 -14 -19 -14 -20 -13 46 -31 4 -2 14 -3 23 -4
8 0 12 -5 9 -11 -3 -5 1 -10 10 -10 9 0 13 -4 10 -10 -3 -5 1 -10 9 -10 9 0
16 -4 16 -10 0 -10 128 -11 145 -1 6 3 12 6 15 6 9 1 65 39 72 49 13 19 20
-22 10 -58 l-10 -36 45 0 c45 0 45 0 40 30 -7 33 0 37 29 15 23 -17 114 -20
114 -4 0 7 10 9 28 5 15 -3 37 -9 50 -11 15 -4 22 -1 22 10 0 11 4 13 13 8 16
-10 57 -11 57 -1 0 4 23 8 50 8 l50 0 -6 58 -7 57 24 -26 c13 -15 32 -31 42
-36 24 -13 77 -4 77 12 0 18 33 24 45 8 6 -7 20 -15 33 -18 22 -4 27 4 22 35
-2 12 3 11 19 -4 15 -14 21 -15 21 -6 0 11 3 11 12 2 16 -16 29 -15 22 2 -5
14 22 30 36 21 5 -3 11 -1 14 3 3 5 21 8 40 5 34 -3 121 35 138 61 13 20 20
-21 10 -58 l-10 -36 44 0 c42 0 44 1 44 30 l0 31 30 -16 c34 -18 110 -20 110
-4 0 7 10 9 28 5 59 -14 72 -14 72 0 0 10 5 12 13 7 20 -13 56 -10 62 5 3 8
11 12 18 9 6 -2 17 1 24 8 9 10 5 14 -18 19 -22 4 -30 11 -27 23 2 14 15 19
57 21 38 2 51 0 46 -9 -5 -8 -1 -9 13 -5 15 5 21 2 24 -11 4 -20 73 -29 85
-10 4 7 9 4 13 -7 5 -16 8 -16 32 3 14 11 28 18 31 15 3 -3 8 4 12 15 3 12 11
19 16 16 5 -4 14 5 21 20 6 14 16 24 22 22 12 -5 12 -9 2 -84 l-7 -53 46 0 46
0 -7 53 -7 52 25 -28 c31 -35 102 -43 130 -15 17 17 19 17 39 -3 17 -17 23
-19 30 -8 6 10 9 10 9 2 0 -8 21 -12 68 -11 51 1 78 7 112 26 25 14 48 30 52
36 13 20 20 -23 9 -55 -6 -18 -11 -34 -11 -35 0 -2 21 -4 46 -4 46 0 46 0 41
30 -7 34 -3 36 33 15 30 -17 110 -20 110 -4 0 7 10 9 28 5 40 -10 66 -8 70 4
3 7 11 5 23 -6 19 -17 19 -18 -3 -42 -23 -24 -23 -24 -2 -18 17 5 23 2 28 -17
4 -19 11 -24 31 -22 14 2 25 -1 25 -7 0 -6 8 -5 18 3 13 11 12 8 -3 -9 -14
-18 -16 -25 -7 -31 7 -4 10 -15 6 -25 -6 -16 -4 -17 15 -6 21 11 22 10 17 -8
-5 -16 -1 -21 21 -25 16 -3 31 0 35 6 5 8 8 4 8 -8 1 -19 1 -19 14 -2 16 21
26 22 26 1 0 -13 6 -12 36 6 19 12 38 20 41 16 3 -3 12 -1 20 5 9 9 13 8 13 0
0 -6 6 -11 14 -11 11 0 12 -8 6 -35 l-8 -35 48 0 49 0 -5 58 -5 57 20 -24 c12
-12 19 -27 16 -31 -6 -9 39 -16 78 -12 19 2 27 9 27 22 0 17 3 18 33 8 17 -6
35 -16 39 -22 6 -8 8 -8 8 0 0 6 6 11 13 11 22 1 42 8 49 18 5 6 11 6 18 -1
11 -11 60 -7 60 5 0 3 17 6 38 6 26 0 36 4 34 14 -2 8 3 11 13 8 8 -4 22 -4
31 0 22 8 -2 23 -38 23 -39 0 -44 18 -9 33 17 7 28 16 25 20 -4 4 0 9 9 13 13
4 14 10 7 24 -8 14 -6 20 8 23 12 3 11 5 -6 6 -13 0 -21 5 -17 11 3 5 -6 5
-24 -1 -41 -15 -85 -8 -89 14 -2 10 3 17 12 17 9 0 16 5 16 11 0 8 6 7 17 -2
15 -12 16 -12 10 3 -5 15 1 19 33 24 22 4 37 10 34 15 -3 5 5 9 18 10 22 0 22
1 3 9 -11 5 -32 9 -47 9 -16 1 -28 5 -28 9 0 4 -14 9 -32 10 -37 3 -43 7 -33
21 3 6 19 11 36 11 16 0 29 4 29 10 0 5 3 9 8 8 22 -5 62 16 62 33 0 10 6 20
13 20 6 1 -19 6 -56 13 -37 6 -68 15 -67 21 0 5 6 10 13 10 7 0 25 12 41 26
l28 26 -31 6 c-17 4 -37 4 -45 1 -20 -8 -14 26 7 38 9 5 17 17 17 27 0 16 -6
18 -47 13 -45 -5 -47 -4 -30 12 22 22 22 34 0 38 -14 3 -11 8 14 23 26 15 31
24 27 42 -4 15 0 31 10 41 14 17 13 18 -19 14 -44 -5 -71 18 -56 47 6 11 16
22 23 25 9 3 8 8 -5 16 -17 11 -16 13 3 40 28 39 26 52 -6 40 -24 -9 -26 -8
-21 9 5 20 -16 36 -33 26 -5 -3 -8 3 -7 14 0 11 4 18 8 15 9 -5 22 32 23 69 1
21 -3 26 -14 21 -29 -13 -70 -16 -70 -6 0 5 7 13 16 16 13 5 14 9 5 20 -7 8
-8 17 -3 20 5 3 12 14 14 24 4 15 0 17 -28 14 -18 -2 -40 0 -50 6 -16 9 -15
10 5 17 13 4 21 13 19 24 -1 9 10 30 25 46 38 41 44 65 21 82 -11 8 -27 12
-37 9 -9 -2 -15 0 -11 5 3 5 1 16 -4 25 -8 14 -10 14 -21 0 -18 -22 -48 -20
-73 4 -25 23 -21 30 21 33 17 1 31 5 31 9 0 4 10 7 22 5 17 -2 24 5 32 34 6
20 17 43 23 51 10 12 8 18 -11 35 -16 14 -28 18 -37 12 -22 -14 -29 -11 -29
13 0 17 -3 19 -12 10 -20 -20 -45 -14 -83 19 -38 33 -41 48 -6 29 13 -7 21 -7
21 -1 0 7 9 7 26 1 34 -13 32 -15 50 29 11 29 20 38 31 34 11 -4 14 -3 9 6 -5
7 -1 18 10 26 23 16 16 25 -22 30 -18 2 -28 8 -26 16 2 8 -8 3 -21 -9 -20 -18
-29 -21 -44 -14 -27 15 -57 51 -49 59 4 4 11 1 16 -7 6 -8 10 -11 10 -6 0 5 7
3 15 -4 13 -10 15 -9 15 9 0 24 10 27 29 8 11 -10 12 -7 6 13 -7 22 -6 23 7
12 13 -10 17 -9 23 5 5 10 7 21 7 26 -1 4 5 7 13 7 8 0 15 7 15 15 0 8 -7 15
-15 15 -8 0 -15 5 -15 10 0 7 -7 7 -20 0 -16 -8 -22 -8 -26 4 -9 22 -34 28
-51 11 -19 -20 -39 -14 -35 9 2 11 -5 20 -17 23 -12 3 -18 10 -14 20 4 10 9
11 16 4 16 -16 27 -13 28 7 0 13 3 12 11 -5 13 -26 28 -30 28 -7 0 8 4 13 9
10 14 -9 41 4 41 19 0 8 -11 22 -25 33 -14 11 -25 27 -25 36 0 19 -11 21 -27
5 -9 -9 -10 -6 -6 10 3 12 9 24 14 27 14 8 10 24 -6 24 -8 0 -15 7 -15 15 0 8
6 15 14 15 7 0 19 7 26 15 10 12 10 18 0 30 -10 12 -10 22 -2 39 9 19 8 25 -4
30 -11 4 -12 10 -4 25 16 31 12 36 -11 15 -12 -10 -24 -18 -28 -16 -3 2 -9
-11 -12 -27 -4 -17 -15 -43 -25 -58 l-19 -28 -3 64 c-3 59 5 92 15 64 5 -14
33 -6 33 10 0 6 -7 19 -17 29 -15 17 -15 18 12 18 23 0 25 2 15 15 -7 8 -9 23
-4 37 6 19 5 21 -8 11 -8 -7 -18 -10 -21 -6 -4 3 -9 -2 -12 -11 -3 -9 -7 -23
-10 -32 -3 -9 -8 -14 -11 -11 -5 5 7 56 32 134 5 17 5 17 -9 0 -14 -18 -16
-16 -25 25 l-10 43 -1 -60 c-2 -57 -2 -59 -16 -35 -11 20 -14 21 -15 7 0 -10
4 -26 9 -35 14 -28 21 -82 11 -82 -6 0 -10 14 -10 31 0 25 -3 29 -13 20 -10
-8 -17 -7 -26 2 -11 10 -12 7 -5 -13 5 -14 8 -40 8 -57 0 -21 4 -33 13 -33 7
0 13 -7 13 -15 0 -9 -6 -12 -15 -9 -18 7 -19 0 -5 -26 16 -29 -8 -36 -36 -9
l-24 22 3 -39 c2 -21 9 -49 16 -62 11 -20 10 -25 -6 -37 -17 -13 -16 -14 10
-24 16 -6 32 -9 37 -6 4 3 6 -5 2 -17 -3 -13 -1 -19 6 -15 5 4 13 1 15 -5 4
-10 8 -9 16 2 9 13 11 11 11 -6 0 -30 -32 -36 -71 -12 -26 16 -31 16 -26 4 9
-23 -11 -20 -25 4 -16 25 -23 25 -48 0 -24 -24 -18 -40 12 -40 17 0 18 -2 8
-15 -20 -24 -3 -31 22 -9 15 12 18 13 10 3 -7 -9 -10 -24 -6 -33 5 -13 10 -14
27 -4 19 10 20 9 9 -4 -10 -13 -9 -16 8 -21 11 -3 20 -2 20 1 0 4 14 15 30 24
38 22 38 16 -1 -34 -30 -38 -32 -38 -51 -21 -15 13 -21 14 -27 5 -4 -7 -15
-10 -24 -6 -10 3 -17 1 -17 -5 0 -6 -7 -8 -15 -5 -11 5 -14 0 -13 -20 1 -14 6
-26 10 -26 3 0 10 -9 13 -20 3 -11 13 -20 21 -20 8 0 14 -7 14 -15 0 -9 -8
-14 -22 -12 -20 2 -23 -2 -20 -28 4 -26 2 -28 -12 -16 -11 9 -16 10 -16 2 0
-16 -16 -14 -34 4 -8 8 -19 15 -25 15 -14 0 -14 17 0 26 8 5 6 10 -5 16 -9 5
-16 14 -16 19 0 6 4 8 9 4 5 -3 13 0 18 7 10 17 12 78 2 78 -4 0 -5 9 -2 20 5
17 3 18 -21 7 -14 -7 -26 -17 -26 -24 0 -7 -11 -25 -25 -40 l-24 -28 -2 33
c-1 17 -2 37 -3 44 -1 6 9 12 21 13 32 2 37 10 18 29 -15 15 -15 16 2 16 13 0
18 7 18 25 0 17 -4 24 -13 20 -8 -3 -17 -5 -22 -5 -4 0 -11 -10 -15 -22 -3
-13 -9 -18 -11 -11 -3 6 2 28 10 48 20 46 20 51 2 36 -12 -10 -15 -7 -19 21
-4 32 -4 32 -5 -6 -2 -35 -4 -37 -19 -25 -15 13 -16 12 -9 -11 4 -14 9 -36 11
-50 1 -15 1 -16 -2 -4 -3 15 -12 22 -29 22 -20 0 -24 -4 -18 -17 4 -9 7 -26 7
-38 -1 -14 5 -23 14 -23 8 0 11 -5 8 -10 -4 -6 -11 -7 -17 -4 -6 4 -8 -1 -4
-14 9 -27 -6 -35 -30 -17 -26 20 -37 18 -25 -4 6 -10 8 -21 4 -24 -3 -3 2 -14
11 -23 16 -15 16 -17 -1 -30 -10 -7 -15 -14 -10 -15 4 -1 12 -3 17 -4 6 -1 17
-3 26 -4 8 0 12 -5 9 -11 -6 -9 11 -14 43 -13 7 1 11 -4 9 -11 -6 -18 -46 -19
-74 -1 -24 16 -26 16 -20 1 7 -18 -5 -14 -35 12 -15 13 -19 12 -33 -2 -9 -9
-21 -16 -26 -16 -6 0 -7 -4 -4 -10 3 -5 15 -10 27 -10 14 0 18 -5 14 -15 -6
-18 5 -20 21 -4 8 8 11 6 10 -7 -2 -13 4 -18 17 -16 11 2 15 -1 11 -7 -3 -6 1
-11 9 -11 23 0 70 20 78 33 6 9 8 9 8 0 0 -7 -15 -24 -34 -38 -29 -22 -38 -24
-55 -15 -12 6 -21 7 -21 3 0 -4 -14 -8 -31 -9 -16 -1 -35 -6 -41 -12 -10 -10
-3 -20 47 -56 19 -15 19 -15 -7 -16 -22 0 -25 -4 -21 -21 5 -19 4 -20 -17 -9
-15 8 -20 8 -16 1 4 -7 -1 -11 -13 -11 -19 0 -20 -2 -9 -20 7 -11 27 -25 43
-32 17 -6 40 -25 51 -43 l22 -33 -25 -7 c-14 -3 -33 -3 -43 0 -10 3 -21 1 -25
-5 -3 -6 -11 -8 -16 -4 -5 3 -7 10 -4 15 4 5 2 9 -4 9 -6 0 -7 8 -4 18 6 14 4
15 -9 4 -13 -10 -20 -9 -39 8 -21 17 -22 19 -5 20 15 0 16 3 7 14 -9 11 -9 15
1 19 7 3 2 5 -12 4 -14 -1 -30 -11 -37 -22 -12 -20 -12 -20 -13 1 0 12 7 27
15 34 19 16 19 31 0 24 -10 -4 -15 0 -15 16 0 11 -4 18 -10 15 -5 -3 -10 -15
-10 -25 0 -14 -5 -18 -17 -13 -16 6 -16 5 0 -17 9 -14 17 -31 17 -40 -1 -11
-4 -10 -13 5 -15 25 -51 31 -42 7 4 -10 8 -34 9 -55 3 -41 2 -41 -49 -21 -18
7 -18 6 -6 -9 11 -14 11 -17 0 -17 -8 0 -5 -6 7 -15 16 -13 17 -16 4 -25 -13
-8 -12 -10 5 -11 11 -1 26 -2 32 -2 7 1 11 -3 8 -7 -7 -11 32 -23 45 -15 5 3
10 1 10 -5 0 -13 -106 -11 -130 3 -9 5 -27 4 -45 -4 l-30 -13 27 -4 c19 -2 25
-8 21 -18 -4 -10 0 -12 11 -8 9 3 16 1 16 -6 0 -7 8 -9 21 -5 15 5 19 4 15 -4
-9 -14 10 -13 56 3 47 17 48 14 5 -13 -21 -13 -45 -19 -71 -17 -49 4 -88 -6
-78 -20 4 -5 18 -18 32 -27 24 -17 24 -17 3 -17 -16 0 -21 -4 -17 -15 4 -10 0
-15 -12 -13 -11 0 -28 0 -38 0 -18 -2 -17 -4 4 -22 21 -18 34 -24 51 -22 10 2
53 -48 47 -54 -10 -10 -72 -8 -75 3 -3 7 -17 7 -43 -1 -30 -7 -43 -7 -52 2 -9
9 -8 12 6 12 12 0 16 5 12 15 -3 8 -1 15 3 15 5 0 12 7 15 15 4 13 -1 15 -27
14 -59 -4 -89 0 -85 13 3 7 15 13 29 13 17 0 24 5 23 18 -1 10 5 17 17 17 11
0 19 7 19 15 0 8 4 15 9 15 15 0 22 32 9 47 -7 9 -20 12 -37 8 -22 -6 -23 -5
-10 11 9 11 9 15 2 10 -8 -4 -13 -2 -13 4 0 7 -7 6 -21 -3 -20 -15 -53 -12
-76 6 -15 11 -18 31 -4 23 14 -9 111 18 111 30 0 6 9 23 20 37 l21 26 -23 12
c-13 7 -33 12 -45 10 -15 -2 -23 3 -23 13 0 14 -3 14 -20 4 -17 -11 -26 -10
-57 8 -40 23 -62 55 -24 35 13 -8 21 -8 21 -2 0 7 9 7 26 0 22 -8 30 -6 45 10
11 11 19 25 19 31 0 5 6 10 13 10 7 0 18 9 25 20 12 20 7 24 -35 23 -7 -1 -13
6 -13 15 0 13 -2 13 -18 -1 -26 -23 -46 -21 -79 8 -24 21 -25 24 -8 22 11 -1
25 -6 31 -10 7 -4 15 0 18 10 5 12 9 14 18 5 18 -18 32 -14 17 5 -12 14 -12
16 1 11 8 -2 25 6 38 19 23 23 23 25 6 38 -13 9 -24 10 -37 4 -13 -7 -19 -6
-23 6 -3 8 -10 12 -15 9 -5 -3 -9 0 -9 7 0 8 -6 6 -18 -4 -36 -33 -53 -13 -33
38 8 19 8 19 19 0 10 -17 13 -18 21 -5 6 8 13 11 17 8 4 -4 15 -3 26 3 19 10
19 12 2 30 -9 10 -23 19 -31 19 -7 0 -13 7 -13 16 0 10 -6 14 -15 10 -9 -3
-15 0 -15 8 0 8 6 16 13 19 8 3 6 10 -8 21 -12 9 -15 15 -7 16 7 0 21 7 29 16
14 13 14 17 2 25 -11 7 -12 12 -2 28 8 13 9 22 2 26 -5 4 -7 15 -4 26 12 37
-46 -7 -66 -50 -24 -55 -39 -52 -39 9 0 35 4 50 13 49 6 -1 21 -1 31 0 18 1
18 2 1 21 -18 19 -17 20 5 20 19 0 20 2 10 15 -10 12 -10 18 0 30 15 18 -1 20
-18 3 -7 -7 -12 -8 -12 -2 -1 5 -7 -2 -15 -16 l-14 -25 0 25 c0 14 6 36 14 50
19 33 18 50 0 26 -15 -19 -15 -19 -15 5 0 13 -5 31 -10 39 -7 11 -10 3 -10
-29 0 -37 -2 -42 -15 -31 -19 16 -19 7 1 -31 8 -17 14 -40 11 -52 -3 -18 -5
-16 -14 13 -6 19 -12 29 -12 21 -1 -11 -4 -11 -17 0 -15 12 -16 9 -9 -31 4
-25 11 -46 16 -48 5 -2 9 -8 9 -14 0 -6 -7 -8 -15 -4 -16 6 -21 -9 -5 -19 5
-3 7 -12 4 -20 -5 -12 -11 -11 -35 6 l-29 20 3 -28 c2 -15 9 -38 16 -50 7 -15
8 -23 1 -23 -5 0 -10 -7 -10 -15 0 -14 18 -20 50 -15 8 1 12 -1 8 -5 -12 -13
16 -34 30 -23 9 8 12 6 12 -5 0 -24 -37 -31 -65 -13 -28 18 -39 20 -30 6 9
-15 -6 -12 -25 5 -14 12 -21 13 -43 2 -31 -14 -30 -31 1 -35 14 -2 19 -8 15
-19 -4 -11 -2 -14 5 -9 7 4 15 0 18 -9 4 -9 13 -14 20 -11 8 3 14 0 14 -8 0
-7 7 -13 15 -13 8 0 15 4 15 9 0 4 8 8 17 8 9 0 25 7 35 17 10 9 18 13 18 9 0
-4 -17 -22 -37 -41 -34 -31 -38 -32 -60 -18 -16 11 -23 12 -23 3 0 -7 -6 -10
-14 -7 -8 3 -17 3 -21 -1 -4 -4 -12 -7 -18 -7 -23 0 -17 -27 12 -52 36 -32 39
-43 11 -36 -16 4 -20 0 -20 -22 0 -23 -2 -26 -15 -15 -12 10 -15 10 -15 0 0
-7 -8 -10 -20 -7 -11 3 -20 3 -20 1 0 -10 74 -73 81 -68 9 5 52 -67 44 -75 -4
-3 -24 -5 -46 -5 -21 1 -39 -2 -39 -7 0 -5 -7 -6 -16 -2 -13 5 -15 2 -9 -15 5
-19 3 -22 -17 -20 -13 2 -26 7 -30 13 -5 6 -12 5 -20 -3 -18 -18 -53 -15 -79
8 -22 18 -22 20 -4 17 11 -1 26 -6 33 -10 7 -5 12 -3 12 7 0 19 11 20 29 4 11
-11 13 -10 8 4 -4 12 -2 15 8 11 8 -3 18 2 21 11 3 9 12 16 20 16 8 0 14 4 14
9 0 11 -48 24 -61 16 -5 -4 -16 1 -25 9 -11 12 -20 13 -34 6 -25 -13 -53 -13
-45 1 4 6 -2 13 -14 16 -11 3 -18 9 -15 14 3 5 14 5 25 -1 15 -9 19 -7 19 7 0
15 2 15 16 -3 10 -13 17 -15 20 -7 3 7 11 10 17 8 7 -3 19 0 27 5 13 9 12 12
-5 25 -11 8 -26 19 -33 26 -7 6 -19 8 -27 5 -9 -3 -12 0 -8 10 3 7 9 14 14 14
5 0 9 5 9 10 0 6 -7 10 -15 10 -21 0 -19 18 3 22 14 3 17 14 17 56 0 51 -4 60
-19 45 -4 -5 -12 -8 -17 -8 -5 0 -17 -16 -27 -34 -27 -51 -42 -51 -42 -1 0 31
4 41 13 37 8 -3 20 -1 28 4 12 8 11 12 -6 25 -20 16 -20 16 1 11 18 -4 21 0
20 19 -1 28 -29 27 -51 -2 -21 -28 -18 -5 5 39 21 38 21 39 1 32 -16 -5 -20
-1 -24 22 -3 22 -4 20 -6 -11 -1 -35 -3 -37 -18 -25 -15 12 -16 12 -9 -6 5
-11 10 -31 12 -45 3 -20 2 -21 -4 -5 -4 12 -17 20 -30 21 -17 0 -21 -3 -16
-15 4 -9 7 -26 7 -38 -1 -12 6 -24 16 -26 15 -4 15 -5 -1 -6 -11 -1 -15 -7
-11 -21 6 -21 -20 -29 -32 -10 -3 6 -10 10 -15 10 -14 0 -7 -43 9 -60 13 -13
13 -15 -2 -18 -24 -5 -21 -22 3 -22 11 0 21 1 23 3 2 1 12 -6 22 -16 9 -10 24
-16 32 -13 9 4 13 1 10 -6 -5 -16 -88 -12 -129 6 -19 9 -61 -11 -53 -25 4 -5
13 -9 21 -9 9 0 12 -5 8 -12 -5 -7 0 -9 14 -6 13 4 20 2 19 -6 -1 -6 6 -10 15
-10 10 1 15 -3 11 -9 -8 -13 66 1 87 16 8 7 6 1 -5 -12 -29 -34 -52 -43 -75
-31 -14 8 -20 8 -20 0 0 -6 -4 -9 -10 -5 -12 8 -60 -5 -60 -16 0 -12 38 -49
50 -49 6 0 10 -4 10 -9 0 -5 -9 -7 -20 -4 -15 4 -20 0 -20 -13 0 -24 -62 -31
-80 -9 -10 12 -10 15 2 15 7 0 14 9 14 20 0 11 -1 20 -2 20 -2 0 -14 -4 -28
-10 -24 -9 -25 -8 -16 16 13 33 13 34 -4 34 -8 0 -17 8 -19 18 -4 13 -5 11 -6
-5 0 -13 -7 -23 -16 -23 -8 0 -19 -9 -25 -20 -6 -11 -15 -18 -20 -15 -5 3 -11
-3 -13 -12 -3 -10 -5 -3 -6 15 0 17 2 31 7 31 27 -4 44 2 38 16 -3 10 1 15 11
15 13 0 14 3 6 11 -6 6 -9 17 -6 24 6 18 -38 7 -55 -14 -8 -9 -5 1 7 22 20 36
20 37 1 37 -11 0 -20 7 -20 15 0 8 -4 15 -10 15 -5 0 -10 -12 -10 -26 0 -22
-2 -25 -15 -14 -13 11 -15 9 -13 -11 2 -18 -2 -24 -14 -23 -18 2 -25 -20 -10
-29 5 -4 8 -57 3 -75 -1 -1 -14 4 -30 12 -28 15 -29 15 -27 -9 0 -14 5 -25 10
-25 4 0 5 -11 2 -25 -5 -20 -3 -25 13 -25 10 0 34 -7 52 -15 l34 -14 -28 -1
c-16 0 -37 5 -48 10 -13 8 -19 7 -19 0 0 -6 -12 -4 -30 5 -17 9 -30 11 -30 5
0 -5 -9 -10 -20 -10 -11 0 -20 -4 -20 -10 0 -5 7 -10 15 -10 9 0 18 -7 22 -16
3 -8 11 -13 19 -10 7 3 15 0 17 -7 2 -7 22 -12 50 -11 43 1 45 0 27 -13 -14
-10 -25 -11 -38 -4 -19 10 -102 -7 -102 -21 0 -5 15 -17 33 -28 30 -18 30 -20
8 -20 -17 0 -22 -4 -17 -15 4 -13 2 -14 -14 -5 -12 7 -20 7 -20 1 0 -5 -10
-11 -22 -13 -19 -2 -13 -8 29 -29 29 -15 59 -34 68 -43 15 -15 15 -17 1 -22
-9 -4 -28 -4 -41 -1 -14 2 -28 1 -31 -4 -2 -4 -12 -5 -20 -2 -13 5 -15 1 -9
-16 6 -19 4 -22 -16 -19 -12 2 -25 9 -27 17 -3 10 0 12 12 8 14 -6 16 -3 11
13 -4 11 -3 20 2 20 5 0 9 8 10 18 1 15 -5 17 -33 14 -50 -6 -85 5 -77 24 4
10 9 12 16 5 7 -7 16 -7 29 0 15 8 16 14 7 30 -9 19 -8 20 10 14 15 -5 21 -2
21 10 0 8 6 18 14 21 40 15 14 81 -27 68 -13 -4 -17 -2 -13 5 13 21 -5 32 -27
16 -29 -20 -53 -19 -77 5 -27 27 -26 44 1 29 12 -6 24 -7 28 -3 3 5 12 9 19
10 6 1 21 2 31 3 12 0 21 12 26 29 3 15 14 35 23 45 15 17 15 20 -8 37 -18 13
-30 16 -48 9 -21 -8 -23 -7 -17 11 7 22 -5 26 -22 9 -15 -15 -63 3 -90 33 -18
21 -18 21 5 16 12 -4 22 -2 22 4 0 6 6 5 15 -2 8 -7 15 -9 15 -5 0 4 7 2 16
-5 13 -11 16 -10 21 8 3 12 9 22 14 22 5 0 9 9 9 20 0 13 5 18 15 14 9 -4 15
0 15 9 0 9 8 21 18 26 16 10 16 10 0 11 -10 0 -18 5 -18 10 0 7 -6 7 -20 0
-16 -9 -20 -8 -20 6 0 16 -1 16 -18 1 -30 -27 -55 -20 -92 27 -14 18 -13 18
10 11 14 -4 31 -10 38 -12 7 -3 12 3 12 13 0 14 3 15 12 6 20 -20 30 -14 17
11 -9 18 -9 20 2 10 13 -13 38 -19 26 -7 -4 4 5 17 19 29 l25 22 -24 16 c-15
9 -29 12 -38 7 -9 -6 -20 -2 -32 11 -17 19 -21 19 -36 5 -24 -21 -41 -20 -41
3 0 11 -9 21 -21 24 -18 5 -19 8 -8 20 12 12 15 12 26 -2 11 -14 12 -14 13 4
0 19 2 18 19 -4 16 -21 19 -21 24 -7 4 10 11 15 15 12 5 -3 17 0 26 7 16 11
15 14 -4 35 -11 12 -25 22 -30 22 -6 0 -10 7 -10 16 0 9 -6 14 -13 11 -8 -3
-14 1 -14 9 0 8 4 14 9 14 4 0 8 7 8 15 0 8 -7 15 -15 15 -8 0 -15 5 -15 10 0
6 6 10 14 10 24 0 40 28 27 44 -10 11 -10 20 -1 37 9 17 9 23 0 29 -7 5 -10
17 -6 31 7 23 6 23 -8 5 -8 -10 -19 -15 -25 -12 -6 4 -13 -5 -17 -21 -9 -38
-36 -83 -46 -77 -11 7 -10 101 1 108 5 4 11 2 13 -4 2 -6 9 -6 18 0 12 8 13
13 2 30 -11 18 -10 20 8 20 22 0 26 10 8 28 -8 8 -8 15 2 27 8 9 8 15 2 15 -6
0 -14 -5 -17 -10 -4 -6 -10 -8 -15 -5 -4 3 -13 -7 -18 -22 l-10 -28 -1 30 c0
17 6 41 14 55 20 35 19 62 0 36 -15 -19 -15 -19 -15 5 0 13 -5 31 -10 39 -7
11 -10 1 -10 -34 0 -46 -1 -48 -15 -30 -19 25 -19 12 0 -33 8 -19 15 -47 14
-62 -1 -22 -3 -20 -14 14 -8 22 -14 34 -14 26 -1 -10 -4 -11 -14 -2 -21 17
-27 3 -12 -32 7 -18 10 -38 8 -44 -3 -7 0 -13 6 -13 6 0 11 -7 11 -15 0 -9 -6
-12 -16 -8 -14 5 -15 3 -4 -17 18 -33 -1 -45 -33 -20 -22 17 -27 18 -27 6 0
-8 5 -18 11 -22 8 -4 7 -9 -2 -15 -10 -6 -11 -11 -3 -16 16 -12 24 -42 14 -48
-22 -13 -9 -32 20 -30 18 1 29 -3 27 -9 -4 -13 18 -38 30 -34 4 2 10 -1 13 -7
9 -17 -55 -17 -70 -1 -17 21 -31 20 -23 -1 4 -12 -5 -8 -25 11 -23 22 -32 25
-32 14 0 -9 -9 -18 -20 -21 -28 -7 -25 -25 4 -33 17 -4 23 -11 19 -22 -5 -11
-2 -14 10 -9 13 5 17 1 17 -14 0 -21 1 -21 28 -3 25 16 26 16 13 0 -13 -15
-13 -19 -1 -26 8 -5 17 -5 20 0 3 5 19 14 35 20 l30 11 -34 -35 c-33 -34 -34
-34 -59 -18 -25 16 -26 16 -19 -1 6 -15 4 -16 -13 -7 -14 7 -20 7 -20 0 0 -5
-9 -10 -20 -10 -23 0 -24 -4 -8 -33 15 -29 34 -47 42 -40 3 4 6 -1 6 -9 0 -9
-8 -15 -17 -14 -14 1 -17 -5 -15 -28 3 -27 2 -28 -14 -15 -13 11 -18 11 -21 2
-3 -7 -11 -13 -18 -13 -19 0 5 -48 28 -56 9 -3 17 -10 17 -15 0 -5 4 -8 9 -7
5 2 21 -14 35 -34 25 -38 25 -38 4 -49 -11 -6 -31 -9 -44 -6 -14 2 -27 0 -30
-5 -3 -5 -12 -7 -20 -4 -8 3 -14 1 -14 -4 0 -14 34 -70 43 -70 5 0 15 -6 23
-14 18 -18 2 -30 -29 -23 -12 3 -30 2 -39 -1 -15 -6 -12 -13 22 -52 l38 -44
21 24 21 25 -6 -30 c-9 -41 -20 -52 -62 -66 -20 -6 -41 -18 -45 -25 -13 -22
-40 -17 -34 6 3 11 1 20 -4 20 -4 0 -5 8 -2 18 6 14 4 15 -9 4 -13 -10 -20 -9
-39 8 -17 14 -20 19 -9 20 9 0 16 9 16 20 0 15 -5 19 -21 14 -11 -3 -26 -13
-32 -22 -19 -24 -17 8 2 34 19 25 19 40 0 24 -13 -11 -15 -8 -16 16 l-1 29 -9
-27 c-7 -19 -15 -25 -26 -21 -15 6 -15 4 0 -17 9 -14 17 -31 17 -40 -1 -9 -6
-5 -15 10 -8 14 -14 20 -15 13 0 -7 -7 -10 -16 -6 -14 5 -15 3 -6 -14 6 -11 8
-23 4 -27 -3 -4 0 -11 8 -16 10 -6 11 -10 3 -10 -7 0 -10 -7 -6 -17 7 -17 -4
-16 -52 3 -18 7 -18 6 -6 -9 7 -9 9 -17 3 -17 -5 0 -15 7 -22 15 -7 8 -19 15
-26 15 -8 0 -14 5 -14 10 0 6 -7 10 -15 10 -18 0 -20 16 -2 23 7 3 5 6 -5 6
-27 1 -21 18 9 26 18 4 23 9 15 14 -7 4 -10 15 -6 24 3 10 1 17 -5 17 -6 0 -8
8 -4 18 6 14 4 15 -9 5 -8 -7 -17 -10 -20 -8 -3 3 -13 -6 -22 -20 -14 -21 -20
-24 -32 -14 -8 6 -14 19 -14 29 0 13 6 16 28 12 24 -5 26 -4 13 11 -11 15 -11
17 1 17 7 0 14 9 14 20 0 25 -30 21 -51 -6 -22 -29 -18 -4 5 34 20 33 20 33 1
27 -15 -4 -21 0 -24 17 l-4 23 -2 -23 c-1 -18 -5 -21 -25 -16 -13 3 -27 1 -30
-5 -11 -17 -33 -13 -62 12 -23 20 -25 24 -8 22 11 0 25 -4 32 -9 7 -4 12 -1
12 9 0 13 4 14 20 5 16 -9 19 -8 13 6 -4 12 -3 15 6 10 7 -5 22 2 37 17 l24
25 -24 6 c-13 3 -32 3 -40 0 -9 -3 -16 -2 -16 4 0 16 -31 23 -46 11 -16 -13
-48 -4 -39 11 3 5 -3 10 -14 10 -11 0 -23 5 -27 12 -4 7 -3 8 4 4 7 -4 12 -2
12 5 0 9 3 9 14 0 11 -9 15 -9 19 1 4 10 9 9 17 -4 8 -13 16 -15 28 -9 9 5 26
12 37 16 18 5 17 8 -13 36 -20 19 -39 29 -49 25 -14 -6 -14 -4 1 19 14 22 15
25 1 25 -24 0 -17 16 12 29 25 11 26 14 10 23 -15 8 -16 12 -5 25 9 12 10 17
2 20 -7 2 -10 13 -7 23 5 17 3 18 -21 7 -14 -7 -31 -24 -37 -39 -6 -15 -17
-33 -25 -39 -11 -9 -14 -6 -15 20 -1 17 -2 36 -3 43 -1 6 9 12 21 13 32 2 37
10 18 29 -15 15 -15 16 2 16 12 0 18 7 18 23 0 18 -5 22 -22 19 -11 -2 -24
-14 -28 -25 -6 -19 -8 -20 -12 -4 -2 9 5 33 17 52 12 19 17 35 11 35 -5 0 -13
-6 -18 -12 -5 -9 -10 -1 -14 22 l-6 35 -2 -37 c-1 -40 -8 -46 -30 -25 -9 8 -8
1 3 -20 9 -18 16 -42 15 -55 l-1 -23 -7 24 c-4 15 -15 25 -30 28 -19 3 -22 0
-15 -14 4 -10 7 -28 7 -40 -1 -12 6 -24 16 -26 13 -4 13 -5 -3 -6 -12 -1 -16
-6 -12 -17 10 -26 -4 -35 -27 -19 -27 19 -43 19 -28 1 9 -10 9 -16 1 -21 -7
-5 -5 -11 7 -20 14 -11 16 -16 6 -26 -20 -21 -15 -29 18 -29 17 0 28 -4 24
-10 -6 -9 11 -14 43 -13 7 1 11 -4 9 -11 -4 -13 -53 -13 -81 -1 -15 7 -17 5
-11 -5 5 -8 -8 -4 -28 9 -20 12 -37 18 -37 12 0 -5 -9 -13 -20 -16 -24 -8 -17
-25 10 -25 13 0 17 -5 14 -15 -7 -18 7 -20 23 -4 8 8 11 6 10 -7 -2 -13 4 -18
17 -16 11 2 15 -1 11 -7 -11 -18 28 -12 63 9 43 26 41 12 -3 -23 -31 -25 -38
-27 -52 -15 -12 10 -17 10 -20 1 -2 -7 -10 -10 -16 -7 -7 2 -25 0 -40 -4 l-28
-7 25 -28 c14 -15 30 -27 36 -27 5 0 10 -4 10 -10 0 -5 -10 -9 -22 -7 -18 1
-22 -2 -20 -17 3 -14 -1 -17 -12 -13 -9 4 -25 3 -36 -1 l-21 -8 21 -22 c11
-12 32 -25 45 -28 14 -3 25 -10 25 -15 0 -5 9 -18 20 -29 l20 -20 -25 -10
c-14 -5 -33 -9 -43 -8 -9 1 -27 0 -40 0 -23 -2 -23 -2 -6 -31 10 -16 26 -32
36 -34 31 -8 22 -30 -10 -24 -39 8 -54 -3 -36 -27 8 -11 14 -17 14 -13 0 4 9
-2 21 -14 20 -20 22 -20 40 -3 10 9 22 14 26 11 3 -4 1 -7 -5 -7 -7 0 -12 -8
-12 -18 0 -19 -37 -42 -68 -42 -10 0 -24 -6 -31 -12 -11 -11 -11 -9 -2 9 6 13
16 23 21 23 6 0 10 4 10 9 0 13 -39 25 -69 22 -16 -2 -21 1 -16 9 6 9 -1 10
-23 5 -20 -4 -41 -1 -61 10 -32 16 -43 32 -16 21 8 -3 15 -1 15 4 0 6 10 6 26
-1 22 -8 30 -6 45 10 11 11 19 25 19 31 0 6 5 8 10 5 9 -6 40 17 40 29 0 3
-13 6 -30 6 -16 0 -30 5 -30 12 0 6 -8 3 -20 -7 -17 -15 -24 -16 -49 -5 -17 7
-36 19 -43 28 -11 13 -10 14 12 7 14 -4 31 -10 38 -12 6 -3 12 2 12 12 0 14 3
15 14 5 11 -8 20 -9 33 -1 10 6 14 11 10 11 -14 0 20 30 35 30 7 1 2 7 -12 14
-16 10 -30 11 -42 5 -12 -7 -20 -4 -27 8 -8 15 -13 15 -37 4 -24 -11 -30 -10
-40 3 -6 9 -16 16 -22 16 -6 0 -14 5 -18 12 -4 7 -3 8 4 4 7 -4 12 -1 12 6 0
10 3 9 11 -2 8 -12 12 -12 16 -2 4 10 9 9 24 -4 13 -12 19 -13 19 -4 0 6 6 10
14 7 8 -3 22 0 32 7 16 13 15 15 -14 30 -18 9 -32 21 -32 26 0 5 -8 7 -17 3
-16 -6 -16 -4 1 15 17 19 17 22 3 22 -24 0 -21 17 3 25 23 7 26 21 8 28 -10 3
-10 7 0 19 8 11 9 18 3 22 -6 4 -7 14 -4 24 6 15 5 15 -11 3 -15 -13 -20 -11
-44 12 l-27 27 24 0 c18 0 21 3 12 13 -6 8 -7 17 -3 21 4 5 -2 6 -13 4 -11 -1
-25 -12 -32 -23 -12 -20 -12 -20 -13 1 0 11 7 29 15 40 19 25 19 40 0 24 -13
-11 -15 -8 -15 13 0 14 -4 29 -10 32 -6 4 -10 -9 -10 -31 0 -33 -2 -35 -17
-23 -15 13 -15 12 0 -18 10 -18 17 -40 17 -50 -1 -12 -6 -8 -15 12 -7 17 -14
24 -14 16 -1 -11 -4 -11 -18 0 -15 13 -16 12 -9 -11 4 -14 8 -33 7 -43 0 -9 4
-15 10 -12 5 4 9 1 9 -4 0 -6 -5 -11 -11 -11 -6 0 -9 -7 -6 -15 9 -23 -10 -27
-38 -9 -26 17 -35 8 -13 -14 9 -9 9 -12 -2 -12 -10 0 -9 -5 4 -19 11 -12 14
-21 7 -26 -21 -12 -11 -25 20 -25 16 0 28 -4 25 -9 -7 -10 22 -24 34 -16 5 3
11 1 15 -5 8 -13 -54 -13 -75 0 -9 6 -17 5 -21 -2 -4 -6 -16 -4 -33 7 -15 10
-26 13 -26 6 0 -6 -9 -11 -20 -11 -26 0 -26 -17 0 -25 11 -3 20 -11 20 -17 0
-5 7 -8 15 -4 9 3 15 0 15 -10 0 -10 6 -14 15 -10 8 3 15 1 15 -4 0 -15 22
-12 62 8 43 22 40 6 -4 -25 -19 -14 -36 -19 -42 -14 -14 11 -66 9 -66 -3 0 -4
-7 -6 -15 -3 -8 4 -17 2 -20 -3 -6 -10 29 -50 45 -50 6 0 10 -4 10 -10 0 -5
-9 -10 -20 -10 -12 0 -17 -5 -14 -13 3 -10 -4 -14 -26 -14 -16 0 -33 -3 -37
-6 -8 -9 35 -46 61 -53 23 -6 62 -52 52 -62 -10 -9 -90 -8 -98 2 -3 5 -21 9
-39 8 -18 0 -41 4 -51 9 -12 6 -24 5 -37 -3 -25 -15 -35 -6 -26 22 5 15 10 18
18 11 13 -10 64 -3 73 10 3 5 -6 14 -20 21 -14 6 -26 15 -26 21 0 5 -7 7 -15
3 -8 -3 -15 -1 -15 4 0 6 5 10 10 10 18 0 11 20 -7 21 -14 0 -14 2 3 9 24 10
41 30 25 30 -5 0 -8 14 -6 30 3 28 1 30 -18 24 -12 -3 -32 -19 -45 -35 -31
-38 -42 -37 -42 6 0 23 5 35 13 34 32 -4 40 1 27 16 -10 13 -9 15 11 16 13 0
18 3 11 6 -6 2 -10 9 -6 14 3 5 -4 9 -15 9 -11 0 -24 -8 -30 -17 -20 -36 -20
-5 0 33 12 21 15 33 8 27 -11 -11 -15 -8 -25 15 l-12 27 -1 -34 c-1 -29 -3
-32 -16 -21 -19 16 -19 6 1 -25 9 -13 14 -30 11 -37 -3 -9 -8 -6 -13 7 -5 11
-19 21 -31 22 -21 2 -22 1 -10 -25 6 -15 16 -30 22 -34 6 -5 2 -8 -9 -8 -15 0
-16 -3 -6 -15 10 -12 9 -15 -4 -15 -10 0 -26 5 -37 10 -16 9 -19 8 -16 -9 2
-10 9 -26 16 -35 9 -11 10 -16 2 -16 -6 0 -11 -4 -11 -10 0 -5 11 -10 25 -10
14 0 25 -5 25 -11 0 -5 5 -7 10 -4 6 3 10 2 10 -4 0 -6 7 -8 15 -5 8 4 15 1
15 -6 0 -13 -49 -10 -84 5 -14 6 -17 5 -12 -4 6 -9 0 -9 -20 2 -24 11 -33 12
-54 0 l-25 -13 23 -6 c12 -4 22 -11 22 -16 0 -5 5 -6 10 -3 6 3 13 -1 16 -9 3
-9 10 -13 15 -10 5 3 16 1 26 -4 11 -6 27 -5 50 4 42 18 42 12 1 -14 -22 -14
-37 -18 -49 -12 -10 6 -29 6 -48 0 -18 -5 -33 -5 -36 0 -3 5 -21 2 -39 -7 -37
-17 -66 -12 -66 11 0 10 6 13 16 9 13 -5 15 -2 9 15 -3 12 -3 22 2 22 5 0 9 8
10 18 1 15 -4 17 -28 14 -40 -6 -79 5 -79 23 0 9 6 12 15 9 25 -10 47 14 34
38 -9 17 -8 19 10 13 15 -5 21 -2 21 10 0 8 7 18 15 21 8 4 12 10 9 15 -3 5 0
9 5 9 17 0 13 26 -6 41 -9 8 -25 13 -36 11 -12 -2 -17 1 -13 7 14 22 -5 31
-30 14 -29 -19 -66 -7 -84 27 -10 19 -9 20 14 14 17 -4 26 -2 26 6 0 10 3 10
15 0 10 -9 15 -9 15 -1 0 6 12 11 26 11 18 0 25 4 21 14 -3 7 0 19 6 25 6 6 8
11 3 11 -4 0 2 12 14 27 20 25 20 27 3 37 -10 5 -21 14 -24 19 -4 5 -15 5 -28
-2 -18 -10 -21 -9 -21 9 0 21 -14 27 -25 10 -3 -5 -13 -10 -20 -10 -20 0 -86
60 -79 71 4 6 10 6 18 0 6 -5 21 -8 31 -7 11 2 26 -1 32 -6 9 -7 15 -5 20 8 4
11 13 25 20 32 6 7 9 20 6 30 -6 15 -5 15 10 3 14 -11 17 -11 17 -1 0 8 7 22
17 32 15 17 15 18 0 18 -10 0 -17 5 -17 11 0 8 -5 8 -15 -1 -12 -10 -16 -9
-21 4 -6 15 -8 15 -21 -4 -8 -11 -18 -20 -23 -20 -16 0 -70 52 -70 67 0 12 3
13 13 4 8 -6 17 -8 20 -4 4 3 7 1 7 -5 0 -7 5 -12 10 -12 6 0 10 10 10 22 0
21 0 21 21 2 22 -19 22 -19 14 6 -7 22 -6 23 9 11 14 -12 16 -11 16 3 0 9 5
16 11 16 5 0 8 4 5 9 -3 5 1 11 9 15 19 7 20 26 1 26 -8 0 -16 6 -19 13 -4 10
-7 10 -18 0 -16 -16 -29 -17 -29 -2 0 6 -6 17 -14 24 -12 12 -16 11 -31 -5
-19 -21 -49 -16 -41 7 4 8 -4 17 -19 23 -14 5 -25 12 -25 15 0 4 5 3 10 0 6
-3 10 2 10 12 1 17 1 17 11 1 12 -22 31 -24 23 -3 -4 8 -1 15 4 15 6 0 14 -9
17 -20 7 -23 25 -27 25 -5 0 8 6 12 13 9 8 -3 20 3 28 12 12 14 10 19 -14 40
-15 13 -27 30 -27 39 0 18 -12 19 -28 3 -17 -17 -15 4 4 30 15 22 15 24 -2 37
-18 13 -17 14 10 36 26 20 27 24 12 35 -14 10 -15 16 -4 40 9 19 9 29 2 31 -6
2 -9 16 -7 31 4 21 2 24 -6 12 -6 -8 -16 -15 -22 -15 -7 0 -16 -11 -19 -25 -4
-14 -15 -41 -26 -60 l-19 -35 -6 55 c-7 67 -2 85 17 69 11 -9 14 -9 14 0 0 7
5 9 10 6 16 -10 11 17 -7 37 -15 17 -15 18 12 18 27 0 27 1 12 18 -13 14 -14
21 -5 30 15 15 7 23 -19 16 -13 -4 -24 -17 -28 -37 -7 -26 -9 -28 -12 -11 -2
12 5 44 16 73 17 46 14 69 -6 39 -5 -8 -10 4 -14 32 l-6 45 -1 -54z m-15 -223
c-3 -8 -6 -5 -6 6 -1 11 2 17 5 13 3 -3 4 -12 1 -19z m-3 -84 c10 -25 -1 -29
-14 -5 -6 12 -7 21 -1 21 5 0 12 -7 15 -16z m5045 -69 c0 -5 -4 -3 -9 5 -5 8
-9 22 -9 30 0 16 17 -16 18 -35z m-4968 12 c-10 -9 -11 -8 -5 6 3 10 9 15 12
12 3 -3 0 -11 -7 -18z m-21 -21 c0 -3 -4 -8 -10 -11 -5 -3 -10 -1 -10 4 0 6 5
11 10 11 6 0 10 -2 10 -4z m4974 -52 c10 -25 -1 -29 -14 -5 -6 12 -7 21 -1 21
5 0 12 -7 15 -16z m-4945 -23 c9 -6 10 -11 2 -15 -6 -4 -11 -3 -11 3 0 5 -8
12 -17 14 -13 3 -14 5 -3 6 8 0 21 -3 29 -8z m2310 -61 c0 -10 -3 -8 -9 5 -12
27 -12 43 0 25 5 -8 9 -22 9 -30z m2706 10 c-10 -11 -23 -20 -28 -20 -6 0 1
10 14 23 29 28 40 25 14 -3z m-2711 -89 c-6 -6 -24 19 -24 34 1 6 7 1 15 -9 8
-11 12 -22 9 -25z m2716 15 c0 -11 -19 -15 -25 -6 -3 5 1 10 9 10 9 0 16 -2
16 -4z m-2637 -41 c-3 -9 -8 -14 -10 -11 -3 3 -2 9 2 15 9 16 15 13 8 -4z
m-2416 -17 c-3 -8 -6 -5 -6 6 -1 11 2 17 5 13 3 -3 4 -12 1 -19z m3741 -19
c-3 -8 -7 -3 -11 10 -4 17 -3 21 5 13 5 -5 8 -16 6 -23z m-1348 17 c0 -3 -4
-8 -10 -11 -5 -3 -10 -1 -10 4 0 6 5 11 10 11 6 0 10 -2 10 -4z m1340 -77 c0
-6 -4 -7 -10 -4 -5 3 -10 11 -10 16 0 6 5 7 10 4 6 -3 10 -11 10 -16z m-3837
-11 c25 5 21 -15 -5 -21 -26 -7 -38 -1 -38 19 0 10 5 12 13 7 6 -4 20 -6 30
-5z m3902 -38 c-10 -11 -21 -18 -23 -15 -3 3 3 12 14 20 27 20 30 18 9 -5z
m1232 -2 c-3 -8 -6 -5 -6 6 -1 11 2 17 5 13 3 -3 4 -12 1 -19z m-417 -3 c7 -9
8 -15 2 -15 -5 0 -12 7 -16 15 -3 8 -4 15 -2 15 2 0 9 -7 16 -15z m81 -48
c-10 -9 -11 -8 -5 6 3 10 9 15 12 12 3 -3 0 -11 -7 -18z m-3276 -38 c11 -17
-1 -21 -15 -4 -8 9 -8 15 -2 15 6 0 14 -5 17 -11z m3516 -4 c23 4 23 4 4 -11
-25 -19 -49 -14 -54 11 -3 16 -1 17 11 7 8 -6 25 -10 39 -7z m-3436 -35 c-9
-14 -45 -32 -45 -23 0 7 24 22 48 32 2 0 0 -3 -3 -9z m1779 -16 c3 -8 2 -12
-4 -9 -6 3 -10 10 -10 16 0 14 7 11 14 -7z m541 6 c3 -6 -4 -10 -17 -10 -18 0
-20 2 -8 10 19 12 18 12 25 0z m898 -38 c4 10 9 8 17 -5 9 -14 15 -16 25 -7
11 9 21 7 46 -11 27 -19 29 -23 15 -31 -11 -6 -21 -4 -32 6 -18 18 -30 20 -39
6 -10 -17 -48 -12 -41 5 3 10 -1 15 -14 15 -10 0 -22 5 -26 12 -4 7 -3 8 4 4
7 -4 12 -2 12 5 0 9 3 9 14 0 11 -9 15 -9 19 1z m-2430 -29 c-22 -17 -40 -16
-46 0 -4 10 4 13 29 13 30 -1 32 -3 17 -13z m1494 -5 c-3 -8 -6 -5 -6 6 -1 11
2 17 5 13 3 -3 4 -12 1 -19z m-2849 -19 c-3 -8 -7 -3 -11 10 -4 17 -3 21 5 13
5 -5 8 -16 6 -23z m62 18 c25 7 25 -4 -1 -46 -16 -27 -23 -31 -30 -20 -11 17
-12 63 -2 73 4 4 9 3 11 -2 2 -6 12 -8 22 -5z m2345 -27 c-10 -11 -23 -20 -29
-20 -6 0 0 9 14 20 32 25 38 25 15 0z m1332 -12 c-3 -8 -6 -5 -6 6 -1 11 2 17
5 13 3 -3 4 -12 1 -19z m-3741 -35 c-7 -7 -26 7 -26 19 0 6 6 6 15 -2 9 -7 13
-15 11 -17z m3949 1 c14 -22 15 -28 4 -35 -24 -15 -58 -10 -69 11 -8 16 -8 18
4 14 9 -3 17 3 21 15 9 28 19 26 40 -5z m-1195 4 c25 2 25 2 3 -9 -24 -13 -53
-6 -53 11 0 6 5 8 13 3 6 -4 23 -6 37 -5z m-330 -18 c8 -5 11 -10 5 -10 -5 0
-17 5 -25 10 -8 5 -10 10 -5 10 6 0 17 -5 25 -10z m1400 -17 c8 -1 17 3 21 9
9 14 29 1 29 -19 0 -9 -6 -13 -14 -10 -7 3 -18 1 -23 -4 -5 -5 -18 -3 -31 7
-23 16 -32 41 -9 27 6 -4 19 -8 27 -10z m-173 -6 c3 -4 -8 -7 -25 -7 -18 0
-32 4 -32 8 0 9 47 8 57 -1z m-3597 -1 c0 -3 -4 -8 -10 -11 -5 -3 -10 -1 -10
4 0 6 5 11 10 11 6 0 10 -2 10 -4z m1887 -48 c-3 -8 -6 -5 -6 6 -1 11 2 17 5
13 3 -3 4 -12 1 -19z m-1502 -29 c-30 -12 -45 -10 -45 4 0 10 10 12 32 9 28
-4 30 -6 13 -13z m3422 -42 c6 -4 14 -3 18 2 6 11 35 4 35 -9 0 -11 -39 -20
-45 -9 -3 4 -16 4 -28 0 -17 -7 -30 -4 -46 8 l-23 18 39 -2 c21 0 44 -4 50 -8z
m-509 -22 c-3 -3 -9 2 -12 12 -6 14 -5 15 5 6 7 -7 10 -15 7 -18z m82 6 c0
-11 -31 -51 -39 -51 -11 0 -24 48 -17 59 6 9 56 2 56 -8z m-3872 -26 c-3 -3
-9 2 -12 12 -6 14 -5 15 5 6 7 -7 10 -15 7 -18z m2742 -1 c0 -2 -13 -4 -30 -4
-16 0 -30 4 -30 8 0 5 14 7 30 4 17 -2 30 -6 30 -8z m1041 -21 c13 -16 12 -17
-3 -4 -17 13 -22 21 -14 21 2 0 10 -8 17 -17z m-2680 -21 c10 -27 0 -28 -47
-6 -50 24 -51 34 -3 31 33 -2 44 -8 50 -25z m1459 11 c0 -2 -5 -13 -11 -24
-10 -19 -12 -20 -29 -4 -25 22 -16 43 16 37 13 -2 24 -6 24 -9z m518 -28 l27
-25 -43 2 c-23 1 -44 -1 -47 -4 -3 -3 8 -18 25 -34 34 -33 39 -50 10 -34 -12
6 -30 8 -40 5 -14 -5 -20 -2 -20 10 0 12 -4 14 -19 5 -21 -11 -56 -2 -94 25
-21 15 -20 15 22 10 23 -3 47 -7 51 -10 5 -3 20 9 34 26 14 17 26 28 26 24 0
-4 7 1 16 9 20 21 20 20 52 -9z m880 -11 c4 2 12 -2 19 -9 16 -17 -1 -24 -44
-18 -34 5 -43 17 -20 26 7 3 5 6 -5 6 -10 1 -18 5 -18 10 0 18 35 17 48 -1 7
-10 16 -16 20 -14z m-3569 -5 c-18 -11 -46 -12 -53 -1 -3 4 11 9 31 9 25 1 32
-2 22 -8z m2272 -29 c33 -31 34 -30 -18 -46 -7 -2 -19 3 -27 11 -8 8 -19 15
-25 15 -19 0 -12 18 10 23 12 3 18 10 14 16 -13 22 16 10 46 -19z m1673 -17
c-23 -17 -60 -17 -67 0 -3 8 9 12 40 13 40 0 43 -1 27 -13z m-1210 -19 c-7 -3
-10 -14 -7 -24 4 -15 -3 -23 -28 -34 -19 -8 -37 -12 -41 -10 -9 6 63 74 77 73
6 0 5 -3 -1 -5z m783 -17 c6 -4 15 -3 18 3 5 8 14 6 30 -4 20 -13 25 -13 35
-1 7 8 18 15 24 14 7 0 6 -2 -1 -6 -7 -2 -13 -11 -13 -18 0 -18 -30 -28 -46
-15 -7 7 -27 8 -48 4 -24 -4 -36 -2 -36 5 0 6 -6 11 -14 11 -8 0 -17 4 -20 8
-6 10 55 9 71 -1z m-2459 -22 c-3 -3 -9 2 -12 12 -6 14 -5 15 5 6 7 -7 10 -15
7 -18z m82 6 c0 -11 -31 -51 -39 -51 -11 0 -24 48 -17 59 6 9 56 2 56 -8z
m-1463 3 c-3 -3 -12 -4 -19 -1 -8 3 -5 6 6 6 11 1 17 -2 13 -5z m1374 -51 c13
-16 12 -17 -3 -4 -10 7 -18 15 -18 17 0 8 8 3 21 -13z m1155 -1 c1 -7 0 -8 -2
-3 -3 6 -19 7 -36 4 -19 -4 -29 -2 -25 3 8 14 60 11 63 -4z m-2728 -22 c7 0
12 -5 12 -11 0 -6 -7 -8 -16 -5 -11 4 -18 -1 -21 -14 -9 -32 -30 -6 -25 30 4
28 6 30 21 15 10 -8 23 -15 29 -15z m1420 16 c15 20 82 8 82 -15 0 -14 -44
-21 -51 -9 -4 6 -19 8 -37 5 -21 -4 -32 -2 -35 7 -8 20 4 28 20 14 9 -7 17 -8
21 -2z m1347 -4 c-3 -3 -11 0 -18 7 -9 10 -8 11 6 5 10 -3 15 -9 12 -12z
m-2397 -27 c11 -14 25 -25 30 -25 6 0 14 -5 18 -11 5 -9 -1 -10 -22 -4 -16 4
-36 8 -44 9 -8 0 -18 5 -21 9 -4 5 -16 3 -27 -4 -18 -11 -27 -10 -58 4 -41 20
-41 33 0 18 18 -8 26 -7 26 0 0 6 9 9 20 6 11 -3 20 -1 20 5 0 5 5 6 10 3 6
-3 10 -1 10 4 0 19 18 12 38 -14z m1377 -5 c-7 -12 11 -28 35 -31 14 -2 28 -8
33 -14 5 -6 12 -5 20 5 6 8 26 16 42 17 l30 2 -30 -24 c-16 -14 -36 -25 -42
-25 -18 0 -16 -10 5 -26 16 -12 15 -14 -8 -15 -76 -6 -170 -5 -170 3 0 4 -7 8
-17 8 -24 0 -7 13 22 16 13 1 27 -2 31 -7 4 -6 10 -7 17 0 13 10 17 11 43 11
14 0 14 3 4 15 -7 8 -19 15 -26 15 -8 0 -14 5 -14 10 0 6 -7 10 -15 10 -18 0
-20 16 -2 23 7 3 5 6 -5 6 -10 1 -18 6 -18 12 0 5 4 8 9 4 5 -3 12 -1 16 5 4
6 13 5 25 -2 10 -7 17 -15 15 -18z m1381 -12 c-17 -10 -69 5 -74 22 -3 9 2 11
17 7 11 -3 21 -1 21 4 0 6 11 2 24 -8 17 -13 20 -20 12 -25z m743 21 c-18 -11
-46 -12 -53 -1 -3 4 11 9 31 9 25 1 32 -2 22 -8z m671 2 c0 -12 -46 -41 -65
-41 -8 0 -15 5 -15 10 0 6 9 10 20 10 10 0 25 7 32 15 15 16 28 19 28 6z
m-4460 -17 c0 -2 -13 -4 -30 -4 -16 0 -30 4 -30 8 0 5 14 7 30 4 17 -2 30 -6
30 -8z m1550 12 c0 -3 -4 -8 -10 -11 -5 -3 -10 -1 -10 4 0 6 5 11 10 11 6 0
10 -2 10 -4z m-76 -30 c33 -11 35 -14 16 -19 -27 -7 -73 9 -65 23 7 12 2 12
49 -4z m-1624 -27 c3 -4 18 -11 33 -14 22 -6 26 -10 16 -19 -8 -8 -13 -8 -16
1 -3 8 -12 9 -27 3 -30 -11 -99 26 -75 40 15 10 60 2 69 -11z m2855 11 c3 -5
-5 -15 -19 -21 -19 -9 -29 -8 -48 5 l-23 17 33 -6 c18 -3 32 -1 32 5 0 13 17
13 25 0z m500 -6 c-11 -8 -30 -17 -42 -21 -25 -6 -28 -14 -12 -30 7 -7 1 -12
-22 -17 -23 -4 -38 -2 -48 9 -14 13 -13 15 3 15 11 0 33 11 50 23 34 26 53 35
76 36 11 0 10 -4 -5 -15z m895 11 c0 -6 -56 -35 -67 -35 -4 0 6 9 22 20 29 19
45 25 45 15z m-3355 -34 c-3 -3 -11 -6 -18 -8 -7 -1 -23 -5 -37 -9 -18 -4 -33
1 -50 16 -23 19 -23 21 -4 15 12 -3 32 -1 45 3 23 9 75 -5 64 -17z m598 10 c4
-1 7 -6 7 -12 0 -6 -9 -8 -22 -4 -34 11 -47 26 -18 21 14 -2 28 -5 33 -5z
m-1003 -36 c17 21 29 19 23 -5 -7 -28 -30 -44 -50 -35 -10 5 -28 7 -40 6 -13
-1 -23 2 -23 7 0 4 -14 7 -30 4 -30 -4 -90 14 -90 27 0 9 66 5 81 -5 6 -3 20
4 31 15 l20 22 33 -25 c29 -22 35 -24 45 -11z m1170 20 c0 -9 -64 -45 -80 -45
-8 1 5 12 30 25 51 27 50 27 50 20z m2527 -14 c16 -9 15 -11 -7 -12 -40 -2
-63 2 -90 17 -23 13 -22 13 27 10 29 -3 60 -9 70 -15z m-3137 1 c0 -10 -45
-32 -65 -32 -8 0 -15 -4 -15 -10 0 -5 7 -10 16 -10 8 0 12 -4 9 -10 -3 -5 -22
-10 -42 -10 l-36 0 21 23 c12 13 19 27 15 32 -5 4 -2 5 5 1 7 -4 19 -2 27 4 8
7 15 9 15 6 0 -4 8 -2 18 3 21 13 32 14 32 3z m-955 -22 c3 -5 4 -10 1 -10 -2
0 -12 -3 -20 -6 -12 -5 -15 -2 -10 10 7 18 20 21 29 6z m2800 -40 c3 -5 1 -10
-4 -10 -6 0 -11 5 -11 10 0 6 2 10 4 10 3 0 8 -4 11 -10z m-31 -12 c-3 -4 -9
-8 -15 -8 -5 0 -9 4 -9 8 0 5 7 9 15 9 8 0 12 -4 9 -9z m-1344 -8 c13 -8 13
-10 -2 -10 -9 0 -20 5 -23 10 -8 13 5 13 25 0z m2315 1 c3 -5 2 -12 -3 -15
-13 -8 -53 5 -46 15 7 12 41 12 49 0z m1150 -11 c-3 -5 -10 -10 -16 -10 -5 0
-9 5 -9 10 0 6 7 10 16 10 8 0 12 -4 9 -10z m-4935 -15 c0 -1 -12 -2 -26 -2
-17 0 -22 2 -13 7 10 7 39 3 39 -5z m2381 0 c15 5 20 3 17 -6 -7 -21 -73 -35
-103 -21 -36 16 -32 35 5 27 20 -4 30 -3 30 5 0 10 3 10 15 0 8 -6 23 -9 36
-5z m1334 -5 c20 -22 9 -26 -29 -9 -14 7 -23 16 -20 20 9 15 30 10 49 -11z
m-2915 0 c0 -5 -5 -10 -11 -10 -5 0 -7 5 -4 10 3 6 8 10 11 10 2 0 4 -4 4 -10z
m3320 -10 c0 -5 -5 -10 -11 -10 -5 0 -7 5 -4 10 3 6 8 10 11 10 2 0 4 -4 4
-10z m-3752 -9 c11 -7 10 -10 -3 -15 -27 -10 -50 -7 -71 9 -18 13 -16 14 21
15 22 0 46 -4 53 -9z m132 -5 c-22 -21 -63 -31 -58 -15 3 8 18 17 34 20 16 4
31 7 34 8 2 0 -2 -5 -10 -13z m-480 -21 c-7 -9 -15 -13 -17 -11 -7 7 7 26 19
26 6 0 6 -6 -2 -15z m400 11 c0 -3 -4 -8 -10 -11 -5 -3 -10 -1 -10 4 0 6 5 11
10 11 6 0 10 -2 10 -4z m489 -22 c6 4 11 0 11 -8 0 -11 -9 -16 -30 -16 -33 0
-36 4 -17 24 7 9 14 10 18 4 4 -6 12 -7 18 -4z m956 -8 l30 -13 -30 -15 c-36
-19 -137 -15 -167 6 -18 13 -15 14 33 11 35 -2 57 1 66 11 17 17 29 17 68 0z
m1365 -16 c0 -5 -7 -10 -15 -10 -8 0 -15 5 -15 10 0 6 7 10 15 10 8 0 15 -4
15 -10z m-2260 -4 c0 -2 -7 -7 -16 -10 -8 -3 -12 -2 -9 4 6 10 25 14 25 6z
m1427 -28 c-15 -5 -24 -14 -21 -20 4 -7 2 -8 -4 -4 -7 4 -12 2 -12 -3 0 -6
-12 -11 -26 -11 -14 0 -23 4 -19 10 3 6 15 10 26 10 10 0 19 4 19 9 0 10 23
18 50 19 8 0 3 -4 -13 -10z m1434 -34 c-33 -15 -48 -13 -38 3 3 5 20 9 39 10
l33 2 -34 -15z m-3771 -4 c0 -5 -3 -10 -7 -10 -5 0 -19 -3 -33 -6 l-25 -5 25
15 c30 18 40 20 40 6z m-192 -63 c-23 -8 -44 5 -34 21 4 7 15 6 30 -1 25 -12
25 -12 4 -20z m578 15 c-10 -2 -22 0 -28 6 -6 6 0 7 19 4 21 -5 23 -7 9 -10z
m-439 2 c-3 -3 -12 -4 -19 -1 -8 3 -5 6 6 6 11 1 17 -2 13 -5z m1783 -15 c0
-14 -36 -11 -49 4 -8 11 -5 13 19 9 17 -2 30 -8 30 -13z m1920 -64 c19 -1 43
2 52 7 10 5 19 4 23 -2 4 -6 10 -8 14 -6 4 3 13 1 21 -4 20 -12 -54 -30 -111
-27 -41 3 -99 28 -99 43 0 3 15 2 33 -2 17 -4 48 -9 67 -9z m-4328 -34 c7 10
11 11 14 2 3 -7 13 -9 22 -6 15 4 15 3 2 -6 -14 -10 -80 -16 -80 -7 0 2 3 12
6 21 7 16 8 16 17 0 8 -14 11 -15 19 -4z m2904 -16 c31 -8 59 -16 61 -19 2 -2
-9 -8 -26 -14 -23 -8 -36 -7 -62 7 -18 10 -35 23 -37 29 -5 15 -4 15 64 -3z
m2771 -91 c-3 -3 -12 -4 -19 -1 -8 3 -5 6 6 6 11 1 17 -2 13 -5z m-1327 -78
c0 -11 -19 -15 -25 -6 -3 5 1 10 9 10 9 0 16 -2 16 -4z m1310 -116 c10 0 11
-3 3 -11 -12 -12 -63 -2 -63 13 0 6 10 8 23 4 12 -3 29 -6 37 -6z m-3987 -101
c10 8 17 8 22 2 8 -14 -38 -25 -67 -15 -22 7 -22 7 -3 14 11 4 23 3 27 -3 4
-7 11 -7 21 2z m3314 -11 c-3 -8 -6 -5 -6 6 -1 11 2 17 5 13 3 -3 4 -12 1 -19z
m56 8 c7 4 5 -1 -5 -11 -20 -22 -45 -11 -26 12 8 10 14 11 16 4 2 -6 9 -8 15
-5z m-3826 -32 c-9 -9 -28 6 -21 18 4 6 10 6 17 -1 6 -6 8 -13 4 -17z m1411
-156 c-3 -7 -15 -14 -29 -16 -23 -2 -23 -2 -5 13 24 18 39 20 34 3z"/>
</g>
</svg>
