<?xml version="1.0" standalone="no"?>
<!DOCTYPE svg PUBLIC "-//W3C//DTD SVG 20010904//EN"
 "http://www.w3.org/TR/2001/REC-SVG-20010904/DTD/svg10.dtd">
<svg version="1.0" xmlns="http://www.w3.org/2000/svg"
 width="1300.000000pt" height="640.000000pt" viewBox="0 0 1300.000000 640.000000"
 preserveAspectRatio="xMidYMid meet">
<style>
.feature {
    fill: #e39f7d;
}
.outline {
    fill: #deac92;
}
</style>
<g transform="translate(0.000000,640.000000) scale(0.100000,-0.100000)"
fill="#000000" stroke="none">
<path class="outline" d="M3070 5609 c-34 -14 -66 -45 -80 -78 -16 -40 -78 -54 -157 -36 -100
23 -247 -8 -297 -64 -28 -30 -123 -94 -176 -118 -28 -13 -90 -64 -163 -136
-73 -72 -130 -120 -151 -127 -44 -14 -121 -96 -151 -163 -14 -28 -25 -58 -25
-64 0 -7 -12 -19 -27 -27 -16 -8 -50 -33 -76 -57 l-49 -42 -76 21 c-103 28
-220 34 -300 13 -63 -15 -63 -15 -110 10 -26 15 -80 39 -119 53 -40 15 -75 32
-79 37 -10 17 -120 67 -182 83 -33 9 -98 32 -143 51 -45 20 -98 40 -118 45
-109 27 -212 62 -253 85 -25 14 -70 34 -101 44 -88 31 -143 73 -152 117 -6 36
-52 94 -74 94 -8 0 -11 -771 -11 -2675 l0 -2675 6500 0 6500 0 0 593 0 592
-67 58 c-37 31 -85 63 -107 71 -77 27 -311 95 -415 121 -57 13 -128 38 -157
55 -30 16 -78 43 -107 60 -29 16 -96 45 -148 64 -52 19 -134 52 -184 74 -49
21 -128 54 -175 71 -46 18 -110 46 -140 61 -31 15 -84 37 -118 49 -35 11 -76
30 -93 41 -52 38 -133 60 -214 60 -69 0 -133 12 -351 66 -43 11 -76 28 -110
56 -27 23 -72 52 -100 65 -28 12 -60 33 -70 44 -30 34 -98 60 -177 66 -60 5
-77 11 -104 34 -33 28 -116 59 -159 59 -13 0 -83 27 -156 61 -73 34 -187 78
-253 99 -66 20 -133 44 -150 52 -16 9 -59 23 -95 32 -60 15 -90 28 -255 107
-33 16 -91 41 -130 55 -83 32 -228 103 -279 138 -20 13 -59 29 -88 36 -71 17
-162 54 -194 79 -39 31 -191 74 -237 68 -67 -9 -117 -80 -103 -148 3 -16 2
-29 -3 -29 -17 0 -77 24 -111 45 -56 34 -256 125 -274 125 -22 0 -194 176
-212 217 -27 61 -161 143 -234 143 -15 0 -35 9 -45 20 -9 10 -38 27 -64 36
-98 37 -148 73 -179 127 -31 56 -92 115 -163 159 -24 15 -72 51 -105 80 -34
29 -101 87 -150 128 -48 41 -131 115 -184 166 -52 50 -124 110 -159 132 l-65
42 -145 2 c-214 3 -254 -1 -354 -33 -96 -32 -119 -32 -232 8 -24 8 -70 13
-115 11 -41 -1 -100 1 -132 6 -76 11 -141 0 -177 -30 l-30 -25 -12 22 c-6 12
-28 40 -49 63 -21 23 -59 73 -85 111 -74 109 -187 237 -251 285 -58 44 -99 78
-209 175 -67 59 -63 57 -156 94 -80 32 -227 124 -303 190 -26 23 -64 50 -84
60 -21 11 -53 36 -72 56 -19 20 -48 43 -63 52 -16 8 -48 29 -71 47 -59 45
-168 78 -261 80 -62 1 -75 4 -75 17 0 25 -40 70 -76 85 -38 16 -59 17 -94 3z"/>

<path class="feature" d="M3108 5718 c-21 -6 -38 -14 -38 -19 0 -5 -6 -9 -14 -9 -7 0 -24 -10
-38 -22 -73 -66 -88 -72 -198 -78 -77 -4 -112 -10 -130 -23 -13 -9 -34 -17
-46 -17 -25 0 -179 -100 -239 -154 -22 -20 -52 -43 -66 -51 -15 -8 -29 -20
-32 -28 -3 -7 -31 -31 -63 -53 -33 -21 -60 -42 -62 -46 -2 -5 -8 -8 -13 -8 -5
0 -27 -11 -48 -24 -21 -14 -42 -22 -45 -19 -3 4 -6 1 -6 -6 0 -7 -4 -10 -9 -6
-5 3 -15 -1 -23 -8 -7 -7 -27 -19 -45 -26 -42 -17 -124 -126 -167 -221 -31
-68 -88 -110 -150 -110 -29 0 -76 19 -76 31 0 8 -40 24 -52 21 -5 -1 -8 3 -8
9 0 5 -4 7 -10 4 -5 -3 -10 -2 -10 4 0 5 -10 13 -22 17 -13 4 -25 10 -28 13
-5 6 -109 55 -119 57 -3 0 -22 7 -41 16 -22 9 -82 17 -158 21 -100 5 -132 10
-170 29 -26 13 -51 29 -55 35 -4 7 -15 13 -22 13 -8 0 -15 5 -15 10 0 6 -7 10
-15 10 -8 0 -15 4 -15 9 0 10 -39 27 -52 23 -5 -1 -8 2 -8 8 0 5 -11 10 -25
10 -13 0 -50 7 -82 16 -32 9 -80 20 -108 24 -48 7 -168 61 -181 81 -3 5 -10 7
-15 4 -5 -4 -9 -1 -9 4 0 6 -7 11 -15 11 -8 0 -15 5 -15 10 0 6 -7 10 -15 10
-8 0 -15 4 -15 8 0 9 -71 47 -82 44 -5 -1 -8 2 -8 6 0 10 -50 37 -62 34 -5 -1
-8 2 -8 7 0 8 -43 29 -71 35 -8 2 -27 8 -42 14 -16 7 -33 12 -38 12 -5 0 -9
-67 -9 -160 0 -115 3 -160 12 -160 6 0 9 -3 5 -6 -16 -16 150 -224 178 -224
16 0 75 -75 81 -103 3 -12 7 -35 8 -52 5 -44 15 -84 30 -119 15 -36 107 -136
125 -136 7 0 19 -7 27 -15 18 -18 54 -20 54 -3 0 6 3 8 7 5 3 -4 21 9 40 28
29 30 33 41 33 86 0 39 5 58 23 79 22 26 38 27 66 4 2 -2 -6 -15 -16 -31 -41
-58 -35 -118 17 -168 33 -32 16 -29 260 -39 41 -2 82 -6 90 -10 15 -7 39 -36
110 -136 21 -30 43 -59 47 -65 5 -5 23 -33 41 -62 39 -60 84 -103 172 -163 35
-24 73 -51 84 -61 12 -10 52 -37 90 -60 58 -35 72 -40 92 -30 13 5 29 19 35
29 11 17 25 6 149 -121 141 -143 166 -159 203 -129 9 9 17 28 17 44 l0 29 22
-21 c12 -11 25 -20 28 -20 7 0 70 -87 96 -132 6 -10 18 -24 26 -31 36 -30 124
-157 169 -245 56 -108 111 -172 146 -172 43 0 43 54 0 101 -14 14 -28 36 -32
50 l-7 24 21 -22 c11 -12 21 -26 21 -30 0 -4 14 -21 30 -37 17 -15 45 -49 62
-75 17 -25 55 -70 84 -98 43 -43 60 -53 87 -53 18 0 38 5 45 12 15 15 16 58 1
58 -5 0 -8 4 -5 8 6 10 -327 342 -343 342 -6 0 -11 6 -11 13 0 16 -61 77 -77
77 -10 0 -40 33 -88 95 -11 15 -25 32 -30 38 -17 19 -51 77 -89 153 -20 39
-51 85 -69 102 -39 38 -45 45 -82 104 -17 27 -34 48 -38 48 -5 0 -6 4 -3 9 3
5 -4 20 -17 33 -12 14 -31 41 -41 61 -11 21 -23 37 -28 37 -4 0 -8 7 -8 15 0
8 -4 15 -10 15 -5 0 -10 5 -10 12 0 7 -11 28 -25 48 -13 19 -33 60 -44 91 -17
50 -53 108 -104 164 -10 11 -37 44 -61 74 -38 48 -42 58 -33 78 8 17 18 23 44
23 19 0 43 5 54 11 11 6 28 12 38 14 36 7 111 69 148 123 21 31 37 58 36 61
-8 30 71 130 124 158 35 18 37 12 9 -19 -21 -21 -24 -34 -21 -79 3 -48 10 -89
15 -96 2 -2 4 -7 5 -13 1 -5 3 -11 5 -12 4 -6 10 -45 14 -94 5 -54 23 -94 42
-94 6 0 20 12 30 26 10 15 29 36 42 47 12 11 22 27 22 34 0 7 5 13 10 13 6 0
10 -17 10 -39 0 -21 3 -52 6 -68 5 -25 -1 -36 -40 -75 -49 -49 -64 -87 -50
-126 14 -39 39 -50 63 -28 12 11 21 25 21 33 0 8 5 19 10 26 24 28 61 83 66
100 4 9 11 17 16 17 10 0 7 37 -8 124 -4 23 -1 54 7 78 9 28 10 45 2 56 -13
21 -50 27 -69 12 -7 -7 -14 -9 -15 -4 0 5 -2 16 -4 24 -26 98 -32 137 -28 182
2 29 5 58 5 65 1 6 7 9 13 7 6 -3 33 16 60 41 27 24 65 56 86 70 20 15 49 40
64 56 14 17 72 60 128 96 74 48 113 67 145 71 l44 5 -7 -42 c-5 -33 -3 -46 11
-62 9 -10 22 -19 28 -19 11 0 39 27 47 46 22 48 54 83 82 90 38 8 105 40 130
62 16 14 17 13 18 -19 1 -19 0 -38 -2 -44 -1 -5 -4 -35 -7 -65 -2 -30 -5 -73
-7 -95 -10 -139 -12 -143 -65 -196 l-50 -50 3 -77 c2 -42 7 -85 11 -94 6 -13
0 -26 -21 -45 -46 -44 -112 -147 -113 -175 0 -10 -4 -18 -10 -18 -5 0 -10 -12
-10 -26 0 -14 4 -23 10 -19 6 3 10 1 10 -5 0 -28 47 -1 80 45 19 28 47 66 63
85 25 32 29 34 41 18 30 -41 79 -7 70 48 -2 16 -6 47 -7 69 -2 23 -11 56 -20
74 -25 50 -22 103 6 121 12 8 29 16 37 16 8 1 20 2 26 3 6 1 31 16 56 35 38
30 63 37 88 25 6 -2 28 -6 56 -8 29 -2 44 -41 44 -115 0 -59 -3 -67 -40 -114
-22 -27 -40 -55 -40 -61 0 -6 -4 -11 -9 -11 -5 0 -15 -23 -21 -51 -24 -98 5
-214 81 -327 16 -24 34 -63 39 -86 5 -24 14 -55 19 -68 13 -35 16 -277 4 -308
-6 -14 -11 -65 -12 -114 -1 -49 -4 -93 -7 -98 -11 -18 -14 -117 -5 -178 7 -51
6 -71 -5 -95 -22 -45 -56 -222 -57 -294 -1 -59 2 -66 30 -91 35 -31 36 -28
-36 -121 -48 -63 -71 -117 -71 -171 0 -38 4 -50 21 -60 11 -7 33 -40 49 -73
18 -37 52 -83 90 -120 34 -33 70 -75 81 -92 14 -22 28 -33 44 -33 47 0 45 42
-5 100 -16 19 -34 40 -40 47 -5 7 -10 17 -10 22 0 6 -6 14 -12 18 -26 16 -51
53 -57 85 -6 29 -4 35 21 50 15 10 28 25 28 33 0 8 5 15 11 15 5 0 8 4 5 9 -4
5 -1 11 4 13 6 2 12 13 13 26 0 12 4 22 8 22 3 0 14 19 24 43 9 23 22 51 28
62 6 11 12 34 14 50 2 17 4 35 5 42 1 6 11 24 23 39 l21 27 65 -55 64 -55 -3
-104 c-1 -57 -8 -116 -13 -131 -9 -22 -8 -34 8 -60 10 -18 28 -37 39 -43 41
-22 79 -66 76 -91 -8 -58 233 -300 291 -292 16 2 23 11 25 31 4 30 -30 69
-123 143 -48 37 -86 76 -81 82 6 5 64 -29 82 -49 10 -12 31 -27 45 -35 22 -11
29 -11 48 2 11 8 21 22 21 30 0 25 -83 99 -132 118 -27 10 -48 22 -48 27 0 5
-5 9 -11 9 -13 0 -39 25 -39 38 0 6 -3 12 -7 14 -5 2 -20 26 -34 53 -22 44
-26 62 -24 130 1 44 8 92 15 107 19 40 -1 78 -87 166 -40 41 -73 79 -73 83 0
5 -4 9 -10 9 -14 0 -13 33 1 47 13 13 15 79 5 157 -4 30 -2 54 5 63 6 7 8 13
4 13 -4 0 -2 7 5 15 8 9 14 50 15 103 1 62 7 97 21 122 10 19 19 51 19 70 2
69 5 90 13 90 7 0 40 -45 77 -106 11 -18 30 -44 41 -57 12 -14 25 -34 29 -46
3 -12 11 -21 16 -21 6 0 8 -4 4 -9 -3 -5 -1 -12 5 -16 5 -3 10 -17 10 -31 0
-14 4 -33 10 -43 5 -10 12 -31 15 -47 3 -16 7 -34 9 -41 1 -7 5 -15 8 -19 4
-3 4 -12 1 -20 -3 -8 0 -14 7 -14 6 0 9 -4 6 -9 -3 -5 8 -27 24 -50 36 -50 72
-54 119 -16 29 25 30 27 25 98 -3 40 -6 82 -9 94 -5 31 -70 162 -100 202 -14
19 -25 42 -25 51 0 9 -5 21 -11 27 -6 6 -12 19 -14 29 -2 11 -4 19 -5 19 -9 0
-5 108 6 137 15 43 14 38 14 79 l0 32 18 -24 c9 -13 28 -44 41 -69 29 -57 97
-120 173 -159 33 -18 69 -41 81 -51 11 -11 25 -20 30 -20 8 0 91 -55 112 -75
16 -15 85 -118 85 -127 0 -5 14 -27 30 -50 29 -40 38 -68 22 -68 -10 0 -36 31
-45 53 -14 36 -214 156 -237 142 -16 -10 -11 -32 11 -47 20 -13 27 -28 59
-118 7 -19 17 -46 22 -60 6 -14 9 -26 8 -28 -1 -2 6 -14 15 -28 9 -14 18 -35
20 -47 3 -11 8 -23 13 -26 5 -3 21 -31 35 -61 57 -118 129 -210 183 -236 34
-16 36 -16 59 6 17 16 22 30 19 53 -2 17 -7 33 -12 36 -5 3 -11 13 -15 21 -4
8 -18 32 -32 52 -29 44 -12 42 41 -5 24 -22 36 -43 41 -70 3 -21 12 -41 19
-44 8 -3 14 -11 14 -17 0 -7 8 -21 18 -32 14 -16 17 -38 17 -128 0 -79 4 -111
13 -114 6 -2 10 -8 6 -13 -3 -5 0 -9 5 -9 6 0 11 -6 11 -14 0 -44 79 -96 178
-117 31 -7 60 -18 64 -23 5 -8 13 -8 25 0 12 8 19 26 21 59 3 46 4 47 23 29
10 -9 19 -21 19 -25 0 -5 20 -50 45 -101 33 -67 47 -108 49 -148 2 -30 11 -71
19 -90 24 -59 30 -75 31 -80 4 -16 51 -90 58 -90 4 0 8 -7 8 -15 0 -8 11 -22
24 -30 29 -19 41 -52 45 -119 3 -59 24 -85 68 -84 55 2 72 33 69 125 -2 43 -6
88 -9 100 -6 23 6 32 18 13 10 -17 39 -11 52 9 13 21 10 110 -5 120 -12 8 -72
131 -72 148 0 7 6 13 13 13 13 0 77 -114 77 -136 0 -6 6 -17 14 -23 8 -6 22
-46 32 -88 10 -41 27 -90 39 -107 11 -17 24 -39 28 -48 3 -10 11 -18 17 -18 5
0 10 -5 10 -11 0 -9 21 -36 82 -100 9 -9 42 -54 73 -98 30 -44 68 -93 83 -109
18 -19 32 -50 40 -88 12 -59 79 -188 109 -211 16 -13 38 -63 51 -117 4 -15 3
-68 -2 -118 -9 -87 -8 -89 16 -116 14 -15 38 -58 53 -96 15 -38 30 -77 35 -85
29 -62 41 -93 56 -145 19 -68 49 -104 73 -89 18 12 26 47 15 71 -4 9 -8 22
-10 27 -39 122 -95 255 -142 338 -12 21 -22 48 -22 60 0 19 5 17 38 -21 41
-46 79 -55 116 -27 18 13 18 18 7 57 -7 24 -33 67 -57 97 -39 47 -43 57 -38
90 4 27 1 42 -13 57 -10 12 -36 43 -58 69 -63 74 -85 119 -84 172 1 27 -4 61
-10 76 -6 16 -9 32 -6 36 6 11 -11 161 -23 191 -5 14 -11 30 -12 35 -1 6 -7
19 -13 30 -6 11 -12 25 -13 30 -4 24 -66 144 -80 153 -5 4 -15 18 -23 32 -13
24 -13 24 5 9 10 -9 34 -24 53 -34 19 -9 44 -26 55 -37 12 -11 40 -33 64 -49
34 -24 42 -36 43 -62 0 -18 3 -41 5 -52 3 -11 7 -45 10 -75 3 -30 10 -61 16
-67 6 -7 7 -13 3 -13 -4 0 -2 -7 5 -15 7 -8 9 -15 5 -15 -4 0 -2 -7 5 -15 7
-8 9 -15 5 -15 -4 0 -2 -7 5 -15 7 -8 9 -15 6 -15 -4 0 1 -17 12 -38 24 -46
45 -93 48 -110 1 -7 10 -24 19 -38 9 -14 18 -35 20 -47 3 -11 8 -23 12 -26 5
-3 17 -22 27 -42 20 -38 52 -46 73 -19 13 18 -3 91 -33 150 -40 78 -44 89 -44
104 0 9 5 16 11 16 5 0 7 4 4 10 -3 5 0 10 7 10 13 0 38 -43 38 -64 0 -16 84
-133 143 -200 29 -33 60 -68 69 -78 20 -24 61 -20 66 5 2 10 -8 43 -22 73 -14
30 -26 59 -26 64 0 6 -4 10 -10 10 -5 0 -9 3 -8 8 4 9 -55 94 -109 159 -38 45
-43 56 -42 100 1 70 -2 86 -20 107 -9 10 -14 20 -11 22 3 2 -3 13 -12 24 -10
11 -18 25 -18 30 0 6 -4 10 -10 10 -5 0 -10 5 -10 10 0 24 -230 237 -237 220
-1 -3 -11 2 -21 10 -35 29 -81 60 -89 60 -4 1 -24 19 -43 42 -19 22 -47 54
-62 71 -15 16 -29 40 -32 53 -10 39 -82 143 -154 222 -37 41 -92 102 -122 135
-30 34 -79 86 -108 115 -30 30 -64 69 -77 88 -77 113 -191 243 -221 250 -24 6
-68 50 -100 100 -17 25 -11 23 46 -21 36 -27 79 -61 95 -76 41 -36 67 -40 104
-18 39 24 39 42 1 71 -16 12 -30 28 -30 35 0 7 -4 13 -10 13 -5 0 -10 6 -10
13 0 20 -120 157 -138 157 -15 0 -70 58 -97 101 -15 24 -42 60 -59 79 -17 20
-44 53 -61 75 -30 39 -83 101 -120 140 -43 45 -77 92 -91 125 -19 44 -11 100
14 100 10 0 34 11 54 25 37 25 38 25 225 21 181 -4 223 -9 223 -26 0 -5 9 -11
20 -15 10 -3 43 -29 72 -57 72 -69 117 -68 118 4 0 17 -8 33 -20 40 -26 16
-27 58 -2 58 95 0 248 12 256 20 17 17 23 11 30 -25 7 -36 49 -128 92 -202 14
-24 20 -43 15 -43 -5 0 -11 5 -13 11 -2 6 -36 14 -74 16 -94 7 -104 -5 -104
-127 0 -104 7 -119 105 -219 103 -106 143 -154 206 -246 30 -44 57 -82 60 -85
8 -7 22 -44 21 -52 -1 -5 3 -8 8 -8 6 0 10 -7 10 -16 0 -15 5 -29 40 -109 8
-16 13 -33 12 -37 -1 -5 3 -8 9 -8 5 0 8 -4 4 -9 -3 -5 2 -17 11 -25 8 -9 13
-16 9 -16 -3 0 1 -10 9 -23 7 -12 19 -40 26 -62 7 -22 16 -44 19 -50 11 -15
58 -134 71 -180 7 -22 18 -53 25 -70 30 -70 44 -113 38 -119 -3 -3 -1 -12 5
-19 7 -8 9 -17 6 -20 -3 -3 -2 -12 2 -19 5 -7 9 -19 10 -26 2 -8 6 -21 10 -30
4 -9 9 -26 11 -37 2 -10 9 -23 16 -27 6 -4 9 -8 4 -8 -9 0 92 -202 105 -211 5
-3 9 -9 9 -13 -3 -17 33 -66 82 -112 30 -28 63 -65 73 -83 10 -17 22 -31 26
-31 4 0 8 -6 8 -13 0 -7 13 -27 30 -45 16 -18 35 -42 40 -53 14 -24 83 -60
110 -56 33 5 43 22 36 61 -4 20 -11 36 -16 36 -6 0 -10 7 -10 15 0 8 -4 15
-10 15 -5 0 -10 5 -10 11 0 6 -14 30 -31 55 -44 65 -60 108 -63 178 -2 33 -13
95 -26 136 -12 41 -21 75 -20 75 6 0 -43 90 -56 103 -8 7 -12 18 -9 23 4 5 1
9 -5 9 -6 0 -8 5 -5 10 3 6 2 10 -3 10 -8 0 -26 44 -19 45 1 1 -6 13 -16 28
-9 15 -15 27 -12 27 2 0 -4 15 -14 33 -18 33 -15 67 8 82 6 3 11 21 11 38 0
31 1 32 45 33 63 2 74 18 71 96 l-2 65 21 -26 c43 -53 72 -98 100 -148 15 -29
32 -53 36 -53 4 0 10 -19 14 -42 8 -47 52 -120 109 -182 39 -43 39 -41 40
-206 2 -87 12 -126 40 -149 9 -8 16 -28 16 -47 0 -32 44 -139 61 -150 5 -3 9
-18 9 -33 0 -15 3 -31 6 -34 4 -3 8 -21 9 -39 8 -85 27 -120 63 -116 25 3 27
7 30 56 2 28 -1 52 -6 52 -5 0 -7 11 -4 25 2 15 0 25 -8 25 -7 0 -9 8 -5 19 3
10 -2 41 -12 67 -14 38 -17 66 -12 124 3 41 6 68 7 59 3 -25 36 -49 77 -56 25
-4 39 -12 43 -25 2 -10 9 -18 14 -18 5 0 7 -4 4 -8 -3 -5 2 -18 12 -28 9 -10
18 -32 20 -49 2 -16 8 -35 14 -42 5 -7 7 -16 4 -22 -3 -5 -2 -21 4 -35 5 -15
12 -38 14 -52 6 -30 33 -64 51 -64 7 0 15 -12 18 -27 12 -64 19 -88 32 -112
20 -36 75 -204 75 -228 0 -35 38 -74 68 -70 60 8 64 95 13 242 -26 75 -28 90
-24 199 2 69 0 123 -6 130 -5 6 -11 33 -12 59 -2 26 -7 47 -11 47 -5 0 -7 4
-3 9 3 5 1 13 -5 16 -8 5 -6 15 4 31 9 13 16 31 16 41 0 22 -28 104 -41 119
-5 7 -24 40 -40 75 -17 35 -34 66 -38 69 -12 9 -45 65 -43 73 1 4 -5 10 -13
13 -8 4 -15 11 -15 18 0 6 -11 23 -24 37 -13 15 -36 48 -50 75 -15 27 -35 63
-46 79 -28 43 -40 73 -40 100 0 19 4 23 18 18 34 -12 52 -36 52 -69 0 -33 18
-84 29 -84 3 0 44 -27 91 -60 47 -33 92 -60 100 -60 21 -1 88 -82 94 -112 2
-14 19 -41 38 -59 37 -37 111 -132 143 -183 37 -59 128 -152 158 -162 20 -6
57 21 57 41 0 7 -20 35 -44 62 -25 27 -48 63 -52 79 -4 16 -10 34 -14 39 -4 6
-13 27 -20 48 -6 21 -27 50 -46 65 -19 15 -34 32 -34 39 0 7 -9 30 -20 51 -18
35 -26 77 -29 154 -1 15 -7 33 -14 40 -29 30 -57 72 -57 84 0 19 26 18 34 -1
3 -8 25 -25 50 -36 42 -21 44 -25 56 -83 26 -132 114 -265 176 -266 51 0 58
46 19 125 -13 28 -25 65 -25 83 0 18 -4 41 -10 51 -5 10 -10 38 -11 62 -1 24
-10 55 -19 69 -21 30 -17 43 26 97 28 33 34 50 34 87 0 49 -5 56 -74 109 -21
16 -35 31 -33 33 8 9 267 -68 337 -99 14 -7 48 -29 77 -49 76 -55 83 -52 83
31 0 63 -2 70 -22 77 -13 3 -34 14 -48 23 -27 18 -96 41 -125 41 -9 0 -31 6
-48 14 -41 18 -139 46 -164 46 -10 0 -35 9 -55 19 -19 11 -39 17 -42 14 -3 -4
-6 -1 -6 5 0 7 -3 11 -7 10 -5 -1 -17 3 -28 9 -11 6 -24 11 -30 12 -5 0 -29 3
-51 7 -30 4 -49 1 -67 -11 -40 -26 -134 -12 -267 41 -25 10 -47 21 -50 24 -3
4 -35 24 -73 46 -37 21 -67 43 -67 49 0 13 -84 94 -173 168 -60 51 -82 62
-109 58 -5 0 -8 3 -8 8 0 6 -8 10 -17 9 -39 0 -131 22 -185 45 -42 18 -59 30
-91 67 -12 13 -41 44 -64 67 -24 23 -43 49 -43 59 0 20 -68 87 -112 110 -33
17 -77 62 -78 79 0 17 -95 112 -119 120 -11 3 -21 10 -21 15 0 5 -8 11 -18 14
-10 4 -27 14 -38 24 -10 9 -31 23 -45 30 -15 8 -37 24 -50 36 -13 12 -37 32
-54 44 -16 13 -46 38 -65 56 -65 58 -191 114 -272 119 -10 1 -18 5 -18 9 0 18
-32 6 -87 -33 l-58 -41 -80 6 c-44 4 -109 10 -145 16 -50 7 -96 4 -203 -11
-178 -25 -236 -24 -326 5 -69 22 -96 40 -85 58 3 4 0 8 -5 8 -6 0 -11 6 -11
13 0 22 -100 135 -153 173 -28 20 -91 57 -140 82 -53 26 -109 64 -136 91 -65
64 -132 121 -142 121 -5 0 -9 9 -9 19 0 11 -5 23 -10 26 -6 4 -8 11 -5 16 4 5
1 9 -4 9 -6 0 -10 3 -8 8 3 11 -65 82 -74 76 -5 -3 -9 -1 -9 5 0 11 -123 60
-174 68 -20 3 -36 9 -36 14 0 4 -11 14 -24 21 -13 7 -50 31 -82 54 -33 23 -70
44 -84 48 -40 12 -93 39 -120 64 -13 12 -29 22 -35 22 -10 0 -64 36 -145 98
-24 17 -59 37 -79 42 -20 6 -63 34 -96 65 -60 55 -129 95 -163 95 -10 0 -23 5
-29 11 -14 14 -90 18 -135 7z"/>
<path class="feature" d="M0 4499 l0 -245 50 -48 51 -49 -6 -56 c-15 -135 -5 -249 26 -292 10
-15 43 -78 74 -141 41 -87 55 -126 55 -160 0 -31 6 -50 19 -62 21 -19 43 -88
61 -191 12 -73 53 -168 80 -188 8 -7 24 -32 35 -57 28 -67 34 -72 77 -68 21 2
38 0 38 -3 0 -4 11 -20 24 -36 13 -16 34 -48 46 -71 21 -41 43 -60 65 -57 28
4 45 19 45 39 0 21 -35 105 -49 116 -3 3 -24 28 -46 55 -59 75 -118 135 -131
135 -20 0 -38 69 -37 138 1 34 -2 62 -6 62 -9 0 -31 45 -31 63 0 19 219 -214
222 -237 5 -33 62 -35 83 -2 16 24 16 29 -4 88 -12 35 -36 81 -54 103 -29 36
-58 66 -194 198 -24 23 -43 50 -43 61 0 23 -58 126 -71 126 -5 0 -9 6 -9 14 0
8 -5 16 -10 18 -6 2 -13 28 -17 58 -4 36 -12 59 -24 68 -9 6 -20 26 -24 42 -7
33 2 90 14 90 4 0 29 -42 56 -92 26 -51 58 -107 71 -125 13 -17 24 -36 24 -42
0 -16 40 -39 82 -46 31 -6 38 -4 48 15 19 35 6 97 -29 139 -33 39 -121 211
-121 236 0 8 -17 32 -39 54 -42 42 -121 153 -121 171 0 18 -73 122 -125 178
-27 30 -56 71 -64 91 -8 20 -32 63 -53 95 l-38 60 0 -245z"/>
<path class="feature" d="M3184 4565 c-10 -8 -31 -15 -46 -15 -31 0 -36 -7 -60 -77 -14 -40
-37 -220 -38 -289 0 -21 -53 -65 -72 -61 -10 3 -18 1 -18 -5 0 -5 -4 -7 -9 -4
-17 11 -45 -35 -44 -72 1 -25 -6 -45 -23 -65 -28 -33 -26 -26 -28 -101 -2 -58
-3 -59 -69 -126 -37 -37 -67 -72 -67 -79 0 -6 -4 -11 -10 -11 -5 0 -16 -13
-25 -30 -9 -16 -12 -30 -9 -30 4 0 0 -8 -8 -17 -19 -23 -18 -73 3 -86 31 -20
71 13 111 92 56 112 81 117 92 19 10 -99 51 -146 117 -136 22 3 25 9 32 83 8
79 9 80 58 127 27 25 49 53 49 61 0 9 14 25 30 37 25 18 81 105 80 125 0 3 0
6 1 8 7 22 1 65 -11 77 -24 24 -30 46 -17 59 6 6 8 11 4 11 -3 0 7 24 25 53
25 43 31 66 36 134 5 79 6 82 33 92 24 8 29 16 29 41 0 17 -6 41 -14 53 -8 12
-18 45 -21 72 -4 28 -12 56 -17 63 -14 17 -70 15 -94 -3z"/>
<path class="feature" d="M799 4234 c-25 -30 -22 -64 8 -90 36 -32 42 -36 83 -61 19 -12 51
-38 69 -57 19 -20 41 -36 48 -36 7 0 13 -5 13 -10 0 -6 20 -31 44 -57 28 -29
52 -68 66 -105 12 -33 29 -67 38 -77 10 -9 24 -28 33 -42 15 -22 15 -28 3 -52
-8 -15 -12 -27 -9 -27 4 0 -1 -7 -9 -16 -9 -8 -17 -22 -17 -30 -2 -18 -4 -24
-14 -48 -4 -10 -4 -21 1 -25 5 -3 9 -12 9 -18 0 -16 39 -67 85 -111 38 -37 40
-56 5 -87 -12 -12 -24 -28 -27 -36 -9 -28 -198 153 -198 190 0 27 -21 41 -62
41 -63 0 -77 -58 -32 -126 29 -43 114 -129 182 -184 24 -19 63 -64 87 -100 24
-36 53 -72 65 -80 13 -8 28 -21 36 -27 7 -7 15 -13 18 -13 3 0 17 -11 32 -25
14 -13 54 -38 88 -54 44 -22 66 -40 80 -65 10 -20 32 -40 50 -47 17 -7 63 -32
102 -56 39 -24 77 -43 83 -43 16 0 112 -95 105 -103 -4 -4 -14 -2 -24 3 -49
26 -92 -20 -55 -60 21 -23 181 -132 191 -130 4 1 10 -2 13 -8 8 -12 71 -33 82
-26 5 3 9 1 9 -5 0 -9 16 -14 76 -25 12 -3 45 -14 73 -27 47 -20 50 -23 36
-39 -25 -28 -19 -73 18 -113 17 -20 52 -59 77 -87 25 -27 48 -50 52 -50 4 0
18 -10 32 -22 41 -39 60 -53 65 -50 2 2 8 -3 13 -12 5 -9 13 -14 19 -11 5 4 9
1 9 -5 0 -6 5 -8 10 -5 6 3 10 1 10 -6 0 -7 3 -10 6 -6 3 3 11 1 18 -4 55 -46
76 -60 134 -86 37 -17 87 -39 112 -49 25 -10 47 -21 50 -24 3 -4 21 -15 40
-26 19 -10 51 -31 70 -46 20 -14 65 -41 100 -58 36 -17 92 -45 125 -62 33 -17
70 -31 82 -32 16 -1 24 -9 29 -29 3 -15 12 -34 21 -42 8 -9 16 -21 17 -28 3
-25 29 -77 37 -77 5 0 9 -6 9 -14 0 -8 6 -21 13 -28 6 -8 17 -22 23 -33 6 -10
19 -23 30 -29 10 -6 22 -15 26 -21 10 -13 42 6 46 28 4 18 -48 137 -60 137 -4
0 -8 4 -8 9 0 5 9 7 20 4 11 -3 20 -9 20 -14 0 -5 4 -9 10 -9 5 0 20 -10 33
-22 12 -13 41 -39 62 -58 22 -20 56 -55 75 -79 19 -23 41 -49 48 -57 7 -8 11
-14 7 -14 -3 0 2 -11 11 -26 21 -32 53 -29 73 8 14 25 14 29 -7 51 -12 13 -22
29 -22 35 0 7 -101 113 -225 236 -161 161 -225 231 -225 247 0 27 -74 102
-152 153 -29 20 -62 48 -73 62 -21 29 -118 104 -134 104 -5 0 -11 7 -15 15 -7
18 84 -25 113 -54 10 -10 40 -33 67 -51 27 -19 71 -55 97 -82 47 -46 87 -62
102 -38 10 16 -23 74 -63 112 -45 43 -247 198 -258 198 -5 0 -41 21 -80 48
-54 35 -76 57 -90 87 -10 22 -24 46 -31 53 -7 7 -13 22 -13 33 0 11 -6 26 -12
32 -27 25 -87 67 -134 93 -77 43 -82 47 -130 91 -25 23 -71 55 -102 71 -32 16
-79 41 -107 56 -27 14 -76 53 -107 86 -32 33 -62 60 -68 60 -6 0 -9 4 -6 9 3
5 -6 21 -19 35 -14 15 -25 30 -25 34 0 4 -11 18 -24 32 -42 43 -75 80 -73 81
7 2 46 11 72 15 24 4 44 -4 95 -38 66 -43 70 -45 94 -47 11 -1 45 -27 81 -61
70 -68 132 -115 154 -116 55 -2 68 52 24 98 -26 27 -26 28 -7 45 31 29 30 69
-5 103 -16 17 -32 30 -35 30 -3 0 -31 25 -62 55 -32 30 -58 55 -60 55 -12 0
-54 52 -66 81 -9 19 -31 47 -49 62 -19 15 -41 34 -50 42 -9 8 -21 15 -27 15
-5 0 -12 3 -14 8 -1 4 -29 20 -61 36 -35 18 -81 54 -115 92 -48 51 -77 71
-163 112 -57 27 -122 55 -144 61 -42 11 -117 76 -169 146 -17 22 -32 42 -35
45 -4 3 -19 30 -35 60 -16 30 -59 86 -95 123 -68 70 -199 157 -238 157 -12 0
-25 5 -29 11 -3 6 -15 9 -25 6 -10 -3 -19 -1 -21 4 -3 8 -60 21 -103 23 -11 1
-31 11 -45 24 -29 26 -81 29 -101 6z"/>
<path class="feature" d="M5442 3774 c-18 -19 -15 -29 11 -43 24 -13 64 -69 59 -83 -1 -5 3 -8
9 -8 5 0 7 -4 4 -10 -3 -5 -1 -10 4 -10 6 0 11 -6 11 -13 0 -8 9 -22 20 -32
11 -10 29 -37 40 -60 21 -44 42 -52 69 -26 12 10 12 17 3 32 -7 10 -12 24 -12
30 0 26 -33 120 -46 134 -9 8 -12 15 -9 15 4 0 -7 14 -25 30 -18 17 -34 30
-35 30 -2 0 -16 5 -32 12 -40 16 -57 17 -71 2z"/>
<path class="feature" d="M5892 3548 c-29 -29 -9 -106 40 -149 16 -14 18 -28 13 -99 -3 -53 0
-90 7 -104 7 -11 13 -26 14 -32 5 -28 17 -60 29 -74 7 -8 20 -37 30 -63 10
-27 31 -58 47 -70 22 -16 28 -29 28 -59 0 -46 12 -69 65 -125 26 -29 47 -43
65 -43 38 0 53 14 45 40 -4 12 -8 28 -9 34 -5 27 -31 86 -38 86 -14 0 -18 65
-8 120 12 62 13 66 10 133 -2 26 -6 47 -11 47 -5 0 -6 7 -3 15 4 8 -7 27 -25
46 -33 33 -38 48 -20 66 19 19 -16 79 -83 145 -86 84 -163 119 -196 86z"/>
<path class="feature" d="M4366 3328 c-17 -24 -21 -58 -7 -58 12 0 22 -40 10 -41 -5 -1 -15 -2
-21 -3 -20 -2 -41 -26 -44 -50 -1 -13 12 -37 33 -61 63 -71 85 -104 130 -196
33 -70 43 -103 44 -145 1 -30 5 -54 8 -54 4 0 8 -12 9 -27 2 -28 34 -82 101
-172 23 -30 39 -57 36 -59 -8 -9 -89 51 -128 95 -21 24 -43 43 -49 43 -20 0
-128 121 -149 167 -31 71 -46 83 -95 83 -70 0 -108 -55 -64 -93 11 -9 20 -22
20 -29 0 -14 28 -48 132 -160 34 -38 67 -68 72 -68 14 0 54 -37 86 -80 14 -18
42 -52 63 -74 22 -23 45 -55 52 -72 12 -30 240 -272 250 -266 20 9 45 0 45
-18 0 -11 5 -20 11 -20 5 0 7 -4 4 -10 -3 -5 -1 -10 4 -10 6 0 11 -6 11 -12 0
-22 67 -73 127 -97 32 -13 68 -30 80 -37 12 -8 47 -17 78 -20 49 -6 58 -4 80
16 14 13 25 35 25 49 0 33 -81 150 -137 198 -47 39 -133 139 -133 153 0 5 18
11 41 15 31 5 45 15 60 39 19 31 18 77 -2 84 -5 2 -9 9 -9 17 0 12 -52 63
-125 120 -97 76 -182 171 -213 237 -18 38 -40 76 -49 86 -10 10 -24 30 -32 45
-8 15 -18 27 -23 27 -4 0 -8 7 -8 15 0 8 -11 22 -25 31 -14 9 -25 21 -25 26 0
5 -11 24 -25 42 -13 17 -27 51 -31 74 -4 23 -10 42 -13 42 -4 0 -8 14 -9 31
-6 71 -106 209 -157 216 -15 2 -29 -4 -39 -19z"/>
<path class="feature" d="M0 2947 c0 -186 3 -230 16 -258 15 -31 74 -98 180 -203 23 -23 47
-51 54 -64 6 -13 18 -31 25 -40 8 -9 22 -27 32 -40 10 -13 25 -24 33 -25 25
-4 57 -31 64 -54 4 -12 33 -48 64 -80 31 -32 84 -91 117 -132 33 -40 78 -83
100 -95 89 -49 112 -68 160 -132 50 -66 144 -159 152 -150 3 3 14 -4 26 -15
36 -33 87 -20 87 23 0 10 -11 30 -24 45 -14 16 -52 59 -85 97 -34 37 -61 71
-61 75 0 5 -8 17 -17 29 -10 11 -29 36 -43 54 -14 18 -68 77 -120 131 -56 58
-122 141 -161 200 -93 146 -95 157 -22 132 77 -27 119 -58 223 -166 102 -107
106 -110 157 -116 57 -6 83 5 83 38 0 46 -246 289 -292 289 -10 0 -18 4 -18
10 0 11 -127 83 -146 83 -8 0 -14 4 -14 9 0 5 -4 6 -10 3 -5 -3 -10 -1 -10 4
0 6 -3 10 -7 9 -7 -3 -35 13 -97 54 -11 7 -33 28 -50 47 -17 18 -38 41 -46 50
-16 18 -26 37 -61 115 -23 55 -122 184 -147 193 -8 4 -23 14 -33 22 -22 20
-36 31 -76 59 l-33 23 0 -224z"/>
<path class="feature" d="M2766 2894 c-22 -22 -20 -37 9 -64 14 -13 23 -25 20 -28 -5 -5 76
-92 86 -92 3 0 30 -24 60 -52 102 -99 152 -139 173 -136 21 3 45 25 46 41 0
12 -129 137 -183 177 -26 19 -60 48 -75 64 -15 15 -43 46 -63 67 -41 43 -50
46 -73 23z"/>
<path class="feature" d="M1156 2858 c-21 -12 -21 -47 1 -55 28 -11 98 -90 95 -107 -2 -9 2
-16 9 -16 7 0 10 -3 7 -6 -4 -3 0 -22 9 -42 8 -20 17 -45 19 -56 4 -23 36 -70
46 -68 4 1 22 -13 41 -31 52 -48 66 -58 80 -56 28 5 56 -15 149 -103 28 -27
59 -48 70 -48 11 0 26 -6 33 -14 7 -7 43 -16 78 -20 69 -7 122 -27 131 -51 7
-19 33 -19 52 -1 20 20 18 42 -6 66 -11 11 -20 27 -20 35 0 8 -4 15 -8 15 -4
0 -16 14 -26 31 -23 38 -101 89 -137 89 -47 0 -161 58 -212 107 -11 10 -23 17
-28 15 -5 -1 -9 2 -9 8 0 6 -8 10 -17 10 -16 0 -82 63 -84 81 -1 5 -2 15 -3
22 -1 6 2 18 8 25 5 7 10 24 11 38 0 19 -9 29 -50 49 -73 37 -109 59 -117 70
-4 6 -8 6 -8 2 0 -4 -10 -2 -22 4 -29 15 -71 19 -92 7z"/>
<path class="feature" d="M6347 2683 c-13 -13 -6 -49 18 -88 14 -22 25 -49 25 -60 0 -11 9 -39
20 -62 15 -34 24 -43 44 -43 40 0 43 37 12 135 -19 58 -35 91 -53 105 -26 20
-54 26 -66 13z"/>
<path class="feature" d="M1142 2247 c-22 -26 19 -146 57 -166 12 -7 21 -8 21 -4 0 4 4 4 8 -2
13 -19 70 -45 96 -45 14 0 26 -3 26 -7 0 -5 18 -27 40 -51 22 -24 40 -47 40
-51 0 -5 14 -23 30 -41 34 -37 70 -85 70 -94 0 -4 -11 1 -24 9 -13 9 -44 18
-70 21 -42 6 -46 4 -58 -21 -11 -24 -10 -29 11 -46 13 -11 31 -19 40 -19 23
-1 44 -20 60 -55 34 -77 44 -93 84 -135 89 -93 124 -112 155 -83 26 24 17 43
-50 116 -21 21 -38 42 -38 44 0 3 -10 19 -22 36 -19 28 -19 30 -2 15 10 -9 33
-22 51 -30 18 -7 80 -59 138 -116 58 -56 110 -100 116 -97 5 4 9 2 9 -3 0 -5
10 -20 23 -34 12 -14 29 -38 38 -53 13 -21 37 -36 103 -60 48 -18 102 -45 121
-59 18 -14 42 -26 52 -26 20 0 47 35 38 50 -3 5 0 18 7 29 9 15 9 23 -1 35 -8
9 -20 16 -28 16 -25 0 -173 161 -173 190 0 54 72 20 180 -84 64 -62 121 -109
212 -175 16 -12 24 -12 39 -3 11 7 36 9 62 6 31 -5 53 -1 76 11 26 13 35 14
48 4 9 -8 50 -13 117 -13 l103 -1 65 -68 c35 -37 67 -67 70 -67 11 0 132 -74
152 -92 11 -10 28 -18 39 -18 10 0 60 -20 111 -45 52 -25 98 -45 103 -45 11 0
133 -127 149 -156 21 -37 84 -25 84 16 0 10 6 20 13 23 9 3 9 7 0 17 -6 7 -9
18 -7 25 8 21 -130 157 -222 220 -106 72 -106 71 -207 160 -113 100 -132 112
-187 119 -32 4 -59 15 -76 31 -15 14 -41 29 -58 34 -17 5 -67 24 -111 41 -44
18 -114 43 -155 57 -81 26 -200 82 -200 93 0 15 -74 40 -118 40 -33 0 -80 14
-157 46 -142 60 -152 61 -198 30 -32 -22 -43 -25 -75 -18 -45 11 -241 149
-327 232 -12 11 -30 20 -42 20 -11 0 -28 11 -37 25 -22 33 -63 74 -111 110
-36 27 -66 43 -157 85 -15 7 -25 16 -23 20 8 12 -59 65 -86 68 -14 2 -31 -3
-37 -11z"/>
<path class="feature" d="M3933 2195 c-15 -17 -17 -52 -3 -57 5 -1 10 -21 11 -43 1 -22 7 -46
12 -52 5 -7 6 -13 2 -13 -5 0 -1 -8 7 -17 9 -10 19 -29 23 -42 4 -14 33 -50
64 -81 31 -31 69 -76 83 -101 23 -39 25 -47 13 -69 -7 -14 -27 -35 -44 -48
-17 -12 -31 -30 -31 -38 0 -27 72 -88 140 -119 83 -38 150 -78 222 -132 31
-24 61 -43 67 -43 6 0 11 -7 11 -15 0 -8 5 -15 10 -15 6 0 10 -5 10 -10 0 -15
51 -91 78 -118 13 -12 31 -22 41 -22 20 0 47 43 36 59 -3 6 -9 23 -11 38 -3
15 -10 33 -16 40 -6 7 -7 13 -3 13 4 0 1 8 -6 18 -8 9 7 -1 33 -23 25 -22 47
-46 47 -53 1 -7 7 -15 15 -18 8 -3 17 -16 20 -29 7 -27 88 -115 106 -115 20 0
40 28 37 51 -2 12 -13 30 -25 40 -12 9 -22 22 -22 28 0 6 -5 11 -11 11 -5 0
-8 4 -5 8 3 5 -4 18 -14 30 -11 12 -20 26 -20 31 0 5 -17 24 -38 43 -21 18
-49 48 -63 66 -13 18 -40 43 -59 55 -19 11 -42 30 -50 41 -8 11 -42 45 -75 75
-136 126 -289 276 -355 349 -44 49 -92 128 -103 170 -6 24 -20 48 -29 53 -10
5 -18 18 -18 27 0 39 -61 58 -87 27z"/>
<path class="feature" d="M222 1937 c-27 -28 -28 -57 -4 -88 11 -13 22 -37 26 -53 7 -28 70
-96 88 -96 5 0 14 -4 21 -10 123 -99 150 -119 233 -170 83 -51 107 -84 130
-177 9 -37 20 -77 25 -88 4 -11 11 -31 15 -45 4 -14 15 -37 25 -52 11 -14 19
-29 19 -32 0 -4 10 -20 22 -36 17 -24 29 -30 58 -30 20 0 41 5 48 12 18 18 14
107 -7 164 l-18 51 40 -20 c22 -10 77 -56 122 -101 45 -44 100 -92 122 -106
22 -14 45 -37 51 -52 20 -54 123 -89 158 -54 64 65 -86 268 -275 372 -19 10
-44 27 -55 36 -39 31 -71 59 -108 94 -20 19 -40 34 -44 34 -13 0 -149 83 -153
94 -11 27 -85 81 -161 117 -139 64 -165 78 -190 102 -14 13 -33 26 -43 30 -9
3 -22 18 -29 32 -6 14 -15 25 -20 25 -4 0 -8 6 -8 13 0 15 -41 57 -56 57 -6 0
-20 -10 -32 -23z"/>
<path class="feature" d="M71 1828 c-5 -13 -7 -54 -4 -93 2 -38 6 -119 8 -180 2 -60 6 -123 8
-140 3 -16 7 -52 11 -78 9 -66 17 -79 105 -172 42 -44 92 -99 111 -123 52 -65
122 -112 168 -112 54 0 73 18 79 74 4 35 0 59 -15 94 -12 26 -30 79 -41 117
-12 39 -34 90 -51 115 -16 25 -30 49 -30 53 0 5 -46 66 -102 135 -90 113 -158
224 -158 259 0 14 -58 73 -72 73 -5 0 -12 -10 -17 -22z"/>
<path class="feature" d="M7609 1644 c-11 -14 -3 -74 10 -74 4 0 8 -20 10 -45 3 -63 44 -146
94 -193 24 -21 49 -41 57 -44 8 -2 14 -30 16 -88 5 -110 27 -155 75 -155 31 0
34 3 37 33 2 19 -4 50 -14 70 -10 21 -19 60 -21 87 -7 84 -11 92 -72 140 -65
51 -81 82 -81 152 0 67 -36 125 -81 128 -11 1 -24 -4 -30 -11z"/>
</g>
</svg>
